<svg xmlns="http://www.w3.org/2000/svg" viewBox="0 0 277.1 128.8" enable-background="new 0 0 277.1 128.8"><style type="text/css">.st0{fill:#D34127;} .st1{fill:#2BABE2;} .st2{fill:#FFFFFF;} .st3{fill:#D34027;}</style><g id="Layer_1"><path class="st0" d="M52.3 107.9l.8.1.4-.1-1.2-.1zM94.6 108.6l-.3-.3-.2-.1-.4-.1-.9-.2h-1.9l-.6-.1-.1-.1-.1.1-.4.2-.1.1v.4l-.1.5.1 1.8v1l-.1.5.1 1.7-.2.1.2.1v.4l.2.8h.1l.2-.1.2.1h1.9l.9-.1.5-.1.9-.4.3-.3.3-.4.1-.2h.2l.1-.1-.1-.1.1-.2.1-.3.1-.5.1-.9v-1.1l-.3-.9-.2-.5"/><path class="st0" d="M107.4 111.2l.6-7.6-.6-2.1.2-3.5-.5-1.8-4.8-.6H86.5l-3.7-.6-1.6.6-3.5-.6-3.4.8h-7.9l-1.6-.5-2.1.3-.6-.6-1.6 1-2.9-.5-4 .5-2.4-.6-.5-.6.2-1.1 1.6-.6.3-1.1 3.9-5.8-.3-1-1.1-1.4 1.1.2.6.6v1.3l.8-.5 2.7-2.9 2.4-3.2 3.1-2.4v-1.1l.6-1.3 3.2-2.1.3-1 2.1-3.2 2.4-2.9 3.1-2.2v-1.3l.6-1.4 1.4-1.3 4.8-5.9 2.7-2.6.3-1 2.2-3.2 7.6-8.7 4.3-6.1 2.6-2.4 2.2-3.1.6-1.8.2-1.8-.3-1.8.6-4-.3-1.8V6l-.5-3.2-.6-1.1-10-.4-47 .4L33.3 1l-3.7.2H13.4l-4.8.5-.8-.4-4 .3-1 1.4-.2 5.9L2 11l.6 11.4v8l.5 1.8 1.8.6 3.7.3 7.6-.3.3.6 2.1.2 2.7-.5 5.6.3 1.4-.6 19 .3.8-.5 1-1.4.6-.5.2.8-.5 1.5.6.8 1.3-.8 1.1.2 1.8 4.8-2.1 3.2-1.3 1.4-1.8.8v1.3l-1 1.8-2.9 2.2.6 1.3-2.2 1-1.9 2.2-1.9 3.7-2.1 1.1-.3.8L29.5 69l-5.3 5.6-3.4 5.1-5.6 5.6-2.1 3.2-4.8 5.6-2.1 3.2-2.1 1-3.1 4.9-.5 8.2v7.7l.8 7.2.6.5 2.9.6 6.4.2 1.4.5 1.3-1 9 .3 2.1-.3 1.4.6 1.8-.5 5.8.5 8.7-.3 3.7.2 1.4.5 2.7-.6 3.9-.3 12 .6 15.1-.6 3.5.6 1.8-.6h2.1l5.3.6 3.9-.6h1.9l1.6.6 5.3-1 .5-1 .3-5.1-.5-3.7.6-1.3-.4-4.5zM91.5 21.8l.6.5v1.3l-.6-.6v-1.2zm0 6.2l.6.3-.3 2.1-1-.5.7-1.9zm-2.4-14.9h.6v.8h-.6v-.8zm-3.4 3l.3.8-.8-.3-.3-.8.8.3zm-.5 5.3l1.1.3-.6.5-1.1-.2.6-.6zM72.8 43.3H72l-.3-.8.6-.2.8.2-.3.8zm3.4-23.6l-.3.6-.8-.5-.2-1.1h1.3v1zm2.9 29.4l-.8-.3.3-.8.8.5-.3.6zm-.8-18.5l-.8-.8.2-.8.8-.3.6.3.3 1.8-1.1-.2zm3.9 9.8l-1-.3-.2-1h1.4l-.2 1.3zM82 12.6l.8-.2-.3 1.4-.6-.5.1-.7zm.2 5.3l.6.5v1.9l-.8-.5-.2-1 .4-.9zM81 25.3l1.1.2.5.5.2 1-.6.3H81l-.3-1 .3-1zm.7 6.6l1.1.3-.3 1-1 .3-.6-.3-.2-1 1-.3zm-3.4-16.4l1 .5.5 1-.3 1-1-.3-.5-1 .3-1.2zm-.5 7.1l1.6-.5.3 1.4-.6.2-1.8-.5.5-.6zm-1.6-9.5l-.3.6-1 .2-.6-.5-.2-1 2.1.7zm-1 11.1l.6.5.3.8-.3 1.8-1.8-.6 1.2-2.5zm-.4 8h.8v1.6l-1-.3-.5-1 .7-.3zm-1.3-2.3l-.8.3-.2-.6 1-.3v.6zm-1.8-8.5l1.3 1.1.2.8-.3.8-1.3-.3-.5-.6.6-1.8zm-.3 7.6l.3 1.8-.8-.2-.2-1.9.7.3zm-.2 5.9l.8-.3.6.3.2 1-1 .2-1.1-.5.5-.7zm0 13.4l1-.3.3 1.4-1 .2-.8-.5.5-.8zM17.1 13.7l-.6-.6h1.1l-.5.6zm9.5 2.9v-1.1l.6.6-.6.5zm3-3.5h.6v.8h-.6v-.8zm1.1 13.2h-.8v-.6h.8v.6zm18.4-13.9l-.5.3-.3-1 .8.7zm-2.4-2.7l-.3.8h-.8l-.3-.8h1.4zm-11.1 10l.8.3.2.8-.8-.3-.2-.8zm.6 7.5l-.2-.6.8-.6.2.6-.8.6zm3.2-3.7l-.2-1.8.6.3.2 1.8-.6-.3zm2.6-4l-.2-.8.3-.8.6.6v1.3l.3 1-1-1.3zm3.8 9.8h-.6v-.6h.6v.6zm1.2-5.8l-.7.5-1.1.2 1.1-1.4 1-.3-.3 1zm-.3-6.9l-.5-1.1h1.1l-.6 1.1zm2.7 10.5l-1.1.2-.3-.8.3-.8 1.1.2.6.5-.6.7zm.6-6.8l-.8-.6.2-1 1 .5-.4 1.1zm1.8-12l1 .6h-1v-.6zm1.4 15.4l-1.1.5-.3-1.4 1.1-.2 1 .2-.7.9zm.2-7.1l-1.9-.3.3-.6 2.1.2-.5.7zm2.4 55.1l-.3-1.3.8.6.3 1.1-.8-.4zm1.1-6.4h-.6v-.6h.6v.6zm2.6 3l-.6-.5-.2-.8.8.2.5.5-.5.6zm-1.1-20.7l1 .3.3.8-1-.3-.3-.8zm7.5 8.4l-1-.3-.2-1.1 1.1.5v.9zm.7-6.6l-1.3-1 .6-.6 1 .2-.3 1.4zm1.7-37.3l.6 1-1-.3.4-.7zm-.4 6.8l.5-1 1 .5v1l-.6.5-1 .2.1-1.2zm1.9 6.7l-1 .3-.5-.6 1.5.3zM68 32.2h1.8l-.5 1.6-1.6-1 .3-.6zm1.8 13l-.2 1-.6.5-.8-.3-.2-.9 1.8-.3zm-1.9-6.4l1.4-.8-.3.8-1.3 1 .2-1zM69.8 59l-.6.5H68l-.3-.8 2.1.3zm-3.5-42.7l-.6.2-.8-.3-.3-1 .8-.3.6.5.3.9zm.6 5.8l-.3 1.4-.8-.2-.2-1.6 1.3.4zm-2.7-13l.3-.6.8-.2-.3 1.1-.8.6v-.9zm0 19.9l1 .5h.6l.8-.5.3.8-.3.6-.8.3-1.6-.3V29zm1.7 7.2h-.6l.3-1 .3 1zM65 41h1.1l.8.5v1.6l-1.6.8.6-1.4-.6-.3-.8.2-.3-.8.8-.6zm-1.5-21.7l-.3.8-.6.5-1.1.2-.2-1.8.5-.6 1.1.2.6.7zM61.4 4.9l1 .2.3.8-.3.6-.8-.2-.5-.6.3-.8zm.4 19.6l.8.3.6 1.8-1.8.6-.3-.8.7-1.9zm-.4 7.7l.8.6-.2 1-1-.5.4-1.1zm-.1 6.6l.5-.8 1 .2.8 1.3-1.8 1-.6-.6.1-1.1zm.6 5.8h1.3l-.8 1.8-1 .3-.3-1.8.8-.3zM58.2 9.5h.8l.3.8h-1.4l.3-.8zm1.8 6.3l.5.8-2.6.3-.3-1.8 2.4.7zm-.5 14.1l.5.8-2.1-.6.3-1.1.8-.6 1 .3-1.3 1 .8.2zm-.8-7.7l.6.3.3 1-1.8-.3-.3-.8 1.2-.2zm-1.1 13.4l1-.3 1.1.3.8.6-.4.8-.8.3-1-.2-.8-.6v-.9zM56 38l.8.3.2 1.1-.3 1-.8-.5-.3-1 .4-.9zm-.4-6.4l.3-.8.6.6-.3.8-.6-.6zm.4-19.8h.6v.6H56v-.6zm-.2 1l-.5 1-.5-.3 1-.7zm-1 6.2l.3-.6.8.3-.3 1-.8.3v-1zm.7 6l.8.2.5.8v.8l-1.3.2.3-.8-1-.5.7-.7zm-.3 33.9l1.8-.2-.3.8-1 .3-.8-.5.3-.4zm-2.3 16.2l-.5-.3-.3-.8h1l.8 1.3-1-.2zm.5-7.2l-.6-.5h1.1l-.5.5zm-1.3-5.7l.3-.6v-.8l.5.8-.8.6zM53.6 50l-.5-1 .8.6-.3.4zm-.8-8.2l1 .6-.2 1-1-.2-.2-.8.4-.6zm-.4 6l.6 1-1.3.3-.3-1.1 1-.2zm-.6 7.2l1-.2-.5 1-.8-.2.3-.6zM20.3 94.4l-.5.6-.6-.2-.2-1 1.3.6zm-1.3 6.1l.8.5-.2 1-.6-.5v-1zm-2.7 11.7l-.6-.5-.2-.8 1.1.5.6.8h-.9zm1.3-6.6l-.8-.2-1-1.4.3-.8h1.1l.3.6v1.8zm1.4 1.1h.6v.6H19v-.6zm1.3 7.9l-.6-.6 1-.3-.4.9zm1.6-16.5l.8-.3h1.1l-.3.8-1.8.6.2-1.1zm.7 13.6l-.8.2-.3-.8.3-1 1.3 1.1-.5.5zm1.4-6.1l-.8.3-.2-.6 1.1-.3-.1.6zm8.2-23.9l.2-1.1.8.5V83l-1.4-.5.4-.8zm-.5 6.1h.6v.6h-.6v-.6zm-.2 6.4l.8-.3V95l-.3.7-.6-.5.1-1zm-1.7-2.7l-.5-.6h1l-.5.6zm.1.8v.6h-.6v-.6h.6zm-1.6-8.4l1.1.8.2 1-1.1.2-.5-.8.3-1.2zm-2.1 10.8l.3.8-1.1.2.8-1zm.7 7.2h-.6l.3-1.1.3 1.1zm-1.5 6.1l1.1.2-.5.5-1 .2.4-.9zm1.2 7.4l-.8-.3-.5-.5-.2-1 2.1.3-.6 1.5zm4-4.3l-1.3 1-.6-.2v-1.3l2.1-.5-.2 1zm-1-5l-1.3-2.9 2.4.5-1.1 2.4zm1.1-7.4l-2.9-.6v-1l1.8-.5 1.1 1.1v1zm2.5 16.7l-.6-.8.3-1 .6.6-.3 1.2zm0-6.6l-1.8-1.1 1.4-1 .5.5.2.8-.3.8zm-.5-6.2h-1l-.3-1 .3-1.1 1.8.8-.8 1.3zm2.5-25.4l1 .2-.5.6h-1l.5-.8zm.5 14.4l.6.5.2.8-1-.2-.8-1.3 1 .2zm-.1 27.2h-.8v-.6h.8v.6zm1.3-7.2l-.3.6-.6-.5.2-1 .8-.2v1.1zm0-6l-1.8-.5-.5-.5-.2-1 1-.5h1.1l.3.6v1.9zm-.2-6.4l-1.1.3.3-1.1-.2-.5-1.3.2.2-1 .6-.3h1l.6.3-.1 2.1zm5-21.5h.8v.8h-.8v-.8zM38.1 101l.5-.6 1.1-.2v2.1l-1.8-.3.2-1zm2 13.9l-.8.2V114l.8.2v.7zm-.4-7l-1.4 1-.3-1 .3-.8.8-.3 1 .3-.4.8zm0-11.9l-1-.3-.5-1.8 1.8-.6-.3 2.7zm0-6.6l-.8-.3.3-.6.8.3-.3.6zm-.3-6.8l-1.1.4.6-.8 1.1-.3-.6.7zm3.1 29.6l-.8-2.1 1 .8-.2 1.3zm.1-8.2l-.5-.8 1.3.5-.8.3zm.2-4.5l-.8-.1-.3-1 .5-1.6h1l.3 2.1-.7.6zm-1.1-7.7l1.1.3.3.8-1.1-.1-.3-1zm1.4-5.8l-1.3-1-.8-.1.6-1.3 1.8.6-.3 1.8zm-.3-14.6l-1.1-.3.8-.6 1 .3-.7.6zm3 2.6l.5 1.1-.2 1-.6-.5.3-1.6zm-.9 6.9l.6-.3h1.1l-.8 1.3h-1v-1zm-.3 20.4l.5-.8 1.1-.3.5 1v1.1l-2.1-1zm1.2 6.7l-.3.8-.6-.6.3-.8.6.6zm-1.2 6l1.8-.3.8.5.2 1-2.8-1.2zm.9-24.6l-1-.3V88l1.3-1.3.6.5.8 1.6-1.7.6zm1.8-27.6h-.6v-.6h.6v.6zm9 35.3h.6v.6h-.6v-.6zm-3.9 3.1l1.4.3-.5 1-1.6 1.1.7-2.4zm-3.8-36h.8v.8h-.8v-.8zm0 6.7l1.1-.2-.5 1.1h-1l.4-.9zm0 12.7l.8.6.5 1.1-.2 1-.8-.3-.5-.6-.2-1 .4-.8zm.1 6.6l1-.3v1l-.8.3-.6-.3.4-.7zm-.6 7.4l.5-.6.8-.2-.5 1.1-1 .5.2-.8zm.5 13.5l.5-.5 1.3 1-.5.6-1.6-.3.3-.8zM59 121.5v-.6l.8.2.2.5h-1zm-3.4-7.4v.1l-.5.7v.1l-.2.1v.1l.1.1.3.1.5-.1.3.1.2-.1.1.1h.2l.2.1h.9l.4-.1.4.1.2-.1.4.1h.2l-.7-.6v-1.1l1.4.6.3.8-.7.2H61l.6.1.1.2v.4l.1.3-.1.9.1.5-.1.2.1.4v.6l-.1.1-.6.1-.2-.1h-.2l-.5.1-.6-.1h-.2l-.2.1-.4-.1-1.8.1-1.4-.1h-.5l-.3.1-.2-.1h-1.4l-.7-.1-.2.1-.2-.1H50.7l-.2.1-.2-.1h-.8l-.3-.1-.1-.1-.1-.9v-.3l-.4-1.1.4.1v-.5l.4-.6.2-.1.2-.4.6-.7.2-.4.7-.7.4-.6.6-.7.9-1.2v-.1l.2-.1.2-.4.2-.3.3-.1-.1-.2.3-.3.1-.2v-.2l.6.2.2-.2.2-.4-.2-.6h-.1l-.2.1-.1-.1.1-.2v-.1l-.1.1-.1.2-.1.1h-.7l-.3.8-1 .3-1-.3-.1-.8-.3.1H51v-.1h-1.3l-.2-.1-.1-.2v-1l-.1-1.1-.6-.4v-1.9l1.1.5-.1.4H50l.6-.1h2.3l1.9.1h.4v-.9h1.4l.3.9h4.7l.1.1.1.4v.4l.8.1.3 1-1.1-.3v.2l-.1.5v.4l-.1.2-.3.4-.3.3-.5.7-.9 1-.3.4v.1l-.3.3-.6.7-.2.2-.1.2v.2l-.4.3-.3.3-.2.4v.1l-.4.2-.1.2v.1l-.4.3-.3.4-.3.3-.1-.1m10-11.5l-1.1-.3-.3-1 1.1-.5.3.6v1.2zm5.1-2.1h.6v.8h-.6v-.8zM68 98.7h.6v.8H68v-.8zm11.5 9l-.2.2h-.2l-.7-.1-.2.1H78l-.9-.1h-.9l-1 .1h-.9l-.3-.1-.2.1h-1.2l-.2-.1v-.1l-.1.1-.1.2-.1.1-.1-.1v.4l-.2.3v.3l.1.2.1.2-.2.1v.1l.1.1h.3l.2.1.2.1h.2l.1-.1.9.1 1.9-.1 1.4.1h.8l.1.2.1.2v.7l.1.2v.1l-.1.1v.1l.1.4v.9l-.1.6-.1.1-1.8.1h-3.6l-.2.1H72v.2h.2l.3.8-.6.3.2.1v.1H72v-.1h-.1v.1l.1.1h.2l.2-.1.4.1h.4l.2-.1.5.1h1.3l.3.1.4-.1h.5l1 .1h.5l.2-.1.4.1h.7l.1.1.1.9V119l-.2.2h-2.8l-.9-.1-1.1.1-.8-.1-.2.1-.2-.1-.4.1h-.5l-.4-.1-.3.1-.9-.1h-2.1l-.2-.1h-.2l-.1-.5.1-1.4-.1-.9.1-.9V108l-.1-1.8v-.5h-.2l.2-1V104.4l.1-.2h.2l.1-.1.1.1h.4l1.9.1.8-.1.2.1h.9l.8-.1.6.1h.2l.2-.1h.2l.2.1h1.4l.8-.1h.3l.2.1.2-.1.1-.1.2.2h.7l.3.1v.3l.1.3-.1.5V106.9l.1.1-.1.4.3.3zm-.4-5.1l-1-.3-.5-.6 1.4-1.1.6.5-.5 1.5zm5.5 12.5l-.6-.6.5-.8.8.3-.7 1.1zm15.2-3.1l-.1.9-.2.9-.2.8-.4.8-.4.7-.8 1.1-.7.5-.5.3-.8.4-.5.2-1.6.4-.5.1-1.8-.1h-1.8l-1.9.1h-.9l-.4-.1h-.1l-.1-.1-.2.1h-.1l-.1-.1-.1-.4v-3.3l-.1-.5.1-.9-.1-.3.1-.2v-.5l.1-.2-.1-.5v-1.8l-.1-.5.1-.2V109l-.1-.3.1-.8v-1.5l-.1-.4.1-.2v-1.4l.2-.2H89.4l.4.1h3.5l.9.1 1.2.2.8.4.3.1.7.6.7.6.6.7.5.8.4.9.2.9.2.9v.3l.1.2v1zM121 106.7l.2.4v.4l.1.5.2.5.1.2v.2l.1.5.3.9.1.8.1.2.1.2v.3l.2.4.1.1-.1.1.1.2.1.1.2-.4.2-.7.1-.2v-.2l.3-1 .1-.5.2-.4.2-.9.3-.9.5-1.6.2-.4v-.4l.1-.2.4-1 .9-.1h2.6l.2.3.1.4.3.9 1.2 3.7.8 2.5.2.2.4.2.1-.2v-.3h.2l-.1-.2v-.1l.1-.2.2-.8.3-.7v-.5l.1-.4.2-.4.1-.5v-.1l.3-.9.5-1.9.2-.4v-.3l.2-.3.1-.1h2.8l.8-.1.5.1v.5l-.8 3.8-.1.2v.4l-.5 1.3-.4 1.9-.3 1-.3 1.2-.2.4-.3 1v.2l-.1.2-.4.9-.2 1.2-.2.6-.1.5-.1.3-.2.3h-3l-1.1-.1-.1-.2-.1-.3v-.2l.1-.1-.1-.1-.1-.2-.2-.9-.3-.9-.4-.9-.3-1-.7-1.9.1-.2-.2-.1-.3-1-.2-.4-.2-.2-.1.1-.1.1v.2l-.4.9v.4l-.4.9-.2.9-.2.4v.3l-.4 1.1v.3l-.2.2v.3l-.1.2-.2.3v.3l-.2.2-.2 1-.2.4-.2.2h-.5l-.3.1-.2-.1h-.6l-.2-.1h-1.5l-.6-.1-.2-.4-.3-1-.1-.2-.1-.2v-.2l-.1-.5-.3-1-.3-1-.3-.9-.2-1-.4-1.4-.2-.4v-.3l-.1-.2-.2-.7-.1-.2v-.2l-.3-.9-.6-2.2-.2-.4-.1-.8v-.1l-.2-.4-.1-.5-.1-.7.2-.1.4.1.2-.1h3.1l.5.1.5 1.9.1 1.2zm-2.8 1.1zm.1.6zm.5-1.2h-.1l-.1.1v.1l.2-.1v-.1zm-.2 1.7h-.1v.1h.1v-.1zm.1 2.5h-.1v.1l.1-.1zm-.1-5.8v.1l.1.1-.1-.2zm.2 2.6v-.1h-.1l-.1.1h.2zm.1 2h-.1v.1l.1-.1zm.1-4.2v.1l.1.1-.1-.2zm.2 5.7h-.1l-.1.1.2-.1zm0-4.7v-.1h-.1l-.1.1v.1l.2-.1zm-.1 2.2h-.1v.1l.1-.1zm0 3.2l.1.1-.1-.1zm.1-2.2zm-.1.8v.1h.1v-.2h-.1zm0 2.4v.1l.1.1.1-.1-.2-.1zm.3-.3zm.2-1.7zm.2 2v.1h.1v-.2h-.1zm.1 1.7h-.1.1zm0-6.8l-.1.1.1-.1zm0 3.4l-.1.1h.1v-.1zm-.1.9l.1.1h.1l-.2-.1zm0 3.3v.1l.1.1v-.2h-.1zm.1-8.1l.1.1-.1-.1zm.2 1.5h-.1l-.1.1.2-.1zm-.2 1.7l.1-.1h-.2l.1.1zm.4-2.9h-.1v.1l.1.1h.2v-.1l-.2-.1zm-.1.7v.2l.1.1h.1l-.2-.3zm.1.9l-.1.1h.1v-.1zm.1.9v-.1h-.1v.1l.2.2-.1-.2zm-.1 5.1h.1v-.2h-.1v.1h-.1v.1h.1zm-.1-4.3v.1l.1.1.1-.3-.2.1zm.1 1.8l.1-.1v-.2h-.2l.1.3zm-.1.7v.1-.1zm.3-1.6v-.1h-.2v.1h.2zm-.1 6.7zm-.1-4.5l.1.2.1.1v-.1l-.2-.2zm.1 1.8v.1l.1.1v-.1l-.1-.1zm.3 3h-.1v.1l.1.1v-.2zm.1-5.9v-.1h-.1v.2l.1.1h.1v-.1l-.1-.1zm.1-1.5h-.1l-.1.1h.2v-.1zm-.1 2.5l.1-.1-.1-.1h-.1v.1l.1.1zm.1.8v-.2h-.1l-.1.2v.1l.1.1.1-.2zm-.1-4.3h-.1v.2l.1.1V110.9zm0-1.5l-.1.1h.1v-.1zm.1 7.4h-.1v.1h.1v-.1zm.2-2.2h-.1l-.1.1v.1l.1.1h.2v-.1l-.1-.2zm-.1 1v.1h.2v-.1h-.2zm.2-4.2h-.1v.1l.1-.1zm0-.9v.1h.1l-.1-.1zm-.1 1.6v.1h.1v-.1h-.1zm0 .9v.1h.1v-.1h-.1zm.1 2.4zm.1.8h-.1v.1l.1-.1zm.4-5.9v-.1l-.2-.1v.2l.1.1.1-.1zm-.2 2.5h.1v-.1h-.1v.1zm.2 3h-.1l-.1.1v.1h.2v-.2zm0 1v-.1h-.1l-.1.1v.1h.2v-.1zm-.1-3.2l.1-.2H121.4v.2h.2zm.1.8v-.2l-.1-.1v.1h-.1v.1h.2zm.1.7l-.2-.1-.1.3h.1l.2-.2zm-.1 2.5v-.1h-.1l-.1.1.1.1.1-.1zm0 .9l-.1.1h.1v-.1zm.5-7.1h-.1v.1h-.1l-.1.1.3.1v-.3zm-.1 1.8v-.3l-.3.1.1.2h.2zm-.1.8h.1l.1-.1v-.1l-.1-.1h-.2v.1l.1.2zm0-1.7h.1v-.1h-.2v.1h.1zm.1 2.5l-.1-.2-.1-.1-.1.1v.1l.1.1h.2zm0 .8v-.2h-.2v.1h.1l.1.1zm0 .7v-.1h-.1l.1.1-.1.1.2.1-.1-.2zm0 1.8h-.1v.1l.1-.1zm.3-3.7h.1v-.2h-.2l.1.2zm-.1-.9l.2.1.1-.1v-.1h-.1l-.2.1zm.2 1.6v-.1h-.1v.4h.1v-.3zm0 .7h-.1l.1.2h.1l-.1-.2zm0 1.7h-.1v.1l.1-.1zm0-4.9v.1l.1.1-.1-.2zm.5 1.4v-.1l-.1-.2-.1.2.2.1zm0 1.7V115.4h-.1l-.1.1-.1.1.1.1h.2zm-.2-1.2l-.1.2v.1l.1.1.1-.3-.1-.1zm.2-1.5v-.1h-.2V113.2h.1l.1-.2zm-.1 3.2h-.1l-.1.1v.1h.2v-.2zm.1 1.7l-.1.2h.1v-.2zm.3-5.2v-.2h-.2l-.1.1.1.1h.2zm.1 3.2v-.1h-.1l-.1.1v.1h.2v-.1zm-.2-1.7v.2h.1v-.2h-.1zm.2.9l-.2-.1v.2h.1l.1-.1zm0-3.2v-.1l-.2.1-.1.1h.1l.2-.1zm-.2 1.5l.1.1-.1-.1zm.2 4.2h-.1l-.1.1v.1l.2-.1v-.1zm.4-1.8l.1-.1v-.1l-.1-.2h-.1l-.1.1.1.2.1.1zm-.2-3.7l-.1.1v.1h.1v-.2zm.2 1.1v-.2l-.1-.1-.1.2.2.1zm-.1.7h-.1v.1l.1-.1zm.1 3.1h-.1l-.1.1v.1l.1.1v-.1l.1-.2zm-.2-2.2l.1.1-.1-.1zm.2 1.4h-.1v.1h.1v-.1zm-.1-4.9v.1h.1l-.1-.1zm.2 4.8h.1l.1-.1v-.1l-.1-.1-.1.1h-.1l.1.2zm.3-4.2v-.1h-.1l-.1.1v.1l.2-.1zm-.1.5h-.1l-.1.1v.1l.1.1h.1v-.3zm0 1.8h-.1v.2h.1v-.2zm-.1 2.5zm.1-6.6l-.1-.1v.2h.1v-.1zm.2 3.4l-.1-.2h-.1l-.1.1v.1h.3zm-.2 1.7h-.1.1zm0-4.2v.1-.1zm.4 3l.1-.1v-.2h-.1l-.2.1-.1.1h.1l.2.1zm.1-2.5v-.1l-.1-.1h-.1l-.1.1v.1H124.6zm0 .7h-.2v.1h.1l.1-.1zm-.2 2.5v.1h.1v-.1h-.1zm.2 1.5l-.1.1h.1v-.1zm.1-3.3l-.1-.1v.2l.1-.1zm.1-2l-.1.1v.1h.1v-.2zm0-1.5zm0 2.4v.1-.1zm.2 1l.1-.1v-.1h-.2l-.1.1.1.1h.1zm0 .8l.1-.1h-.3v.1l.1.1.1-.1zm-.1 1.5h-.1v.1l.1-.1zm0-.9v.2l.1.1.1-.2-.2-.1zm0-6.7v.1-.1zm0 2.6v.1l.1.1.1-.1-.2-.1zm.1 5.7h-.1v.1l.1.1h.1l-.1-.2zm.1-4zm.3-1.1v-.1l-.1-.1h-.2v.1l.2.1h.1zm-.2-3.4l.1.1h.1l-.1-.1h-.1zm.2 1.7h-.1l-.1.1h.2v-.1zm-.1.8l-.1.1.1-.1zm.1 3.3h-.2.2zm0-1h-.1l-.1.2.1.1.2-.1-.1-.2zm-.1-.8zm0 2.5zm.4-2.8h-.1v.1l.1.1v-.2zm-.1-.8l.2.1.1-.1v-.2h-.1l-.2.2zm0 2.4v.1l.1.1h.2v-.1l-.3-.1zm.2-3.2h-.1l-.1.1.2-.1zm0-1.6zm.3-.3v-.1h.1v-.1H125.9l.2.2zm.1 1.6l.1-.2h-.2v.2h.1zm-.1.6v.2l.1.1-.1-.3zm.1 2.4h-.1v.2l.1.1.1-.2-.1-.1zm0-4.1h-.1v.1l.1-.1zm.1 3.5h-.2v.1h.1l.1-.1zm0-5.1h-.1l-.1.1v.1h.1l.1-.2zm.4.6v-.1l-.1-.1-.1.3h.2v-.1zm0 .6v-.1l-.2.1v.2h.1l.1-.2zm0 1v-.1h-.3v.2l.3-.1zm-.3 1.6v.1h.1v-.1h-.1zm.2 1h.1v-.2l-.1-.1-.2.1v.1h.2zm-.1 1.4l.1.1-.1-.1zm.1-.9l-.1.1v.1l.1.1.1-.3h-.1zm.1-1.5v-.1l-.1-.1-.1.1.1.2.1-.1zm.3-2.3l-.1.2v.1h.1v-.3zm.1-2.4h-.2v.1l.2-.1zm0 3.5v-.1h-.2v.3h.1l.1-.2zm-.1 1.5h-.1v.1l.1-.1zm-.1-4.1v.1h.2v-.1h-.2zm.1.8h-.1l.2.2v-.1l-.1-.1zm.1 4.4l.1-.2H126.9v.2h.2zm0-1.9h-.1l.1.1v-.1zm.2-3.5l.1-.1.1-.1v-.1l-.3.1.1.2zm0 2.4l.1.1h.2l.1-.1v-.1l-.1-.1h-.1.1l.1.1h-.3l-.1.1zm.2.9l-.3-.2v.2l.1.1h.2zm0 .8v-.1h-.2v.1h.2zm-.1-3.5l-.1-.1v.2h.1v-.1zm.4 1.5l.1-.1v-.1l-.1-.1h-.1l-.1.1.1.2h.1zm-.2.6v.1l.1.1h.1l.1-.1-.1-.1h-.2zm.2 1.9v-.2h-.2l.1.1.1.1zm0-3.7l.1.1-.1-.1zm.2 2.6v-.1h-.1l-.1.1v.1l.1.1.1-.1v-.1zm-.1-3.2v-.2h-.1V106.6l.1-.1zm.2 4.5v-.1.1zm.3-1.6l-.2-.1-.1.1.2.1.1-.1zm0-3.3h-.2v.1h.1l.1-.1zm-.2 4v.2h.1l.1-.2h-.2zm.2-1.6h-.2l-.1.3h.1l.2-.3zm-.1-.9v.1l.1.1-.1-.2zm.4 2.1v-.1h-.1l-.1.1.1.1.1-.1zm0 3.4l.1-.1h-.1l-.1-.1h-.1l.1.2h.1zm-.1-4.3h-.1v.1l.1-.1zm0 2.7h-.1v.1h.1v-.1zm0 .6l-.1.2.1.1.1-.2-.1-.1zm.1-5.8h-.1v.1l.1-.1zm-.1 2.8h.1v-.1h-.1v.1zm.2-1.9l-.2-.1v.3l.1.1.1-.2v-.1zm-.2 3.3v.2l.1.1v-.3h-.1zm.2 1l-.1-.1-.1.1.2.1v-.1zm.1-5.1h-.1v.1l.1-.1zm.1.5l-.1.1h.1v-.1zm-.1 2.3v.1l.1.1h.1l.1-.1v-.1l-.1.1-.2-.1zm.3 1.1v-.2h-.1l-.1.1v.1h.2zm-.1.9h.1v-.1h-.2v.1h.1zm-.1.6h.1l.1-.1h-.2v.1zm.2.7h-.2v.1l.2-.1zm0-6.6h-.1v.1h.1v-.1zm.4 3.9v-.1h-.1l-.1.2h.1l.1-.1zm-.1-.8l-.1-.1v.2h.1v-.1zm.1 2.5v-.1h-.2l-.1.1H129.6zm0 1.7l.1-.2h-.2v.1h.1zm0-2.7zm0 1.7zm.5-.4h-.3l-.1.1h.1l.3-.1zm-.3.9l.1-.1.1-.1h-.2v.2zm0 2.5zm.1-5.1h-.1.1zm.1 1.1l.1-.2h-.2v.1l.1.1zm0-2.6h-.1.1zm.4 5.4l.1-.1-.3-.1-.1.1.1.1h.2zm0-3.2l.2-.1-.1-.1-.1.1h-.1v.1h.1zm0 .8v-.1h-.1v.1h.1zm.1.8v-.1l-.2-.2h-.1l.1.2.2.1zm-.3 2.5h.1l.1-.1.1-.2h-.2l-.1.1.1.1-.1.1zm.1 1.3zm.2-3.1v-.2h-.1l-.1.1v.1h.2zm0-4.1h-.1v.1h.1v-.1zm.3 1.1l-.1.1.1-.1zm-.1.8l-.1.2.1.1.1-.2-.1-.1zm.1 1.7v-.1h-.2v.1h.2zm0 3.2h-.1l-.1.1v.1l.1-.1.1-.1zm-.1-2.6v.1-.1zm.1 1.2l-.1-.1-.1.1h.2zm0 4.8h-.2v.3l.1-.1v-.2zm0-5.7l-.1.1.1-.1zm.1 1.5h-.1v.2h.1v-.2zm0-3.1h-.1v.1l.1-.1zm.2-.4v.1-.1zm.1.6h-.1l-.1.1h.1l.1-.1zm-.1 1.8zm.1-.2h-.1v.1h.1v-.1zm-.1 1v.1l.1.1.1-.2h-.2zm.1-4.2v.1l.1.1v-.1l-.1-.1zm.5 3.8v-.1h-.2l-.1.1v.1h.3v-.1zm0-.8v-.1h-.2l-.1.1v.1h.1l.2-.1zm-.1-1h-.1v.1l.1-.1zm0 3.6h.1v-.1l-.1-.1h-.1v.1l.1.1zm0 .8v-.2h-.1v.1l.1.1zm-.1-5.9v.1h.1v-.1h-.1zm.1 4.1l.1-.1h-.2l.1.1zm-.1.1l.1.1-.1-.1zm.2-3.3v-.1h-.2v.2l.2-.1zm.2 2.1l.2-.1.1-.1v-.1H131.9V114zm.1.9h.1v-.1l-.1-.1v-.1l-.1-.1-.1.1v.2l.2.1zm.1 1.5v-.1h-.1l-.1.1v.1h.1l.1-.1zm-.2.6v.1l.1.1-.1-.2zm.2-4l-.1-.1h-.1l.1.2h.1v-.1zm-.1 2.4h-.1v.1l.1-.1zm.2.3l-.1-.1h-.2v.1h.3zm0-3.4v-.1h-.1l-.2-.1v.2l.2.1.1-.1zm0 5v-.1h-.2v.2l.2-.1zm.2-3.1l-.1.1.1-.1zm0 .8l-.1.2.1-.1v-.1zm.2 2.6v-.1h-.2v.1h.2zm-.2-5h-.1v.1h.2l-.1-.1zm.1.8l-.1-.2-.1.2h.2zm0 2.7v-.2H132.2l.1.1v.1h.2zm0 .8v-.1l-.2.1-.1.1h.1l.2-.1zm.4-3.9l.1-.1-.1-.1h-.1l-.1.1v.1h.2zm0 1h.1v-.3l-.2.1-.1.1v.1h.2zm-.1.9l.2-.1v-.1l-.1-.1h-.1v.2h-.2v.1h.2zm.1 1.6l-.1-.1h-.1v.1h.2zm0-.8l.1-.3-.2.1v.1l.1.1zm-.1-3.6v.3h.1v-.1l-.1-.2zm.1 4.9h-.1v.1l.1-.1zm.4-4.2l-.1-.3h-.1l-.1.1v.1l.1.1h.2zm-.1.6h-.1v.1h.1v-.1zm.1 2.7v-.2l-.1-.1h-.1v.1l.2.2zm.1-.9v-.2h-.2v.1h.1l.1.1zm-.1 2.3l-.2.2v.1l.2-.2v-.1zm0-5.6h-.1l-.1.1.2-.1zm0 2.4zm.3-2.9h-.1v.1l.1-.1zm.1 1.8l.1-.1v-.2l-.1-.1h-.1l-.1.1h.1l.1.3zm-.2 1.5l-.1.1h.1v-.1zm.1 1.6l-.2.1.2.1v-.2zm.1-2.3l.1-.3h-.1l-.1.1v.2h.1zm-.1 1.7h.1v-.2h-.2l.1.2zm-.1 1.5v.1l.1.1v-.2h-.1zm.2-6.5h-.1v.1l.1-.1zm0-1l-.1.2.1.1V109.7zm0 5v.1l.1.1v-.3l-.1.1zm0-2.4v.1-.1zm.4.4h.1v-.2h-.1v.1l-.1.1v.1l.1-.1zm0 .7h-.1v.1h.2v-.1zm0 .8h-.1v.1h.1v-.1zm0-2.5h-.1v.1l.1.1.1.1v-.2l-.1-.1zm0 4.2v-.1h-.2v.1h.2zm-.1.7v.3l.1.1.1-.3-.2-.1zm.1-1.6h-.1v.1l.1.1.1-.1-.1-.1zm0-4.8v.1h.1l-.1-.1zm0 .7h-.1v.1h.1v-.1zm.3 4.8l.1-.2h-.2v.2h.1zm-.1-7.7v.1l.1.1v-.1l-.1-.1zm.3 1.9v-.1l-.1-.1-.2.1.1.1h.2zm0 3.2l-.1-.3-.1.3h.2zm-.2.9h.1v-.3h-.2l.1.3zm.2.7l-.2-.1h-.1v.1h.3zm-.1-3.4h-.1v.1l.1.1h.1l-.1-.2zm.1.8h-.1l.1.2h.1l-.1-.2zm.4 1.2h-.2v.2l.2.1v-.3zm-.2.9v.1h.2l.1-.1-.2-.1h-.1zm.2-3.9v-.1h-.1v.1h.1zm-.1 1.5h.1l-.2-.1.1.1zm.1-2.5zm0 3.4zm.2-5.4v.1l.1.1v-.1l-.1-.1zm.3 3.3v-.1h-.1l-.1.1v.1h.2v-.1zm-.1 4.1v-.1h-.2l.1.1h.1zm0-6.4V108h-.1V108.3h.1zm0 .5h-.1l-.1.1.2.1v-.2zm0 4.3zm.3-3.7h.1v-.1h-.1v.1zm-.1 1.7h.1-.1zm.3-4.2l-.2-.2.1.2v.1h.1v-.1zm0 1.8v-.1h-.2v.1h.2zm0 1.4h-.1v.1l.1-.1zm.1-.4v.2l.1-.1-.1-.1zm.2-3.4h-.1v.2h.1l.1-.1-.1-.1zm.1 1.1v-.1h-.1l-.1.1v.1l.2-.1zm-.1 1.4h-.1v.1h.1v-.1zm.1 1.7h-.1v.1h.1v-.1zm.3-2.1v.1h.1v-.1h-.1zm.2-2.1v.1h.2l-.1-.1h-.1zm.5-.3v.1h.2l-.1-.1h-.1zM159 113l-.4 1.5-.2.4-.2.3-.1.3-1.2 1.6-.2.2-.4.3-.1.2-.3.3-.6.3-.3.3-.8.5-1 .3-1.4.3h-.3l-.2.1h-1l-1.7-.2-.4-.2-.5-.1-1.1-.5-.2-.2h-.2l-1.4-1.3-1-1.1v-.2l-.2-.2-.4-.8-.4-.9-.4-1.4-.1-.2v-1.7l.1-1 .1-.5.2-.4.1-.2v-.3l.3-.4.4-.9.4-.6.3-.3.1-.2 1.1-1 .2-.2.4-.2.6-.4.7-.3.2-.1h.3l.2-.1h.2l.1-.1.6-.2.1-.1 2-.1 1 .1 1 .2 1.3.4.2.2.6.3.4.3.4.2.3.4.4.3.7.7.6.8.5.9.4.9.2.7v.5l.1.4-.1.4.1.3v.7l.1.2-.2.5v.3zm-15-2.7v-.1h-.1l-.1.2.3.1-.1-.2zm-.1 2.5h-.1v.2l.2.1-.1-.3zm0-1.7v.2l.1-.1-.1-.1zm.4.6v-.2l-.2.1-.1.1v.1l.3-.1zm0-2.5l-.2-.1v.2h.1l.1-.1zm.3 1.9l-.1.1v.1h.1v-.2zm.1.8h-.1v.1l.1-.1zm.1 2.5h-.1l-.1.1.2.1v-.2zm-.1-5zm.3-1.1zm0 .8v.1l.1.1-.1-.2zm.1 4.9h-.1l-.1.1v.1l.1.1.1-.3zm0-6.7h-.2V107.6l.2-.1v-.2zm0 2.5l-.1-.1v.2l.1.1h.1v-.1l-.1-.1zm-.1 1.7v.2l.1-.1-.1-.1zm.1 1.7l-.1-.1-.1.1v.1l.2-.1zm0 2.5h-.1v.2l.1.1.1.1v-.2l-.1-.2zm0-6.7h-.1.2-.1zm0-.7h.2l-.2-.1v.1zm.4.3l-.1.1h.1v-.1zm-.1 5.1v.1-.1zm.1-6.7l-.1.2.1-.1v-.1zm0 .8v.1l.1.1v-.1l-.1-.1zm.1 5.1zm.5-4.6l-.1-.1h-.2l-.1.1h.4zm-.2 4.1h-.1v.1h.1v-.1zm.1-5v-.1h-.1V107.6l.1-.1v-.1zm-.1 1.7zm.1.8l-.1-.1h-.1v.1h.2zm-.1-3.4v.1h.2v-.1h-.2zm.1 9.2v.1h.1l-.1-.1zm.1-6.6zm.2-2h.1-.1l-.1-.1v.1h.1zm0 1.5h-.1l-.1.1h.1l.1-.1zm0 5.1v.1l.1.1-.1-.2zm.1 3.2l-.1.1h.1v-.1zm4.4-9.5l-.2.1-.1.1-.2-.1h-.1l-.5.1h-.4l-.1.1-.4.1-.6.3-.1.3-.1.1h-.2l-.8.8.1.1.1.1-.3.3-.2.4-.1.5v.4l-.2.4v.2l.1.6v.3l.2.5.2.2v.2l.7 1 .1.3.2.1.1.1.2.1h.1l.1.3.9.4 1 .2h.5l.7-.1.2-.1.3.1.4-.2.5-.2.8-.6.5-.5.1-.4.2-.4v-.4l.2-.2.1-.5v-1.6l-.1-.2-.1-.4-.2-.4-.6-.8-.9-.8h-.2v-.1l-.2-.1h-.3l-.1-.2-.2-.1-.5-.1-.1-.1h-.2l-.3-.2zm-4.4 7.9zm.2.4v.1h.1v-.2h-.1zm.1-8.2l.1-.1v-.1l-.1-.1-.1.1.1.2zm.1-.8h-.1.1zm.1 10.6h-.1l-.1.1.2.1v-.2zm.1-11.1v.1h.1v-.1h-.1zm0 10.8v.1l.1.1h.1v-.1l-.2-.1zm.3.8h-.1.1zm.2-11.9l.1-.1-.1-.1h-.1l.1.2zm0 .6v.1h.1l-.1-.1zm.1 9.3v-.1l-.1-.1-.1.1v.1h.2zm.1.7h-.1l-.1.1v.2h.1l.1-.3zm-.2-9.2v.2h.1v-.2h-.1zm.7-1.9l-.3-.1v.2l.3-.1zm-.2 1.7h-.1v.1l.1-.1zm0 9.9v.1l.1.1.1-.2h-.2zm.2-11.2v.1h.1v-.1h-.1zm.1 11.6l.1.1.2-.2-.3.1zm.2-10.8h-.1v.1h.1v-.1zm-.1 10l.1.1h.1v-.1h-.2zm.5-10.3v-.1l-.1-.1h-.1l.1.3.1-.1zm.4-.4l.1-.1v-.1h-.2l-.1.1v.2l.2-.1zm-.1 1.5h-.1.1zm.1-.9l-.1-.1v.2l.1-.1zm-.1 11l.1.1-.1-.1zm.3-11.4v.1h.1v-.1h-.1zm.4 11l-.2-.2h-.1v.2H149.9zm-.1-11.8h-.1v.1h.2l-.1-.1zm.4 12.2h-.1l-.1.1.2-.1zm0 .6l-.1.1v.1l.1.1v-.3zm.3-12.9v-.1.1zm.1.3v-.1l-.2.1-.1.1h.1l.2-.1zm0-1h-.1l.1.1v-.1zm.3 1.3l.1-.2H150.7v.1l.2.1zm.1 11.6l-.1.2h.1v-.2zm.4-11.3h-.1l-.1.1h.1l.1-.1zm-.2 12.5l.1.1-.1-.1zm.1-1.7h-.1v.2l.1-.1v-.1zm0-12.4l.1.1-.1-.1zm.5.6h-.1v.1l.1-.1zm0 .6h-.1l-.1.1.2-.1zm.2-.3h.2v-.1h-.2v.1zm.6.2h-.1v.1l.1.1h.1l-.1-.2zm-.1 1.1v.1l.1.1-.1-.2zm.1 11.7h-.1.1zm.1-1.8h-.1v.1l.1-.1zm.2-.3l-.1.1h.1v-.1zm-.1 1.6v.1l.2.1v-.1l-.2-.1zm.2-11.8h-.1v.2h.1v-.2zm.1-.8zm.2.3v.1h.1v-.1h-.1zm.1.3zm-.1.8v.1h.1v-.1h-.1zm.6.4v-.1h-.2l.1.1h.1zm0 9.1l-.1.1h.2l-.1-.1zm.3-8.9l-.1.2.1-.1v-.1zm.1-.5l.1-.1h-.2l.1.1zm.1-.9l-.1.1h.1v-.1zm.2 11.2v-.1h-.2v.1h.2zm0-.8h.1v-.3h-.2v.1l.1.2zm-.1-1v.1l.2.1.1-.2h-.3zm.2-8.3l.1-.1-.2-.1.1.2zm0 10.8v.2-.2zm.1-10l-.1.1h.1v-.1zm.3 8.8v-.1l-.2.1-.1.1h.1l.2-.1zm0-.7l.1-.1v-.1l-.1-.1-.1.2.1.1zm0-1.9l-.1.1.1-.1zm.1-2.5h-.1v.1h.1v-.1zm0-4.8zm.3 1.1l-.2-.1v.1l.1.1h.1l.1-.2-.1.1zm0 1.8zm.1.7l-.1-.1h-.1l-.1.1.2.2v-.2zm-.2 2.6v.1h.1l-.1-.1zm.2-4.3h-.1v.1h.2l-.1-.1zm-.1 6h.1v-.1l-.1-.1h-.1l.1.2zm0-1h.1-.1zm.5-2.8v-.1h-.1v.3l.1-.2zm-.1 1.6v.1-.1zm.1 3.5h-.1l.1.1v-.1zm-.1.7v.1l.1.1.2-.1-.3-.1zm.4-4.7h-.2l-.1.1v.1h.1l.2-.2zm0 1h-.1.1zm.1 2.7l.1-.1v-.1l-.2-.1v.1h-.2v.1l.3.1zm-.2-7.9v.1l.1.1-.1-.2zm.1 6l-.2.1v.1h.1l.1-.2zm-.1.8v.1l.1.1h.1v-.1l-.2-.1zm.2-5.7v-.1h-.1l-.1.1h.2zm-.1.6l-.1.1h.2l-.1-.1zm.1 1.1h-.1.1zm0 3.9zm0-3.2v.1h.1l-.1-.1zm.5-1.3l-.1-.1h-.1l-.1.1v.1l.1.1.2-.2zm-.1 5h-.2v.1h.2v-.1zm.1-2.4v-.1h-.1l-.1.1v.1l.2-.1zm-.1-1.9h-.1.1zm0 3.4h-.1v.1l.1-.1zm.3-5.4l-.1.1h.1v-.1zm0 2.8v-.2l.1-.1-.3.1.2.2zm0 .5v.1h.1v-.1h-.1zm.2-1.5l-.1.1h.1v-.1zM175.7 115.6l.2.2.2.5.6.8.5.8.2.2.9 1.3.1.2-.3.1h-1.9l-.2.1-.4-.1-.4.1-.2-.1-.3.1-.4-.1h-.6l-1.1-1.6-.5-.5v-.1l-.7-1-.3-.2.1-.1-.6-.6h-.1l-.5-.1-.8.1-.4.2h-.1v.9l-.2.1.1.1.2.1-.1.7v1.8l-.1.2-.9.1-3-.1-.1-.2v-.2l.1-.5-.1-2.9v-1.6l-.1-.4.1-.1v-.2l-.1-.8.1-.5-.1-.5.1-.4-.1-.2v-.5l-.1-.9v-2l.1-1-.1-.7.1-.9-.1-1.1.2-.2h1.5l.3.1 1-.1 2 .1h2.9l1 .1 1 .2.1.1h.1l.6.3h.2l.8.6.4.3.6.7.5.8.1.2.2.8.1.3.1 1.9v.5l-.2 1-.2.5-.5.9-.5.8-.2.2-.2.1-.2.2v.1h-.1l-.1.1h-.1l-.4.6-.1.1.1.2h.3zm-10.5-4.5h-.1l-.1.1.3.1-.1-.2zm-.2 8.1v.1l.1.1-.1-.2zm.5-2.7h.1v-.3h-.1l-.1.1.1.2zm.1-1v.1h.1l-.1-.1zm.4-6.8h-.2v.1l.2-.1zm-.2 4l.1-.1h-.1v.1zm.1-2.4l.1-.3-.2.1.1.2zm.2 1.5h-.1l-.1.1.2.1v-.2zm-.1 2.4v.2h.1v-.1l-.1-.1zm0 .9v-.1.1zm.1-7.4l-.1.2h.1v-.2zm.2 5.2l-.1.1.1.1.1-.1-.1-.1zm.1-5.7h-.1v.2l.2-.1-.1-.1zm0 .9h-.1v.2h.1v-.2zm0 2.6l-.1-.1h-.1v.2l.2-.1zm0 1l.1-.1v-.2l-.1-.1h-.1l-.1.1v.1l.2.2zm.1.5h-.2l-.1.1.2.1.1-.2zm-.1 1.6h-.1l-.1.1.2-.1zm0-7.5zm.1 3.5h-.1v.2h.1v-.2zm.3-.3v-.2h.2l-.1-.1h-.1l-.1.1v.1l.1.1zm0-2.6h-.1v.1l.1-.1zm-.1.9h.1l-.2-.1.1.1zm.2 2.4h-.1l-.1.1h.1l.1-.1zm0 3.2h-.1l-.1.1v.1h.2v-.2zm0 1.6h-.1v.1h.2v-.1zm-.1 1zm.1-7.5l-.1-.1-.1.2v.1h.1l.1-.2zm-.1-3.5v.1l.1.1h.1l-.2-.2zm.1 1h-.1v.1h.1v-.1zm.2 3.9l-.1-.1v.2l.1-.1zm.2 1.6v-.1h-.2l-.1.1.1.1.2-.1zm0 3.2l-.2-.1-.1.2h.4l-.1-.1zm-.2-7.3l-.1-.1.1.1zm0 6.6h.1V113.7l-.1.1v.2zm.2-.9h-.1v.1h.1v-.1zm-.1-5.2l-.1.3.1.1v-.4zm0 5v.1h.1v-.1h-.1zm.1-7.4zm0 6.7l-.1.2h.1v-.2zm0 3.3h-.1v.2h.1l.1-.1-.1-.1zm.2-5.2h.1v-.1h-.1v.1zm.2.8v-.2h-.2l-.1.1v.1H167.7zm-.1 1.7h.1l-.1-.1-.1-.1h-.1v.1l.2.1zm0-4.9h.1v-.1h-.1l-.1.1v.1l.1-.1zm-.1 6.4l.2.1.1-.1v-.1h-.1l-.2.1zm.2.7h-.1l-.1.1h.2v-.1zm-.1 2.6h-.1.1zm-.1-11.6l.1.1h.1l-.2-.2v.1zm.3.9h-.1l-.1.1v.1h.1l.1-.2zm-.2 2.5h.1v-.1h-.1v.1zm.1 2.5l.1-.1h-.2l.1.1zm0 1.4l-.1-.1-.1.1v.1l.1.1h.1v-.2zm-.1-8.3v.2l.1.1v-.1l-.1-.2zm.3 6.3v.1l.1.1h.1l.1-.1-.1-.1h-.2zm.2 1.1l.1-.1-.1-.1h-.2v.2h.2zm0 .6h-.2v.1l.1.1h.1l.1-.2h-.1zm0 1v-.3h-.1l-.1.1.1.2h.1zm0 .8v-.2h-.1v.1l-.1.1v.1l.2-.1zm0-7.4l.1-.2h-.1v.1h-.1l-.1.1h.2zm0 3.2h-.1v.1h.1v-.1zm0-5.9v.1l.1.1-.1-.2zm0 11.6l-.1.2h.1v-.2zm.4-1.8v-.2h-.2v.1l.2.1zm-.1.6v-.1l-.2.1h.2zm0-5.8zm.2 4.3V113.3h-.2l-.1.2.1.1h.2zm-.1-8.5l-.1.1h.1v-.1zm.1 1.1l-.1-.1h-.1v.1h.2zm-.1.6l-.1.1h.1v-.1zm.1 5.9l-.1-.2h-.1V112.8h.1l.1-.1zm0-2.6l-.1.3.1.1v.1l-.1.3.1.2.2.6h.1l.1-.1h.1l.2.1.1.1h2l1-.1.4-.1.2.1.1-.2.2-.1.6-.4.2-.4.1-.5v-1l-.1-.4-.3-.4-.5-.5-.2-.1-.4-.1-1-.1H169l-.2-.1-.1.1-.2.2.1 1.9v.5zm.1-4.6v.2l.1.1v-.2l-.1-.1zm.2 8.3h-.2l-.1.2.1.1h.1l.1-.3zm.1 1v-.1l-.1-.1-.2.2.2.1.1-.1zm-.1-8.4h-.2l-.1.1.3-.1zm0 .7h-.1v.1h.1v-.1zm0 5.1zm.3 2.9h-.1v.1l.1-.1zm.2-9.9l-.3-.1v.2h.2l.1-.1zm-.1 6.6l-.1.1h.1v-.1zm.1 2.4h-.2l-.1.1.2.1.1-.2zm0-1.7zm0 .8l-.1-.1V113.5l.1-.1v-.1zm.2-8.6v.1l.1.1-.1-.2zm.1 9.9h-.1l-.1.1v.2h.2v-.3zm0-1.6l-.1.2.1-.1v-.1zm0-.8l.1.1v-.1h-.1zm.1-6.6v.1-.1zm.4.5l-.1-.2h-.2l.3.2zm-.1 9h-.1v.1l.1.1v-.2zm.1-2.5h-.1l-.1.1.2-.1zm.5 1.2h-.1v.3h.1v-.3zm-.1 1zm.4-2.2h-.1v.2h.1v-.2zm.1 1.8v-.1h-.1l-.1.1v.1l.2-.1zm-.1-.8zm.3.3zm.2 1.7v-.1l-.2.1v-.1l-.1-.1V115.7h.1l.2-.1zm0-9.1l-.2.1h.1l.1-.1zm0 7.3h-.1v.2h.1v-.2zm.2 1.2h-.1v.1l.1-.1zm0-2.5v.1l.1.1-.1-.2zm.2 1.8h-.2v.1l.2-.1zm-.1-1l-.1-.1.1.1-.1.2.1-.1v-.1zm.4 1.3h-.1l-.1.1v.1h.2v-.2zm.3-1h.1v-.2l-.1-.1-.1.1h-.2l.1.1.2.1zm.2.8v-.2l-.3.1v.1h.3zm-.3-2.6zm0 5v.1h.1l-.1-.1zm.3-1.7l-.1.1v.1h.1v-.2zm.1-.5v.1l.2.1h.1v-.1h-.1l-.2-.1zm.2-.6v-.2h-.1l-.1.2v.1l.2-.1zm0 1.7l.1-.1h-.2v.1h.1zm0-8.5h-.1v.2h.1v-.2zm0 5.9l-.1-.1-.1.2h.1l.1-.1zm-.1-7.5l.1.1-.1-.1zm.5 7.9l-.1-.2h-.1l-.1.1v.1l.1.1.1-.1h.1zm-.2.8v.1h.1v-.1h-.1zm.2-7.3zm-.1 8.8v.2h.1v-.1l-.1-.1zm.2-3.9zm-.1 3.2v.1-.1zm.4-2.1l.1-.1h-.2v.2l.1.1h.1l-.1-.2zm0 2.4h-.1v.1l.1-.1zm0-3.3h-.1v.1h.1v-.1zm.1 1.7l-.1-.1V114l.1-.1v-.1zm-.1.8v.2l.1.1v-.2l-.1-.1zm0 1.7v.1l.1.1-.1-.2zm.2-3.7v.1l.1.1-.1-.2zm.3 1.7l-.3.1.2.1.1-.2zm-.1-8.3l-.1.1h.2l-.1-.1zm0 7.4h-.2v.1l.2-.1zm-.1.1v.1h.1l-.1-.1zm.1 4.1h-.1v.1l.2.2v-.1l-.1-.2zm.1-2.6h-.1v.2h.1v-.2zm-.1-2.5v.1l.1.1-.1-.2zm.3-5.3l.1.1-.1-.1zm.1 7.5l-.1-.1-.1.1v.1h.1l.1-.1zm0-8.4h-.1l-.1.1h.2v-.1zm.1 7.6v-.1h-.1l-.1.1h.2zm-.1 2.6v-.1h-.2l.2.1zm.1-5.2l-.1-.1-.1.1v.1h.2v-.1zm0-3.1h-.1v.1l.1-.1zm.1 4.9zm.3-4.4v-.1l-.1-.1h-.1l-.1.1.2.1h.1zm-.1 5.5h-.1v.1h.1v-.1zm.1-8.1v-.1h-.2l.2.1zm-.1.6h-.1V107l.1.1.1-.2-.1-.2zm.1 3.5l-.2.1h.1l.1-.1zm-.2 7.4v.1l.1.1-.1-.2zm0-10.1v.1l.1.1v-.2h-.1zm.2 6.1v-.1h-.1v.1h.1zm-.1 2.3h-.1v.1h.1v-.1zm.4-5.3l-.1.1h.1v-.1zm.1.8l-.2-.1v.1l.1.1.1.1.1-.1-.1-.1zm-.2 1.6v.2l.1-.1-.1-.1zm.3-4.9h-.1l-.1.1.2.1v-.2zm-.2 6.5v.2-.2zm0 .8l.1.1-.1-.1zm.5-3.7h-.1l-.1.1h.1l.1-.1zm-.1 1.6v.1l.1.1-.1-.2zm.2-4h-.1l-.1.1.2-.1zm-.1.8v.2h.1v-.1l-.1-.1zm0 .8h-.1v.1l.1-.1zm.4-2.7l.1-.1h-.2v.1h.1zm-.1 1.4l-.1.1v.1h.1v-.2zm0-.6v.1l.1.1-.1-.2zM187.8 104.2l-.1.7v.5l-.1.3.1.7v.2l-.1.1.1.4-.1.2h-.1l.2.6v.1h-.1l.2.5.2.1h.2v-.2l-.1-.1.4-.2.1.1.4-.8.2-.1.5-.8v-.1h.2l1.3-1.5 1.3-1.4h5l.1.1-.6.8-1.3 1.4-.8.8-.3.4-.9 1-.6.8-.5.4-.3.4-.6.6v.5l1.2 1.5 1.6 2.3h.1l.2.4.9 1.2.5.8 1 1.2.1.3.4.5.1.2v.1l-1 .1h-2.9l-.7.1-.2-.1h-.1l-.6-.8-1.7-2.4-.8-.9-.1-.2-.1-.1-.2-.2-.2-.4-.2-.3-.1-.1v-.2l-.3-.2v.1l.1.1H188.4l-.2.1-.7.7.1.2v.9l-.1 2v1.5l-.3.2h-1.9l-1.3.1-.1-.2-.1-.1h-.1v.1h-.1l-.2-.1v-.4l-.1-.9.1-.2v-.2l-.1-1 .1-.8-.1-.3.1-.9v-1.5l-.1-.5.1-.3v-.2l-.1-1 .1-1.9v-3.1l.1-.5-.1-.2v-1.7l.1-.2.1-.1.9-.1h2.1l.9.1.1.2.2.8zm-3.3 10.7v.1-.1zm0-8.4v.1l.1.1-.1-.2zm.2.5v.1h.1v-.1h-.1zm.3 1.6h-.1l-.1.2v.1h.1l.1-.3zm-.1 6.7l-.1.1h.1v-.1zm.1-5.9h-.1v.1h.1v-.1zm.3-1l.1-.3h-.4v.2l.3.1zm.1 5.8v-.1h-.1v-.1l-.1-.1-.1.1v.1l.1.1h.2zm.1.8v-.1h-.2l-.1.1.2.1.1-.1zm0-7.6l-.2-.1-.1.1.2.2.1-.2zm-.2 1.6h-.1v.2h.1v-.2zm.1 1.7h-.1l-.1.2h.3l-.1-.2zm-.1-4l-.1.1.1-.1zm.2 5h-.2l-.1.1.3-.1zm-.1-6l-.1.1h.1v-.1zm-.1 4.2v.1h.1v-.2h-.1zm0 3.3l.1.1-.1-.1zm0-6.5v-.1l-.1-.1.1.2zm0 9.1zm0 .8l.1.1-.1-.1zm.5-9.6l-.2-.1-.1.1.2.1.1-.1zm0 5.1l-.1-.1-.1-.1-.1.1-.1.1h.4zm.1-2.5l-.1-.1-.1-.1h-.1v.1h.1l.2.1zm0 3.3l-.2-.1h-.1v.2l.3-.1zm-.3 4.1zm.2-9.1l-.2-.1v.2l.1.1h.1v-.2zm-.2.8l.2.1.1-.1H185.6zm.1 1.5zm.1 1.1v-.1l-.1.1v.1h.1v-.1zm-.2 2.6h.1v-.1h-.2l.1.1zm.2 1.6v-.1l-.2-.2-.1.1v.2l.1.1.2-.1zm0 .8h-.1v.1l.1-.1zm0-10.2h-.1l-.1.1v.1h.2v-.2zm0 10zm.5-7.7v-.2l-.1-.1h-.1l-.1.1v.1l.1.1h.2zm0 .8v-.2h-.3v.1h.1l.2.1zm-.1.6h-.1l-.1.1v.1l.2.1v-.3zm-.1 1.1h.2v-.1H186l.1.1zm.1.7h.1v-.1l-.1-.1h-.1l-.1.1v.1l.2.1v-.1zm0 3.4h.1v-.2l-.3.1v.1h.2zm.1-2.4v-.2h-.1l-.1.1-.1.1H186.3zm-.2 3.1l-.1.1h.2l-.1-.1zm.2-2.5h-.1l-.1.1v.1h.1l.1-.2zm-.1.9l-.1.1.1-.1zm.1 3.4h-.1.1zm-.1-10.1v.1-.1zm.4 4.4h-.1l-.1.3.2.1v-.4zm-.2 2.8l.1.1h.1v-.1l-.3-.1v.1zm.2-4.3v-.1h-.1l-.1.1v.2h.2v-.2zm0 .8h-.1l-.1.1v.1l.1.1v-.1l.1-.2zm0-1.7h-.1l-.1.1v.1l.1-.1v-.1zm0 6h-.1v.1h.1v-.1zm0-2.5v-.1l-.1-.1-.1.2v.1h.1l.1-.1zm0-5.1v.2l.1-.1-.1-.1zm0 5.8h-.1v.1l.1.1v-.2zm.2-6.6h-.2v.2l.2-.1v-.1zm0 1.6h-.1l-.1.1v.1l.1-.1.1-.1zm.3.6V108.9h-.2l-.1.1v.1h.2l.1.1zm-.3.8v.1h.1v-.1h-.1zm.2.9l.1-.2-.2-.1v.1l-.1.1v.1l.1.1.1-.1zm.1.9l-.1-.1v-.1l.1-.1h-.2v.2h.2zm0 .8v-.2H186.8v.2h.3zm-.2.8h.2v-.1l-.1-.1-.1.1h-.1v.2l.1-.1zm0 2.5h.1v-.1l-.1-.1h-.1l.1.2zm-.1.8l.1.1-.1-.1zm.1-8.5h-.1v.1l.1.1v-.2zm0-1.5zm-.1 8.2v.1h.1l-.1-.1zm.3-7.5l-.2.1.2-.1zm-.1 6.6v.2l.1.1v-.1l-.1-.2zm.1-5.7h-.1v.1h.1v-.1zm.4 4.6v-.1l-.1-.1-.2.2v.1l.3-.1zm-.1-1.8h-.1l-.1.2.1.2h.1v-.4zm-.1-2.2h.1v-.1h-.1v.1zm0 .5v.1l.1.1h.1v-.1l-.2-.1zm.2 2.6v-.1l-.1-.1-.1.2v.1h.1l.1-.1zm-.2-4.2l.2.1-.1-.1h-.1zm0 2.4v.1h.1v-.1h-.1zm.2 3.5v-.1h-.1l-.1.1h.2zm-.1-5zm0 5.6v.1l.1.1v-.1l-.1-.1zm.4-4.2l.1-.1v-.1h-.1v.1l-.1.2h.1v-.1zm.1.8v-.4h-.1l-.1.1v.1l.2.1v.1zm0 .9v-.3l-.1-.1v.1l-.2.2.1.1h.2zm-.1.6l-.1-.1v.1l.1.1h.1l-.1-.1zm0-3.3h-.1v.1l.2-.1h-.1zm.1 4.2v-.1h-.1V113.5h.1v-.2zm.1-5zm.4 2.2v-.2l-.2-.1-.1.1v.2l.1.1.2-.1zm-.2 1.4h-.1v.1l.1.1.1.1.2-.2-.3-.1zm.1 1.1l.1-.1-.1-.1h-.1l-.1.1v.1l.1.1.1-.1zm.1-3.5l-.1-.1h-.1l-.1.2.3.1v-.2zm-.1 1.9l.1-.1v-.1H188.1l.1.1v.1l-.1.1h.1l.1-.1zm-.2 2.3l.2.1v-.1h-.2zm.6-1.1v-.1l-.2-.1h-.1l.1.1.2.1zm0-3.4l.1-.1-.1-.1h-.1l-.1.1-.1.1.1.1h.2zm.1 2.5v-.2l-.1-.1h-.2l-.1.1v.1h.2l.2.1zm0-.8v-.2l-.1-.1h-.1v.4l.2-.1zm-.1 2.5h.1v-.1h-.2l.1.1zm.5-3h-.1v-.1h-.1V110.6h.1l.1-.2zm0 .9v-.1l-.2-.1v.3l.1.1.1-.1v-.1zm0 .8v-.2l-.2.1h-.1v.1h.3zm-.1.9v-.3l-.2.1.1.2h.1zm0 .6h-.1v.1l.1.2h.1v-.1l-.1-.2zm.1-5.7l-.2-.1v.2l.2-.1zm0 1.6h-.1v.2l.2-.1-.1-.1zm.4 3.1v-.2l-.1-.1-.1.1h-.1v.1h.1l.2.1zm0 .8v-.1l-.1-.1h-.2v.1l.3.1zm-.1-1.9h-.1l-.1.3.3-.1-.1-.2zm-.1-2.3h.2v-.1h-.3l.1.1zm.2.7h-.3v.1l.1.1.2-.1v-.1zm-.1.8v-.1h-.1v.1h.1zm-.1 3.3v.1l.1.1-.1-.2zm.1-3.2l.1.1-.1-.1zm.6-1.2v-.1l-.2-.1-.1.1v.1l.1-.1.2.1zm-.3-.9h-.1v.1l.1-.1zm.2 1.8l.1-.2-.2-.1h-.1v.4l.2-.1zm0 .7v-.1l-.1-.1h-.2v.2h.3zm0 1l-.1-.3-.2-.1.1.1v.1l-.1.1H190zm-.1 1.4l-.1.1h.1v-.1zm0-5.7v.1l.2-.1h-.2zm0 5v.1l.1-.2-.1.1zm.1-4.3v.1l.1.1-.1-.2zm0 5.1v.1l.1.1-.1-.2zm.1-2.9l.1.1-.1-.1zm.3-2.4v-.1l-.1-.1-.1.2h.2zm-.1.6h-.1v.2l.1.1.1-.2v-.1zm0 1.2v-.2l.1-.1-.2.1.1.2zm.1 1.3l-.2.1.2.1v-.2zm-.1 1.7h-.1v.2h.1v-.2zm.1 1.6l-.2.1-.1.1h.3v-.2zm-.1-4.2v.1l.1.1-.1-.2zm.1 3.4l-.1.2h.1v-.2zm.4-4.3v-.1l.1-.2h-.2v.1l.1.2zm0 2.2h-.1l-.1.1v.1l.2-.1v-.1zm.1 1v-.1l-.1-.1-.2.1v.1h.3zm-.3.6v.2l.2.1h.1v-.2l-.3-.1zm.1.9h-.1v.2l.1.1V114.4zm.1-5.6l.1-.2H190.6v.2h.2zm0 2.4h-.1v.1h.1v-.1zm.4-.6h-.1l-.1.1v.1h.1l.1-.2zm0 1.2V111.5h-.1l-.1.1v.2l.1.1.1-.1zm0 1.6v-.3h-.1l-.1.1v.1l.1.1h.1zm-.2-4.3v.1l.1.1v-.1l-.1-.1zm0 3.2l.1.2h.1l-.1-.2h-.1zm.2-2.3v-.1h-.1l-.1.1h.2zm-.1 4.1v.1l.1.1v-.2h-.1zm.4-2h-.1l.1.1v-.1zm0 .9zm0 1.7l.2-.1-.1-.1h-.1l-.1.1v.1h.1zm-.1-3.3h.1l-.1-.1v.1zm.1-1l-.1.1h.1v-.1zm.1 1.5h-.1.1zm.1 3.4l-.2.1v.1h.1l.1-.2zm-.1-2.6v.2h.1l-.1-.2zm.1-4.8h-.1v.1h.1v-.1zm0 5.8h-.1v.1l.1-.1zm.4-7.9h-.1l-.1.1.2-.1zm-.1.7h-.1v.2l-.1.1h.2v-.3zm0 1.8h-.1l.1.1v-.1zm0 1.7l-.1.1h.1v-.1zm0 2.5v.1-.1zm.4 1.2l-.1.1h.2l-.1-.1zm.1 1v-.2h-.1l-.1.1.1.1h.1zm0 1.5h-.1v.1l.1-.1zm-.1-.9v.1l.1.1-.1-.2zm0-8.4v.2l.1.1-.1-.3zm.1 5.2zm.2 2v.1h.2l-.1-.1h-.1zm.1 2.3zm.5-9.4l-.2-.1v.2l.2-.1zm-.1 9.2v-.1h-.1l-.1.2.2-.1zm0-1.7h-.1v.1h.1v-.1zm.1.8h-.1.1zm0 1.6zm.3-2zm0-9.1zm.2.7h-.1v.1h.1v-.1zm0 10.1h-.1v.1l.1-.1zm.4-.3v-.1h-.1l-.1.1h.2zm-.1.5v.2h.1l-.1-.2zm.4.7h-.1v.1l.1-.1zM214.7 108.9h-.8l-.2.1-1-.1h-1l-.5-.1-.1-.2.1-.1-.3-.3v-.1l-.2-.1v-.2l-.8-.5-.3-.1-.9-.1-.2-.1v-.1h.1v-.1l-.1-.1h-.1l-.1.3h-.5l-.4.1-.4.2-.2.3v.2l.1.2.5.6-.1.1h.1l.1-.1.4.2.4.2.3.2h.3l.2.1.9.3.3.2h.3l.2.2.5.2.9.4.8.5.3.2.1.2.2.2.3.2.5.8.2.2.2.4.2.7.2.4v.7l.1.2-.1.7.1.2-.2.4-.3.7-1.1 1.2-.2.1-.2.1-.2.3h-.1l-.3.2h-.3l-.9.3-.9.2-1 .1h-1l-1-.1-1.8-.4-.3-.2-.5-.1-.9-.5-.7-.6-.3-.3-.1-.2-.2-.4-.2-.2-.3-1.4v-.5l.3-.1h2.5l1 .1.2.2.2.5.2.1.1.2h.2l.4.2h.3l.1.2.1.1h1.4l.4-.1h.3l.4-.2.2-.1.2-.2.1-.1v-.1l-.1-.2v-.1h-.2v-.2l-.3-.3-.4-.1-.4-.3-.4-.2-.5-.1h-.3l-.4-.2-1.9-.7-.6-.3-.2-.1h-.2l-.3-.3-.5-.2-.7-.6-.6-.7-.3-.4-.2-.4-.2-.5v-.1l.1-.1-.2-.3v-1l.1-.5.3-.9.2-.4.5-.8.6-.5h.1l.6-.4.9-.3.1-.1.7-.1.5-.2h2l2 .3.3.1.2.1h.2l.2.1.4.3h.3l1.1.9.5.6.2.4.3.8.1.2.1.5v.5l-.1.4-.2.1.4-.4zm-10.4-1.7l-.2-.1v.1l.1.1v.1h.1v-.2zm.2.6l.1.1-.1-.1zm.1.7l-.1.1h.1v-.1zm0-1.6h-.1.1zm-.1 2.4v.1h.1v-.1h-.1zm.1 1zm.4-2h.1V108h-.2l.1.2v.1zm0-.9zm.1 2.3h-.1l-.1.1h.1l.1-.1zm-.1-.8v.1l.1.1v-.1l-.1-.1zm0-1.8v.1l.1.1-.1-.2zm.4 1.3h-.1v.1h.1v-.1zm.2 1.9v-.1h-.3v.2l.3-.1zm-.1-4.4h-.1l.1.2h.1v-.1l-.1-.1zm0 3.5h-.1l.1.1v-.1zm.1-2.6l-.1.1h.1v-.1zm.3-.4h-.1l-.1.1.2-.1zm0 3.4v-.2h-.1l-.1.1v.1l.1.1.1-.1zm-.2-2.6l.1.1.1-.1-.1-.1-.1.1zm.3.9l-.2-.1V108.3h.1l.1-.2zm.2 1.4h.1l.1-.1-.2-.1h-.1v.1l.1.1zm.1-3.5h-.1v.1h.1v-.1zm0 .9h-.1v.1h.1v-.1zm-.1 4.2h.1v-.1h-.1v.1zm0 6.5v.1h.1v-.1h-.1zm.1-7.5l-.1.1.1.1v-.2zm.1-1.5h-.1v.1h.1v-.1zm0 8.2l-.1.1h.1v-.1zm.3-6.3h-.1l-.1.1v.1h.1l.1-.2zm0 1.8v-.1h-.2v.2l.1.1.1-.2zm.1-5.1l-.1-.1-.1.3.1.1.1-.2v-.1zm0 .8h-.1l-.1.1h.1l.1-.1zm-.1.8h-.1v.1l.2.1v-.2zm.1-2.3h-.1v.1l.1-.1zm0 3.2h-.1v.1l.1-.1zm-.1.2zm.1 1.6l-.1.1h.1v-.1zm0-5.9zm.1 5.6h.1l.1-.1-.2-.1v.2zm.2-2.7l-.1.1h.1v-.1zm.1 1.7l-.2.2h.2v-.2zm0 6.5h-.1v.1l.1-.1zm0-10h-.1v.2l.2-.1-.1-.1zm0-.6v-.1l-.1-.1-.1.2v.1h.1l.1-.1zm.2 4.4l-.1.1v.1l.1.1.1-.3h-.1zm.2-.8l-.2-.1v.2h.2v-.1zm-.1 8.4h-.1.1zm0-1.1v.1l.1.1-.1-.2zm.2-7.9h-.1l-.1.1h.1l.1-.1zm0 1.1l.1.1.1-.1-.2-.1v.1zm.3 7.4h-.1l-.1.1h.1l.1-.1zm-.2-5.9v.1-.1zm.2-.7zm0 1.5h-.1v.1l.1-.1zm.3 3.8h-.1v.1l.1-.1zm.1-4.1l-.2-.1v.2l.2-.1zm0 4.9h-.1l-.1.1.2-.1zm-.1 1h.1v-.2h-.2l.1.2zm.2-12.5h-.1v.1h.1v-.1zm0 7.5h-.1v.1l.1-.1zm0-2.4v-.1h-.2v.1h.2zm0 .7h-.1v.2h.1v-.2zm.1 5.4l.1.1-.1-.1zm.2-5h-.2v.1h.2v-.1zm0-.9l-.1.1h.1v-.1zm.1-4.8h-.1v.1l.1-.1zm.3 5.5l.1-.2h-.2v.1l.1.1zm-.1.6v.1h.1l-.1-.1zm.1 1.6h-.1l-.1.1h.1l.1-.1zm-.1 3.5l.1.1-.1-.1zm.2-6.7h-.1v.1h.1v-.1zm.1-5.4v.1h.2l-.1-.1h-.1zm.3 5.9l-.2-.2-.1.1.3.1zm0 6.5v-.1h-.2l.1.1h.1zm-.2-10.9v.1h.1l-.1-.1zm.2 5.9l-.1-.2h-.1v.1h.2zm0-6.5h-.1v.1l.1-.1zm.5-.5l-.3-.1v.2l.3.1v-.2zm-.3 7.3v.2h.2l-.2-.2zm.2.8h-.1l-.1.1h.2v-.1zm-.2 2.6v.1l.2.1v-.1l-.2-.1zm.1.8v.1l.1.1v-.1l-.1-.1zm.1 1zm.2-4.7v.1l.1.1.2-.1-.3-.1zm.2 1l-.2-.2v.2h.2zm.1-8.3v-.1h-.1l-.1.1.1.1.1-.1zm-.3.6v.1h.2v-.1h-.2zm.2 11.1h-.1.1zm0 .7l-.1.1h.1v-.1zm-.1-6.8v.1h.1v-.1h-.1zm0 6.7h.1-.1zm.2-.8zm.1-5.5v.1h.1l-.1-.1zm.1 1.7h-.1v.1l.1.1v-.2zm.2 2.7l-.1-.1-.1-.1-.1.1.1.1h.2zm-.2-11.8h-.1v.1l.1-.1zm0 6.8l.1-.1h-.2l.1.1zm.2 5.7h-.1v.1l.1-.1zm.1-5.5v.1l.1.1-.1-.2zm.1 3.4zm0 1.6h-.1v.1l.1.1v-.2zm.2-3.2v-.1h-.1l-.1.1-.1.1h.1l.2-.1zm-.1.8h-.1l-.1.1h.2v-.1zm0 3.3l-.1.1.1.1v-.2zm-.1-1.8l.1.1-.1-.1zm.4-.2l-.1.1.1-.1zm.2-10h-.1l-.1.1.2-.1zm-.1 1.1l.1-.2h-.2v.1l.1.1zm.1 5.6h-.1l-.1.1h.1l.1-.1zm0 3.1h-.1l-.1.1h.1l.1-.1zm-.2.9v.1h.1l-.1-.1zm.1-2.4l.1.1-.1-.1zm.4-1.2v-.1h-.1l-.1.1h.2zm0 2.4v-.1h-.1l-.1.1h.2zm.1.9l-.2-.1v.2h.1l.1-.1zm-.1-2.6h-.1l-.1.1.2-.1zm-.1.8l.1.1h.2v-.1h-.3zm.2 2.6h-.1l-.1.1.2-.1zm-.1-10.1h-.1v.1h.1v-.1zm.1 5.2v-.1l-.1-.1-.1.1v.1h.2zm-.1 5.7zm.4-3.7v-.1h-.2v.1h.2zm-.1 2.5h-.1v.1l.1-.1zm.3-3.5h-.2l-.1.1v.1l.2.1.1-.3zm-.2 2h.1v-.2h-.2l.1.1v.1zm-.2.6l.1.1.1.1-.1-.1-.1-.1zm.3-9.1zm.2 6.2v.1-.1zm.3.9h-.1l-.1-.2-.1.1v.2h.1l.2-.1zm-.1 1.8l.1-.1-.3-.1-.1.1.1.2.2-.1zm-.1-1.1h-.1v.1l.1-.1zm0 4.2h.1-.1zm.2-4.2l-.1.2h.1v-.2zm.2.6v-.1l-.1-.1-.1.2v.1h.1l.1-.1zm.1-1.8h-.1.1zm-.2 3.5l.2.1-.1-.1h-.1zm.1-2.5l.1.1-.1-.1zm.1 1.4h-.1v.2l.1.1.1-.1-.1-.2zm.4-.2v-.1h-.1l-.1.1v.1l.2-.1zm.1-.9h-.1v.1l.1-.1zm-.2 1.6v.1l.1.1h.1v-.1l-.2-.1zm.6-1.1h-.1.1zM235.5 111.7v7.1l-.1.7h-3.9l-.1-.2v-.3l.1-.4-.1-.9.1-2.1v-.5l-.1-.4.1-.4v-.3l-.1-.2-.2-.2-.5.1-.1-.1v-.1l-.2.1h-.4l-.4.1-.2-.1-1-.1h-.9l-.1-.1-.2.1h-.7v-.1l-.3.1h-.9l-.2.1-.1.2v1.6l.1.9v2.9l-.1.2H221.1l-.1-.2v-.2l.1-.1-.1-.1v-1l.1-1V105l-.1-.7v-.5l.1-.2h3l1 .1.1.2v1.1l.1.6-.1.2v1.3l.1.4-.1.3v.5l.1.4v.8l.1.2.2.1h.5l.1.1.1.1.1-.1v-.1l.1-.1.9.1h.8l.4-.1.2.1h1.6l1.3-.1v-.7l.1-.3v-.2l-.1-.5v-2.9l-.1-.2v-.5l.1-.7h.7l.3-.1.3.1.4-.1h2.1l.1.1h.1v8zm-14.1 2zm.5-3.6l-.2-.1-.1.1.2.1.1-.1zm-.1.8zm.4-3.9l-.2-.1v.1h.2zm.2 6.8l-.2-.1-.1.1h.3zm-.1-7.6l-.1.1.1-.1zm0 4.2h-.1.1zm.3 1.1l-.1.1v.1h.2l-.1-.2zm.1 1l.1-.1h-.2l-.1.1v.1h.1l.1-.1zm0 1.6v-.1l-.2.1v.1l.2-.1zm0-4.3h-.1v.4l.2-.2-.1-.2zm.1-2.4h-.1v.1h.1v-.1zm0 1.7h-.1.1zm0 4.1zm.1 2l-.1.2v.1h.1v-.3zm.3-6.5l-.2-.1h-.1v.2l.3-.1zm-.1 4.2l.1-.2-.1-.1h-.1l-.1.1v.1l.2.1zm-.2-6v.1l.1.1v-.1l-.1-.1zm0 4.2v.1l.1.1h.1l-.1-.1-.1-.1zm.3-.8h-.3l.1.3h.1v-.1l.1-.2zm0 3.5v-.1l-.1-.1-.1.3h.2v-.1zm-.3-1.8v.1h.1v-.1h-.1zm.2 2.4h-.1v.1l.1.1h.1v-.1l-.1-.1zm.1-4.9l-.2.1h.2v-.1zm-.1 7.4v.1h.1l-.1-.1zm0-9.1l.1.1-.1-.1zm.1 7.6zm.2-6.3zm.1 4.1h-.1l-.1.1.2.1v-.2zm0 .8h-.1l-.1.1v.1h.3l-.1-.2zm0 .9l.1-.1H223.3v.1h.2zm0-6.5v-.1h-.1l-.1.1v.1l.2-.1zm-.1 2.5zm-.1 4.9v.1l.1-.1h-.1zm.3-3.3v-.1h-.2v.2l.2-.1zm0-6h-.1l-.1.1v.2l.1.1.1-.1v-.3zm-.1 5h-.1v.1l.1.1h.1l-.1-.2zm.1-1.5v-.1l-.1-.1-.1.3h.1l.1-.1zm-.1-4.3l-.1.1h.1v-.1zm0 1.6v.1l.1.1-.1-.2zm.4 1.5l.1-.1v-.1h-.2l-.1.1v.1h.2zm-.1.7l-.1-.1v.1l.2.1-.1-.1zm.1 2.6l.1-.1-.1-.1-.2.1v.1h.2zm-.1-1.1l-.1.2.1.1v-.3zm0-3l.3-.1v-.1l-.1-.1h-.1l-.1.3zm.2 2.5V110.2h-.2l.1.1.1.1-.1.1h.1zm0 3.2v-.1h-.1l-.1.1v.1h.1l.1-.1zm-.1-1v.1h.1v-.1h-.1zm.1.2l-.1.1.1-.1zm0 1.6zm.4-3.6v-.1l-.1-.2-.1.2v.1l.1.1.1-.1zm-.1.7l.1-.1-.1-.1h-.1l-.1.1v.2h.1l.1-.1zm0 1l.1-.2h-.2v.1l.1.2v-.1zm.2.6l-.3-.1v.2l.3-.1zm-.3-4.2l.1.1.1.1.1-.1-.1-.1h-.2zm.3 1.1l-.1-.2-.1-.1h-.1V110.1h.3zm-.2 4.1h-.1v.1h.1v-.1zm.3-4h-.1v.1h.1v-.1zm-.1 1h.1l.1-.1.1-.1h-.3v.2zm.2-2.6h-.1l.1.1v-.1zm0 5.1l.1-.1-.1.1zm0-1.8v.2l.1-.1-.1-.1zm.1 2.5h-.1v.1l.1-.1zm.3-4.5v.1l.1.1v-.1l-.1-.1zm.1.7h-.1v.1l.1-.1zm0 1.9l-.1.1h.1v-.1zm-.2.8v.1h.1v-.1h-.1zm.2-1.8h-.1v.3l.1-.1v-.2zm.4.6l.1-.1-.2-.1h-.1v.1h.1l.1.1zm-.1-.9v.1l.1.1-.1-.2zm.6.5l-.2-.2-.1.1v.1H226.1zm-.3.6v.1h.2l-.1-.1h-.1zm.7-.2v-.1l-.2.1v.1h.1l.1-.1zm-.1-1.7h.1-.1zm.4 2.9zm.2-2.5h-.1.1zm-.1 1.7h-.1v.1h.1v-.1zm0-.9l-.1.1.1.1v-.2zm.3-.3h-.1v.1h.1v-.1zm.5 1.2v-.1h-.1l-.1.1v.1l.2-.1zm0-.9l-.2.1h.1l.1-.1zm.4.3h-.1l-.1.1.2-.1zm0-.6h.1-.1zm.4.2v.1l.1.1v-.1l-.1-.1zm.1.9h-.1v.2h.1v-.2zm.7-.9l-.1-.1v.1l.1.2h.1v-.1l-.1-.1zm.1.8h-.1v.1h.1v-.1zm.4-.1l.1-.2h-.2v.1l.1.1zm0 .7l-.1.1.1-.1zm.2-1.2h.1l.1-.1v-.1l-.1-.1v.1l-.1-.1v.3zm.5.3zm.1.2l.1-.1v-.1h-.1l-.2.1v.1h.2zm0 .6l-.1-.1v.2l.1.1.1-.1-.1-.1zm.4-.2l.1-.2h-.2l-.1.1v.1h.2zm0-1.8h-.1v.1h.1v-.1zm0 .9h-.1v.1l.1-.1zm.4-.6h-.1l-.1.1.2-.1zm.1-.8v.1l.1.1.1-.1-.2-.1zm.2-1.2v.1h.1v-.2l-.1.1zm.1 3.3h-.1v.2h.2l-.1-.2zm0-4.1h-.1v.1h.1v-.1zm.1 1.5h-.1v.2l.1.1v-.3zm0 1.6l-.1.1h.2l-.1-.1zm.3-1.8l.1-.1v-.1h-.2l-.1.1v.1h.2zm0 .7h-.1v.2l.2-.1-.1-.1zm-.1 1.1l.1.1-.1-.1.2-.3-.1-.1-.1.1V111.4zm0 3h-.1v.1l.1-.1zm.1-1.7l-.1.1.1-.1zm0 1.8v.1-.1zm.3-2.7h.3v-.1l-.1-.1-.1-.1-.2.2h.1v.1zm.1 2.5l.1-.2-.3-.1-.1.1h.1l.2.2zm.1.8l.1-.2-.1-.1h-.2l-.1.2.2.1h.1zm-.2-5.3v.1-.1zm0 .8v.2l.1.1v-.3h-.1zm.2 1.8l-.1-.1-.1.1v.1h.2v-.1zm-.1 5.1h-.1.1zm0-8.6v.1l.1.1v-.1l-.1-.1zm.2 1h-.1v.3h.1v-.3zm.2-2.1l-.2.1.3.1-.1-.2zm0 4.2h-.1v.1l.1.1.1-.1-.1-.1zm.1 2.4h-.1l-.1.1v.1l.1.1h.1V114.4zm-.1-3.3h-.1v.1l.1-.1zm0 .1l-.1.1h.1v-.1zm-.1 1.6l-.1.1v.1h.1v-.3.1zm.2 1l.1-.1v-.1l-.1-.1h-.1l.1.3zm0 1.5l-.2.1v.1l.2-.1v-.1zm0-8.3h-.2v.2h.1l.1-.2zm-.2 2.5v.1l.1.1-.1-.2zm.1 6.6h-.1v.1l.1-.1zm0-7.5l.1.1h.1v-.1h-.2zm.1 1.9v-.1.1zm.5 2.8l-.1-.1h-.2l-.1.1h.4zm-.2 2.4h-.1v.1h.1v-.1zm-.1-7.5v.1l.1.1h.1v-.3h-.2zm.2 1.9l.1-.1v-.1l-.1-.1-.1.1v.1h.1zm0 4v-.1h-.2l.1.1h.1zm-.2-8.4v.1h.1v-.2l-.1.1zm.3 5.8h-.2v.2l.1.1.1-.1v-.2zm-.1-4.9v-.1h-.1l-.1.1h.2zm0 9.3l-.1.1.1-.1zm0-.9zm.3-1.1h.1l.1-.1-.2-.1h-.1v.1l.1.1zm.1-2h-.1l-.1.1v.1l.1.1h.1v-.3zm.1 2.7l-.3-.2v.1l.1.1h.2zm-.3-6.7v.1h.2l-.1-.1h-.1zm.2 2.5h.1v-.1l-.2-.1h-.1l.1.1.1.1zm-.2.9v.1h.1v-.1h-.1zm.3 1.6v-.1l-.2-.1-.1.1.3.1zm-.2-4.3h.1-.1zm.1 7.6l-.1.1.1.1v-.2zm.5-4.5v-.1h-.2l.1.1h.1zm-.2 4.1v-.1l-.1.1v.1l.1-.1zm0-6.1v.2l.1.1.1-.2-.2-.1zm.2-2.2h-.1l-.1.1h.1l.1-.1zm-.1 5zM257.7 113l-.4 1.5-.2.4-.2.3-.1.3-1.2 1.6-.2.2-.4.3-.1.2-.3.3-.6.3-.3.3-.8.5-1 .3-1.4.3h-.3l-.2.2h-1l-1.7-.2-.4-.2-.5-.1-1.1-.5-.2-.2h-.2l-1.4-1.3-1-1.1v-.2l-.2-.2-.4-.8-.4-.9-.4-1.4-.1-.2V111l.1-1 .1-.5.2-.4.1-.2v-.3l.3-.4.4-.9.4-.6.3-.3.1-.2 1.1-1 .2-.2.4-.2.6-.4.7-.3.2-.1h.3l.2-.1h.2l.1-.1.6-.2.1-.1 2-.1 1 .1 1 .2 1.3.4.2.2.6.3.4.3.4.2.3.4.4.3.7.7.6.8.5.9.4.9.2.7v.5l.1.4-.1.4.1.3v.7l.1.2-.2.5v.2zm-15.1-2.7v-.1h-.1l-.1.2.3.1-.1-.2zm-.1 2.5h-.1v.2l.2.1-.1-.3zm0-1.7v.2l.1-.1-.1-.1zm.5.6v-.2l-.2.1-.1.1v.1l.3-.1zm0-2.5l-.2-.1v.2h.1l.1-.1zm.3 1.9l-.1.1v.1h.1v-.2zm0 .8h-.1v.1l.1-.1zm.1 2.5h-.1l-.1.1.2.1v-.2zm0-5zm.2-1.1zm0 .8v.1l.1.1-.1-.2zm.2 4.9l-.1-.1-.1.1v.1l.1.1.1-.2zm0-6.7h-.2V107.6l.2-.1v-.2zm0 2.5l-.1-.1v.2l.1.1h.1v-.1l-.1-.1zm-.2 1.7v.2l.1-.1-.1-.1zm.2 1.7l-.1-.1-.1.1v.1l.2-.1zm0 2.5h-.1v.2l.1.1.1.1v-.2l-.1-.2zm0-6.7l-.1.1h.2l-.1-.1zm0-.7h.2l-.2-.1v.1zm.3.3l-.1.1h.1v-.1zm0 5.1v.1-.1zm.1-6.7l-.1.2.1-.1v-.1zm0 .8v.1l.1.1v-.1l-.1-.1zm.1 5.1zm.4-4.6l-.1-.1h-.2l-.1.1h.4zm-.2 4.1h-.1v.1h.1v-.1zm.1-5v-.1h-.1V107.6l.1-.1v-.1zm-.1 1.7zm.1.8l-.1-.1h-.1v.1h.2zm0-3.4v.1h.2v-.1h-.2zm.1 9.2v.1h.1l-.1-.1zm0-6.6zm.2-2h.1-.1l-.1-.1v.1h.1zm.1 1.5h-.1l-.1.1h.1l.1-.1zm-.1 5.1v.1l.1.1-.1-.2zm.2 3.2l-.1.1h.1v-.1zm4.3-9.5l-.2.1-.1.1-.2-.1h-.1l-.5.1h-.3l-.1.1-.4.1-.6.3-.1.3-.1.1h-.2l-.8.8.1.1.1.1-.3.3-.2.4-.1.5v.4l-.2.4v.2l.1.6v.3l.2.5.2.2v.2l.7 1 .1.3.2.1.1.1.2.1h.1l.1.3.9.4 1 .2h.5l.7-.1.2-.1.3.1.4-.2.5-.2.8-.6.5-.5.1-.4.2-.4v-.4l.2-.2.1-.5v-1.6l-.1-.2-.1-.4-.2-.4-.6-.8-.9-.8h-.2v-.1l-.2-.1h-.3l-.1-.2-.2-.1-.5-.1-.1-.1h-.2l-.4-.2zm-4.3 7.9zm.1.4v.1h.1v-.2h-.1zm.1-8.2l.1-.1v-.1l-.1-.1-.1.1.1.2zm.1-.8h-.1.1zm.2 10.6h-.1l-.1.1.2.1v-.2zm.1-11.1v.1h.1v-.1h-.1zm0 10.8v.1l.1.1h.1v-.1l-.2-.1zm.3.8h-.1.1zm.2-11.9l.1-.1-.1-.1h-.1l.1.2zm0 .6v.1h.1l-.1-.1zm.1 9.3v-.1l-.1-.1-.1.1v.1h.2zm0 .7h-.1l-.1.1v.2h.1l.1-.3zm-.2-9.2v.2h.1v-.2h-.1zm.7-1.9l-.3-.1v.2l.3-.1zm-.2 1.7h-.1v.1l.1-.1zm0 9.9v.1l.1.1.1-.2h-.2zm.3-11.2v.1h.1v-.1h-.1zm0 11.6l.1.1.2-.2-.3.1zm.2-10.8h-.1v.1h.1v-.1zm-.1 10l.1.1h.1v-.1h-.2zm.6-10.3v-.1l-.1-.1h-.1l.1.3.1-.1zm.3-.4l.1-.1v-.1h-.2l-.1.1v.2l.2-.1zm0 1.5h-.1.1zm.1-.9l-.1-.1v.2l.1-.1zm-.1 11l.1.1-.1-.1zm.3-11.4v.1h.1v-.1h-.1zm.3 11l-.2-.2h-.1v.2H248.5zm-.1-11.8h-.1v.1h.2l-.1-.1zm.5 12.2h-.1l-.1.1.2-.1zm-.1.6l-.1.1v.1l.1.1v-.3zm.3-12.9v-.1.1zm.2.3v-.1l-.2.1-.1.1h.1l.2-.1zm-.1-1h-.1l.1.1v-.1zm.3 1.3l.1-.2H249.3v.1l.2.1zm.2 11.6l-.1.2h.1v-.2zm.3-11.3h-.1l-.1.1h.1l.1-.1zm-.1 12.5l.1.1-.1-.1zm.1-1.7h-.1v.2l.1-.1v-.1zm0-12.4l.1.1-.1-.1zm.4.6h-.1v.1l.1-.1zm.1.6h-.1l-.1.1.2-.1zm.2-.3h.2v-.1h-.3l.1.1zm.6.2h-.1v.1l.1.1h.1l-.1-.2zm-.1 1.1v.1l.1.1-.1-.2zm.1 11.7h-.1.1zm.1-1.8h-.1v.1l.1-.1zm.1-.3l-.1.1h.1v-.1zm-.1 1.6v.1l.2.1v-.1l-.2-.1zm.3-11.8h-.1v.2h.1v-.2zm.1-.8zm.1.3v.1h.1v-.1h-.1zm.2.3zm-.1.8v.1h.1v-.1h-.1zm.5.4v-.1h-.2l.1.1h.1zm0 9.1l-.1.1h.2l-.1-.1zm.4-8.9l-.1.2.1-.1v-.1zm0-.5l.1-.1h-.2l.1.1zm.1-.9l-.1.1h.1v-.1zm.3 11.2v-.1h-.2v.1h.2zm-.1-.8h.1v-.3h-.2v.1l.1.2zm0-1v.1l.2.1.1-.2h-.3zm.1-8.3l.1-.1-.2-.1.1.2zm.1 10.8v.2-.2zm.1-10l-.1.1h.1v-.1zm.3 8.8v-.1l-.2.1-.1.1h.1l.2-.1zm-.1-.7l.1-.1v-.1l-.1-.1-.1.2.1.1zm0-1.9l-.1.1.1-.1zm.1-2.5h-.1v.1h.1v-.1zm0-4.8zm.4 1.1l-.2-.1v.1l.1.1h.1l.1-.2-.1.1zm-.1 1.8zm.2.7l-.1-.1h-.1l-.1.1.2.2v-.2zm-.3 2.6v.1h.1l-.1-.1zm.2-4.3h-.1v.1h.2l-.1-.1zm0 6h.1v-.1l-.1-.1h-.1l.1.2zm0-1h.1-.1zm.4-2.8v-.1h-.1v.3l.1-.2zm-.1 1.6v.1-.1zm.1 3.5h-.1l.1.1v-.1zm0 .7v.1l.1.1.2-.1-.3-.1zm.4-4.7h-.2l-.1.1v.1h.1l.2-.2zm-.1 1h-.1.1zm.1 2.7l.1-.1v-.1l-.2-.1v.1h-.2v.1l.3.1zm-.2-7.9v.1l.1.1-.1-.2zm.1 6l-.2.1v.1h.1l.1-.2zm-.1.8v.1l.1.1h.1v-.1l-.2-.1zm.2-5.7v-.1h-.1l-.1.1h.2zm0 .6l-.1.1h.2l-.1-.1zm.1 1.1h-.1.1zm0 3.9zm0-3.2v.1h.1l-.1-.1zm.4-1.3l-.1-.1h-.1l-.1.1v.1l.1.1.2-.2zm0 5h-.2v.1h.2v-.1zm0-2.4v-.1h-.1l-.1.1v.1l.2-.1zm0-1.9h-.1.1zm-.1 3.4h-.1v.1l.1-.1zm.3-5.4l-.1.1h.1v-.1zm.1 2.8v-.2l.1-.1-.3.1.2.2zm0 .5v.1h.1v-.1h-.1zm.1-1.5l-.1.1h.1v-.1zM265.4 119.7l-.2-.1H263.3l-.2-.1-.1-2v-13.4l.1-.3h3.2l.3-.1.2.1h1l.8-.1.3-.1.2.1h1.3l.1-.1.1.1h.4l.4.1h.5l.5.1 1.9.8.1.2.7.7.7 1 .3.7v.2l.2.3.1.2.1 1v.7l-.1 1-.2 1-.2.8-.1.2-.2.4-.3.4-.7.8-.8.8h-.1l-.2.1-.2.2h-.3l-.6.3-.5.1-.4.1h-.6l-.2.1h-.2l-.2-.1-.9.1h-1l-1 .1-.1.2-.1.5.1 1v1l-.1.8-1 .1h-.9zm-1.5-13.2h-.2l-.1.1.2.1.1-.2zm-.1 3.4h-.1v.1l.1-.1zm.2 6.7l-.1.1h.1v-.1zm-.2-3.3l.1.1-.1-.1zm.4-6.3h-.1.1zm.1 7.7v-.1h-.1l-.1.1.1.1h.1zm-.1 2.3v.1l.1.1-.1-.2zm0-7.4l-.1-.1.1.1zm0 1.5v.1h.1v-.1h-.1zm.2 4.4l.1-.2h-.3v.1l.2.1zm0-1.7h-.1.1zm.4-2.3h-.2v.1l.2-.1zm0 1.8v-.1H264.5v.1H264.8zm-.1-4v-.2l-.1-.1h-.1v.2l.2.1zm-.1 4.7zm0 1.8v.1l.1.1h.1v-.1l-.2-.1zm.2-3.2v-.2h-.1v.1l.1.1zm0-5.2h-.1l.1.1v-.1zm0 2.6h-.1v.1l.1-.1zm0 .7l-.1.2h.1v-.2zm.4-.5H264.9v.1h.2l.1-.1zm-.1 6.2v-.2l-.1-.1h-.1v.2h.2zm-.1-8.5v.1h.1l-.1-.2v.1zm.2-2.5l-.1-.1-.1.1v.1l.2-.1zm0 3.3l-.1.1h.1v-.1zm.1 3.4v-.1h-.1l-.1.2h.1l.1-.1zm-.2.7l-.1.1.1.1v-.2zm-.1.7v.1l.1.1h.1v-.3h-.2zm.3 1.2v-.1h-.1l-.1.2h.1l.1-.1zm0 .6l-.2-.1v.1l-.1.1v.1h.1l.2-.2zm-.1 2.6zm.1-6.7h-.1v.2h.1v-.2zm.2-4.7l-.2.1h.1l.1-.1zm.1 3.3h-.2l-.1.1v.1l.4-.1-.1-.1zm-.1 1.1v-.3h-.1v.1h-.1v.1l.2.1zm-.2 4.8l-.1.1h.1v-.1zm0 .8l-.1.1h.1v-.1zm.2-7.4v.1l.1.1v-.2H265.3v.2h.1l.1-.2zm0 5.9h.1v-.2h-.3l-.1.1h.1l.2.1zm-.1-7.4h.2v-.1l-.1-.1h-.1v.2zm.2-2.5h-.1l-.1.1.2-.1zm-.1 1.6zm.1 1.6h-.1l-.1.1.2-.1zm.1 5.9v-.1l-.1-.1-.1.2h.2zm.2-5.4l.1-.2h-.2v.1l.1.1zm0 .7h-.2v.1l.2-.1zm.1 1.9l.1-.1v-.1h-.3l.1.2h.1zm-.1 3.3v-.1l-.1-.1h.1v-.1h-.2l.1.2.1.1zm0 .5l-.2.1.2.1v-.2zm0-9.7h-.1v.1h.1v-.1zm.1 8.2l-.1-.1h-.1l.1.1h.1zm-.1-1.8l.1.2h.1l-.1-.2h-.1zm.1-4.1v.1l.1.1-.1-.2zm.1 4.9l-.1.1h.1v-.1zm.3-5.4h-.1v.2l.1.1V107.3zm.1 1.8l-.1-.2-.1.1.1.2v.1l.2-.1-.1-.1zm-.2.7v.1-.1zm.2 1.1v-.1l-.2-.1V111l.2-.1zm-.1.8h-.1l-.1.1.2-.1zm0 4.3l.1-.2h-.2v.1l.1.1zm-.1-7.7v-.1V108.5h.2l-.2-.2zm.2 5l-.1-.1-.1.2v.1h.1l.1-.2zm-.1-1l-.1.2h.1v-.2zm.1 1.8h-.1l-.1.1.2-.1zm0 .9v-.1h-.1v.1h.1zm-.1-8.5v.1l.1.1-.1-.2zm.3 1.3l-.1.1h.1v-.1zm.2 6.9v-.1l-.1-.1h-.1v.1l-.1.1.2.1.1-.1zm-.1-8.3h.1l.1-.2h-.1v.1l-.2-.1v.2h.1zm0 6.3h-.2v.1l.1.1h.1l.1-.1-.1-.1zm.1.8h-.2v.1h.1l.1-.1zm-.1 3.6h-.1v.1h.1v-.1zm0-3.3h-.1.1zm0 1.6l-.1.1h.1v-.1zm.2-3l-.1.1h.1v-.1zm.2 3.5l.1-.1v-.1l-.1-.1h-.1l-.1.1v.1l.2.1zm-.2-1.7h.1v-.1l-.1.1zm0 .6v.1l.1.1h.1l-.1-.2h-.1zm.2-9.9l-.1.1h.1v-.1zm0 1.6h-.1v.1h.1v-.1zm.1 6.8v-.1l-.2.2h.2v-.1zm4.5-5l-.3-.3-.7-.5h-.2l-.3-.1h-.3l-.2-.1-.7.1-.3-.1h-.2l-.8.1h-.2l-.2.4.1.1v.1l-.1.1v.5l-.1.7v.9l.1.3-.1.1v.7l-.1.2h.1l.2.2.3.4h2.4l.5-.1 1-.4.2-.2.3-.6.2-.2-.1-.1.1-.3v-1l.1-.2-.2-.1v-.3l-.5-.3zm-4.6 3.6l.1.1v-.2l-.1.1zm.5 1.8l-.2-.1h-.1v.2h.3v-.1zm-.1.7h-.1.1l.1.2-.1-.2zm-.1.8v.1l.1.1-.1-.2zm.2-8l.1-.2-.1-.1h-.1l.1.1v.2zm-.1-1.2l.1.2-.1-.2zm.2 6.9h-.1l-.1.1h.2v-.1zm-.1-7.5h-.1v.1h.1v-.1zm.3 7.8h-.1l-.1.1.2-.1zm-.1 1h.1V113.9h-.2l.1.3zm.1-8.5l-.1.1.1.1.2-.2h-.2zm.1 6.7h-.1l-.1.1.2-.1zm.5-7.1l-.2-.1-.1.1v.1h.3v-.1zm-.3 8.4v.1h.2l-.1-.1h-.1zm.4-8.9v.1l.1.1-.1-.2zm0 8.4v.2h.1v-.3h-.1zm.3-6.5v-.1h-.1l-.1.2.2-.1zm-.1-1h-.1v.2l.1.1.1-.2-.1-.1zm0 8.3h-.1v.1h.1v-.1zm.4-8.7h-.2v.2h.1l.1-.2zm-.1 9.1l.1.1-.1-.1zm.1-.9h-.1v.1h.1v-.1zm.5-7.8h-.1l-.1.1.2-.1zm0 7.6h-.1l-.1.1.2-.1zm-.1-8.5l.1.1-.1-.1zm.3 8.1l.1.1h.1v-.1h-.2zm0 .7v.1l.1.1-.1-.2zm.2.8h-.1v.1l.1.1h.1v-.1l-.1-.1zm-.1-9.2v.1l.1.1v-.1l-.1-.1zm.3 8v.1l.1.1.1-.1-.2-.1zm.1.8v.2h.1l-.1-.2zm0-8.3v.1h.1l-.1-.1zm.5-1.1l-.1.1h.1v-.1zm-.1 8.2v-.1.1zm.2.8h-.1l.1.2h.1l-.1-.2zm-.2 1v.1-.1zm.5-7.8l.1-.1v-.1l-.1-.1-.1.2h-.1l.1.1h.1zm.1 5.6h-.1v.1l.1-.1zm0-4.9l-.1.1h.1v-.1zm.4-.4v-.1h-.2l-.1.1H271.9zm0-.9l-.1.1.1-.1zm-.1 7.6h.1v-.1h-.1v.1zm.4-6.4l-.2.1.1.1.1-.1v-.1zm-.1-1.5l.1.1-.1-.1zm.1.7l-.1.2h.1v-.2zm.5 5.4l-.2-.1v.2h.3l-.1-.1zm-.2-5.9l.1.1.1.1-.1-.2h-.1zm.2.9h-.1l-.1.1h.1l.1-.1zm-.1 4.4zm.1-3.6l-.2.1v.1h.1l.1-.2zm0 4.9h-.1v.1h.1v-.1zm0-2.4zm.3-4.6h-.1v.1h.1v-.1zm0 2.6h-.1v.1h.1v-.1zm-.1 4.2l.2.1.1-.1v-.1h-.4l.1.1zm.1-5.9v.1h.1l-.1-.1zm-.1 5v-.1.1zm.2 2.4l-.1.2.1.1V114zm-.1-6.7v.1h.1v-.1h-.1zm.1 1.7v.2l.1.1.1-.2-.2-.1zm.4.4h-.1v.2h.2l-.1-.2zm-.1 2.6l-.1-.1v.2l.1.1.1-.1-.1-.1zm0 .7l-.1.1h.1v-.1zm.1-2.4v-.1h-.1l-.1.2v.1h.1l-.1-.2h.2zm0-1.7h-.1v.1l.1.1.1.1v-.1l-.1-.2zm.2-1.3l.1.2.1.1.1-.3h-.3zm.1 3.4h-.1v.1h.1v-.1zm0-1.5h-.1v.1l.1-.1zm.1.6h-.1v.1l.1.1h.1v-.1l-.1-.1zm.1 2.7h-.1l-.1.1.2-.1zm-.1-1l-.1-.1v.2l.1-.1zm0-3.2v.1h.1v-.1h-.1zm.5 2.1l-.2-.1v.2l.2-.1zm0 .8l-.2-.1v.1h.2zm0-1.8l-.1-.1v.2l.1.1.1-.1-.1-.1zm.4.6v-.1l-.1-.1-.2.1v.1l.3.1v-.1zm-.1 1.7zm0-.9l-.1.1.1-.1zm.1-1.8l-.1.1h.1v-.1zm.4 1.5v-.1h-.2l.1.1h.1z"/></g></svg>