<?xml version="1.0" encoding="utf-8"?>
<!-- Generator: Adobe Illustrator 18.1.1, SVG Export Plug-In . SVG Version: 6.00 Build 0)  -->
<svg version="1.1" xmlns="http://www.w3.org/2000/svg" xmlns:xlink="http://www.w3.org/1999/xlink" x="0px" y="0px"
	 viewBox="0 0 277.1 128.8" style="enable-background:new 0 0 277.1 128.8;" xml:space="preserve">
<style type="text/css">
	.st0{fill:#D34127;}
	.st1{fill:#2BABE2;}
	.st2{fill:#FFFFFF;}
	.st3{fill:#D34027;}
</style>
<g id="Layer_1">
	<g>
		<g>
			<polygon class="st0" points="52.3,107.9 53.1,108 53.5,107.9 52.3,107.8 			"/>
			<polyline class="st0" points="94.6,108.6 94.3,108.3 94.1,108.2 93.7,108.1 92.8,107.9 90.9,107.9 90.3,107.8 90.2,107.7 
				90.1,107.8 89.7,108 89.6,108.1 89.6,108.2 89.6,108.3 89.6,108.5 89.5,109 89.6,110.8 89.6,111.8 89.5,112.3 89.6,114 
				89.4,114.1 89.6,114.2 89.6,114.6 89.8,115.4 89.9,115.4 90.1,115.3 90.3,115.4 91.3,115.4 92.2,115.4 93.1,115.3 93.6,115.2 
				94.5,114.8 94.8,114.5 95.1,114.1 95.2,113.9 95.4,113.9 95.5,113.8 95.4,113.7 95.5,113.5 95.6,113.2 95.7,112.7 95.8,111.8 
				95.8,110.7 95.5,109.8 95.3,109.3 			"/>
			<path class="st0" d="M107.4,111.2l0.6-7.6l-0.6-2.1l0.2-3.5l-0.5-1.8l-4.8-0.6H86.5L82.8,95l-1.6,0.6L77.7,95l-3.4,0.8h-7.9
				l-1.6-0.5l-2.1,0.3L62.1,95l-1.6,1l-2.9-0.5l-4,0.5l-2.4-0.6l-0.5-0.6l0.2-1.1l1.6-0.6l0.3-1.1l3.9-5.8l-0.3-1l-1.1-1.4l1.1,0.2
				l0.6,0.6v1.3l0.8-0.5l2.7-2.9l2.4-3.2l3.1-2.4v-1.1l0.6-1.3l3.2-2.1l0.3-1l2.1-3.2l2.4-2.9l3.1-2.2v-1.3l0.6-1.4l1.4-1.3l4.8-5.9
				l2.7-2.6l0.3-1l2.2-3.2l7.6-8.7l4.3-6.1l2.6-2.4l2.2-3.1l0.6-1.8l0.2-1.8l-0.3-1.8l0.6-4l-0.3-1.8V6l-0.5-3.2l-0.6-1.1L96.1,1.3
				L49.1,1.7L33.3,1l-3.7,0.2H13.4L8.6,1.7L7.8,1.3l-4,0.3l-1,1.4L2.6,8.9L2,11l0.6,11.4v8l0.5,1.8l1.8,0.6l3.7,0.3l7.6-0.3l0.3,0.6
				l2.1,0.2l2.7-0.5l5.6,0.3l1.4-0.6l19,0.3l0.8-0.5l1-1.4l0.6-0.5l0.2,0.8L49.4,33l0.6,0.8l1.3-0.8l1.1,0.2l1.8,4.8l-2.1,3.2
				l-1.3,1.4l-1.8,0.8v1.3l-1,1.8l-2.9,2.2l0.6,1.3l-2.2,1l-1.9,2.2l-1.9,3.7l-2.1,1.1l-0.3,0.8L29.5,69l-5.3,5.6l-3.4,5.1l-5.6,5.6
				l-2.1,3.2l-4.8,5.6l-2.1,3.2l-2.1,1L1,103.2l-0.5,8.2v7.7l0.8,7.2l0.6,0.5l2.9,0.6l6.4,0.2l1.4,0.5l1.3-1l9,0.3l2.1-0.3l1.4,0.6
				l1.8-0.5l5.8,0.5l8.7-0.3l3.7,0.2l1.4,0.5l2.7-0.6l3.9-0.3l12,0.6l15.1-0.6l3.5,0.6l1.8-0.6h2.1l5.3,0.6l3.9-0.6h1.9l1.6,0.6
				l5.3-1l0.5-1l0.3-5.1l-0.5-3.7l0.6-1.3L107.4,111.2z M91.5,21.8l0.6,0.5v1.3L91.5,23V21.8z M91.5,28l0.6,0.3l-0.3,2.1l-1-0.5
				L91.5,28z M89.1,13.1h0.6v0.8h-0.6V13.1z M85.7,16.1l0.3,0.8l-0.8-0.3l-0.3-0.8L85.7,16.1z M85.2,21.4l1.1,0.3l-0.6,0.5l-1.1-0.2
				L85.2,21.4z M72.8,43.3H72l-0.3-0.8l0.6-0.2l0.8,0.2L72.8,43.3z M76.2,19.7l-0.3,0.6l-0.8-0.5l-0.2-1.1h1.3V19.7z M79.1,49.1
				l-0.8-0.3l0.3-0.8l0.8,0.5L79.1,49.1z M78.3,30.6l-0.8-0.8l0.2-0.8l0.8-0.3l0.6,0.3l0.3,1.8L78.3,30.6z M82.2,40.4l-1-0.3l-0.2-1
				h1.4L82.2,40.4z M82,12.6l0.8-0.2l-0.3,1.4l-0.6-0.5L82,12.6z M82.2,17.9l0.6,0.5v1.9L82,19.8l-0.2-1L82.2,17.9z M81,25.3
				l1.1,0.2l0.5,0.5l0.2,1l-0.6,0.3H81l-0.3-1L81,25.3z M81.7,31.9l1.1,0.3l-0.3,1l-1,0.3l-0.6-0.3l-0.2-1L81.7,31.9z M78.3,15.5
				l1,0.5l0.5,1l-0.3,1l-1-0.3l-0.5-1L78.3,15.5z M77.8,22.6l1.6-0.5l0.3,1.4l-0.6,0.2l-1.8-0.5L77.8,22.6z M76.2,13.1l-0.3,0.6
				l-1,0.2l-0.6-0.5l-0.2-1L76.2,13.1z M75.2,24.2l0.6,0.5l0.3,0.8l-0.3,1.8l-1.8-0.6L75.2,24.2z M74.8,32.2h0.8v1.6l-1-0.3l-0.5-1
				L74.8,32.2z M73.5,29.9l-0.8,0.3l-0.2-0.6l1-0.3V29.9z M71.7,21.4l1.3,1.1l0.2,0.8l-0.3,0.8l-1.3-0.3l-0.5-0.6L71.7,21.4z
				 M71.4,29l0.3,1.8l-0.8-0.2l-0.2-1.9L71.4,29z M71.2,34.9l0.8-0.3l0.6,0.3l0.2,1l-1,0.2l-1.1-0.5L71.2,34.9z M71.2,48.3l1-0.3
				l0.3,1.4l-1,0.2l-0.8-0.5L71.2,48.3z M17.1,13.7l-0.6-0.6h1.1L17.1,13.7z M26.6,16.6v-1.1l0.6,0.6L26.6,16.6z M29.6,13.1h0.6v0.8
				h-0.6V13.1z M30.7,26.3h-0.8v-0.6h0.8V26.3z M49.1,12.4l-0.5,0.3l-0.3-1L49.1,12.4z M46.7,9.7l-0.3,0.8h-0.8l-0.3-0.8H46.7z
				 M35.6,19.7l0.8,0.3l0.2,0.8l-0.8-0.3L35.6,19.7z M36.2,27.2L36,26.6l0.8-0.6l0.2,0.6L36.2,27.2z M39.4,23.5l-0.2-1.8l0.6,0.3
				l0.2,1.8L39.4,23.5z M42,19.5l-0.2-0.8l0.3-0.8l0.6,0.6v1.3l0.3,1L42,19.5z M45.8,29.3h-0.6v-0.6h0.6V29.3z M47,23.5L46.3,24
				l-1.1,0.2l1.1-1.4l1-0.3L47,23.5z M46.7,16.6l-0.5-1.1h1.1L46.7,16.6z M49.4,27.1l-1.1,0.2l-0.3-0.8l0.3-0.8l1.1,0.2l0.6,0.5
				L49.4,27.1z M50,20.3l-0.8-0.6l0.2-1l1,0.5L50,20.3z M51.8,8.3l1,0.6h-1V8.3z M53.2,23.7l-1.1,0.5l-0.3-1.4l1.1-0.2l1,0.2
				L53.2,23.7z M53.4,16.6l-1.9-0.3l0.3-0.6l2.1,0.2L53.4,16.6z M55.8,71.7l-0.3-1.3l0.8,0.6l0.3,1.1L55.8,71.7z M56.9,65.3h-0.6
				v-0.6h0.6V65.3z M59.5,68.3l-0.6-0.5l-0.2-0.8l0.8,0.2l0.5,0.5L59.5,68.3z M58.4,47.6l1,0.3l0.3,0.8l-1-0.3L58.4,47.6z M65.9,56
				l-1-0.3l-0.2-1.1l1.1,0.5V56z M66.6,49.4l-1.3-1l0.6-0.6l1,0.2L66.6,49.4z M68.3,12.1l0.6,1l-1-0.3L68.3,12.1z M67.9,18.9l0.5-1
				l1,0.5v1l-0.6,0.5l-1,0.2L67.9,18.9z M69.8,25.6l-1,0.3l-0.5-0.6L69.8,25.6z M68,32.2h1.8l-0.5,1.6l-1.6-1L68,32.2z M69.8,45.2
				l-0.2,1L69,46.7l-0.8-0.3L68,45.5L69.8,45.2z M67.9,38.8l1.4-0.8L69,38.8l-1.3,1L67.9,38.8z M69.8,59l-0.6,0.5H68l-0.3-0.8
				L69.8,59z M66.3,16.3l-0.6,0.2l-0.8-0.3l-0.3-1l0.8-0.3l0.6,0.5L66.3,16.3z M66.9,22.1l-0.3,1.4l-0.8-0.2l-0.2-1.6L66.9,22.1z
				 M64.2,9.1l0.3-0.6l0.8-0.2L65,9.4L64.2,10V9.1z M64.2,29l1,0.5h0.6l0.8-0.5l0.3,0.8l-0.3,0.6l-0.8,0.3l-1.6-0.3V29z M65.9,36.2
				h-0.6l0.3-1L65.9,36.2z M65,41h1.1l0.8,0.5v1.6l-1.6,0.8l0.6-1.4l-0.6-0.3l-0.8,0.2l-0.3-0.8L65,41z M63.5,19.3l-0.3,0.8
				l-0.6,0.5l-1.1,0.2L61.3,19l0.5-0.6l1.1,0.2L63.5,19.3z M61.4,4.9l1,0.2l0.3,0.8l-0.3,0.6l-0.8-0.2l-0.5-0.6L61.4,4.9z
				 M61.8,24.5l0.8,0.3l0.6,1.8l-1.8,0.6l-0.3-0.8L61.8,24.5z M61.4,32.2l0.8,0.6l-0.2,1l-1-0.5L61.4,32.2z M61.3,38.8l0.5-0.8
				l1,0.2l0.8,1.3l-1.8,1l-0.6-0.6L61.3,38.8z M61.9,44.6h1.3l-0.8,1.8l-1,0.3l-0.3-1.8L61.9,44.6z M58.2,9.5H59l0.3,0.8h-1.4
				L58.2,9.5z M60,15.8l0.5,0.8l-2.6,0.3l-0.3-1.8L60,15.8z M59.5,29.9l0.5,0.8l-2.1-0.6l0.3-1.1l0.8-0.6l1,0.3l-1.3,1L59.5,29.9z
				 M58.7,22.2l0.6,0.3l0.3,1l-1.8-0.3l-0.3-0.8L58.7,22.2z M57.6,35.6l1-0.3l1.1,0.3l0.8,0.6L60.1,37l-0.8,0.3l-1-0.2l-0.8-0.6
				V35.6z M56,38l0.8,0.3l0.2,1.1l-0.3,1l-0.8-0.5l-0.3-1L56,38z M55.6,31.6l0.3-0.8l0.6,0.6l-0.3,0.8L55.6,31.6z M56,11.8h0.6v0.6
				H56V11.8z M55.8,12.8l-0.5,1l-0.5-0.3L55.8,12.8z M54.8,19l0.3-0.6l0.8,0.3l-0.3,1L54.8,20V19z M55.5,25l0.8,0.2l0.5,0.8v0.8
				l-1.3,0.2l0.3-0.8l-1-0.5L55.5,25z M55.2,58.9l1.8-0.2l-0.3,0.8l-1,0.3l-0.8-0.5L55.2,58.9z M52.9,75.1l-0.5-0.3L52.1,74h1
				l0.8,1.3L52.9,75.1z M53.4,67.9l-0.6-0.5h1.1L53.4,67.9z M52.1,62.2l0.3-0.6v-0.8l0.5,0.8L52.1,62.2z M53.6,50l-0.5-1l0.8,0.6
				L53.6,50z M52.8,41.8l1,0.6l-0.2,1l-1-0.2l-0.2-0.8L52.8,41.8z M52.4,47.8l0.6,1l-1.3,0.3l-0.3-1.1L52.4,47.8z M51.8,55l1-0.2
				l-0.5,1l-0.8-0.2L51.8,55z M20.3,94.4L19.8,95l-0.6-0.2l-0.2-1L20.3,94.4z M19,100.5l0.8,0.5l-0.2,1l-0.6-0.5V100.5z M16.3,112.2
				l-0.6-0.5l-0.2-0.8l1.1,0.5l0.6,0.8H16.3z M17.6,105.6l-0.8-0.2l-1-1.4l0.3-0.8h1.1l0.3,0.6V105.6z M19,106.7h0.6v0.6H19V106.7z
				 M20.3,114.6l-0.6-0.6l1-0.3L20.3,114.6z M21.9,98.1l0.8-0.3h1.1l-0.3,0.8l-1.8,0.6L21.9,98.1z M22.6,111.7l-0.8,0.2l-0.3-0.8
				l0.3-1l1.3,1.1L22.6,111.7z M24,105.6l-0.8,0.3l-0.2-0.6l1.1-0.3L24,105.6z M32.2,81.7l0.2-1.1l0.8,0.5V83l-1.4-0.5L32.2,81.7z
				 M31.7,87.8h0.6v0.6h-0.6V87.8z M31.5,94.2l0.8-0.3V95L32,95.7l-0.6-0.5L31.5,94.2z M29.8,91.5l-0.5-0.6h1L29.8,91.5z M29.9,92.3
				v0.6h-0.6v-0.6H29.9z M28.3,83.9l1.1,0.8l0.2,1l-1.1,0.2L28,85.1L28.3,83.9z M26.2,94.7l0.3,0.8l-1.1,0.2L26.2,94.7z M26.9,101.9
				h-0.6l0.3-1.1L26.9,101.9z M25.4,108l1.1,0.2l-0.5,0.5l-1,0.2L25.4,108z M26.6,115.4l-0.8-0.3l-0.5-0.5l-0.2-1l2.1,0.3
				L26.6,115.4z M30.6,111.1l-1.3,1l-0.6-0.2v-1.3l2.1-0.5L30.6,111.1z M29.6,106.1l-1.3-2.9l2.4,0.5L29.6,106.1z M30.7,98.7
				l-2.9-0.6v-1l1.8-0.5l1.1,1.1V98.7z M33.2,115.4l-0.6-0.8l0.3-1l0.6,0.6L33.2,115.4z M33.2,108.8l-1.8-1.1l1.4-1l0.5,0.5l0.2,0.8
				L33.2,108.8z M32.7,102.6h-1l-0.3-1l0.3-1.1l1.8,0.8L32.7,102.6z M35.2,77.2l1,0.2L35.7,78h-1L35.2,77.2z M35.7,91.6l0.6,0.5
				l0.2,0.8l-1-0.2l-0.8-1.3L35.7,91.6z M35.6,118.8h-0.8v-0.6h0.8V118.8z M36.9,111.6l-0.3,0.6l-0.6-0.5l0.2-1l0.8-0.2V111.6z
				 M36.9,105.6l-1.8-0.5l-0.5-0.5l-0.2-1l1-0.5h1.1l0.3,0.6V105.6z M36.7,99.2l-1.1,0.3l0.3-1.1l-0.2-0.5l-1.3,0.2l0.2-1l0.6-0.3h1
				l0.6,0.3L36.7,99.2z M41.7,77.7h0.8v0.8h-0.8V77.7z M38.1,101l0.5-0.6l1.1-0.2v2.1l-1.8-0.3L38.1,101z M40.1,114.9l-0.8,0.2V114
				l0.8,0.2V114.9z M39.7,107.9l-1.4,1l-0.3-1l0.3-0.8l0.8-0.3l1,0.3L39.7,107.9z M39.7,96l-1-0.3l-0.5-1.8l1.8-0.6L39.7,96z
				 M39.7,89.4l-0.8-0.3l0.3-0.6l0.8,0.3L39.7,89.4z M39.4,82.6L38.3,83l0.6-0.8l1.1-0.3L39.4,82.6z M42.5,112.2l-0.8-2.1l1,0.8
				L42.5,112.2z M42.6,104l-0.5-0.8l1.3,0.5L42.6,104z M42.8,99.5L42,99.4l-0.3-1l0.5-1.6h1l0.3,2.1L42.8,99.5z M41.7,91.8l1.1,0.3
				l0.3,0.8L42,92.8L41.7,91.8z M43.1,86l-1.3-1L41,84.9l0.6-1.3l1.8,0.6L43.1,86z M42.8,71.4l-1.1-0.3l0.8-0.6l1,0.3L42.8,71.4z
				 M45.8,74l0.5,1.1l-0.2,1l-0.6-0.5L45.8,74z M44.9,80.9l0.6-0.3h1.1l-0.8,1.3h-1V80.9z M44.6,101.3l0.5-0.8l1.1-0.3l0.5,1v1.1
				L44.6,101.3z M45.8,108l-0.3,0.8l-0.6-0.6l0.3-0.8L45.8,108z M44.6,114l1.8-0.3l0.8,0.5l0.2,1L44.6,114z M45.5,89.4l-1-0.3v-1.1
				l1.3-1.3l0.6,0.5l0.8,1.6L45.5,89.4z M47.3,61.8h-0.6v-0.6h0.6V61.8z M56.3,97.1h0.6v0.6h-0.6V97.1z M52.4,100.2l1.4,0.3l-0.5,1
				l-1.6,1.1L52.4,100.2z M48.6,64.2h0.8V65h-0.8V64.2z M48.6,70.9l1.1-0.2l-0.5,1.1h-1L48.6,70.9z M48.6,83.6l0.8,0.6l0.5,1.1
				l-0.2,1L48.9,86l-0.5-0.6l-0.2-1L48.6,83.6z M48.7,90.2l1-0.3v1l-0.8,0.3l-0.6-0.3L48.7,90.2z M48.1,97.6l0.5-0.6l0.8-0.2
				l-0.5,1.1l-1,0.5L48.1,97.6z M48.6,111.1l0.5-0.5l1.3,1l-0.5,0.6l-1.6-0.3L48.6,111.1z M59,121.5v-0.6l0.8,0.2l0.2,0.5H59z
				 M55.6,114.1l0,0.1l-0.5,0.7l0,0.1l-0.2,0.1l0,0.1l0.1,0.1l0.3,0.1l0.5-0.1l0.3,0.1l0.2-0.1l0.1,0.1l0.2,0l0.2,0.1h0.9l0.4-0.1
				l0.4,0.1l0.2-0.1l0.4,0.1h0.2l-0.7-0.6v-1.1l1.4,0.6l0.3,0.8l-0.7,0.2h1.4l0.6,0.1l0.1,0.2l0,0.4l0.1,0.3l-0.1,0.9l0.1,0.5
				l-0.1,0.2l0.1,0.4l0,0.6l-0.1,0.1l-0.6,0.1l-0.2-0.1h-0.2l-0.5,0.1l-0.6-0.1h-0.2l-0.2,0.1l-0.4-0.1l-1.8,0.1l-1.4-0.1l-0.5,0
				l-0.3,0.1l-0.2-0.1l-0.4,0l-1,0l-0.7-0.1l-0.2,0.1l-0.2-0.1l-0.3,0l-1.1,0l-0.2,0.1l-0.2-0.1l-0.8,0l-0.3-0.1l-0.1-0.1l-0.1-0.9
				v-0.3l-0.4-1.1l0.4,0.1l0-0.5l0.4-0.6l0.2-0.1l0.2-0.4l0.6-0.7l0.2-0.4l0.7-0.7l0.4-0.6l0.6-0.7l0.9-1.2l0-0.1l0.2-0.1l0.2-0.4
				l0.2-0.3l0.3-0.1l-0.1-0.2l0.3-0.3l0.1-0.2v-0.2L55,109l0.2-0.2l0.2-0.4l-0.2-0.6l-0.1,0l-0.2,0.1l-0.1-0.1l0.1-0.2l0-0.1
				l-0.1,0.1l-0.1,0.2l-0.1,0.1l-0.7,0l-0.3,0.8l-1,0.3l-1-0.3l-0.1-0.8l0,0l-0.3,0.1l-0.2,0l0-0.1l-0.9,0l-0.4,0l-0.2-0.1l-0.1-0.2
				v-1l-0.1-1.1l-0.6-0.4v-1.9l1.1,0.5l-0.1,0.4l0.2,0l0.1,0l0.6-0.1h1.9l0.4,0l1.9,0.1l0.4,0v-0.9h1.4l0.3,0.9l3.5,0l1.2,0l0.1,0.1
				l0.1,0.4v0.4l0.8,0.1l0.3,1l-1.1-0.3l0,0l0,0.2l-0.1,0.5l0,0.2l0,0.2l-0.1,0.2l-0.3,0.4l-0.3,0.3l-0.5,0.7l-0.9,1l-0.3,0.4l0,0.1
				l-0.3,0.3l-0.6,0.7l-0.2,0.2l-0.1,0.2v0.2l-0.4,0.3l-0.3,0.3l-0.2,0.4l0,0.1l-0.4,0.2l-0.1,0.2v0.1l-0.4,0.3l-0.3,0.4l-0.3,0.3
				L55.6,114.1 M65.6,102.6l-1.1-0.3l-0.3-1l1.1-0.5l0.3,0.6V102.6z M70.7,100.5h0.6v0.8h-0.6V100.5z M68,98.7h0.6v0.8H68V98.7z
				 M79.5,107.7L79.5,107.7l-0.2,0.2l-0.2,0l-0.7-0.1l-0.2,0.1l-0.2,0l-0.9-0.1l-0.9,0l-1,0.1l-0.9,0l-0.3-0.1l-0.2,0.1l-1.2,0
				l-0.2-0.1v-0.1l-0.1,0.1l-0.1,0.2l-0.1,0.1L72,108l0,0l0,0.4l-0.2,0.3l0,0.3l0.1,0.2l0.1,0.2l-0.2,0.1l0,0.1l0.1,0.1l0.3,0
				l0.2,0.1l0.2,0.1l0.2,0l0.1-0.1l0.9,0.1l1.9-0.1l1.4,0.1h0.8l0.1,0.2l0.1,0.2l0,0.7l0.1,0.2l0,0.1l-0.1,0.1l0,0.1l0.1,0.4l0,0.9
				l-0.1,0.6l-0.1,0.1l-1.8,0.1h-3.6l-0.2,0.1H72l0,0.2h0.2l0.3,0.8l-0.6,0.3l0.2,0.1l0,0.1l-0.1,0l0-0.1l-0.1,0l0,0.1l0.1,0.1h0.2
				l0.2-0.1l0.4,0.1h0.4l0.2-0.1l0.5,0.1l0.9,0l0.4,0l0.3,0.1l0.4-0.1l0.5,0l1,0.1l0.5,0l0.2-0.1l0.4,0.1l0.5,0l0.2,0l0.1,0.1
				l0.1,0.9v1.9l0,0.7l-0.2,0.2l-0.9,0l-1.9,0l-0.9-0.1l-1.1,0.1l-0.8-0.1l-0.2,0.1l-0.2-0.1l-0.4,0.1h-0.5l-0.4-0.1l-0.3,0.1
				l-0.9-0.1l-0.9,0l-1.2,0l-0.2-0.1l-0.2,0l-0.1-0.5l0.1-1.4l-0.1-0.9l0.1-0.9V108l-0.1-1.8l0-0.5l-0.2,0l0.2-1l0-0.1l0,0l0-0.2
				l0.1-0.2l0.2,0l0.1-0.1l0.1,0.1l0.4,0l1.9,0.1l0.8-0.1l0.2,0.1h0.9l0.8-0.1l0.6,0.1h0.2l0.2-0.1h0.2l0.2,0.1h1.4l0.8-0.1l0.3,0
				l0.2,0.1l0.2-0.1l0.1-0.1l0.2,0.2l0.7,0l0.3,0.1l0,0.3l0.1,0.3l-0.1,0.5v1.3l0,0.1l0.1,0.1l-0.1,0.4L79.5,107.7z M79.1,102.6
				l-1-0.3l-0.5-0.6l1.4-1.1l0.6,0.5L79.1,102.6z M84.6,115.1l-0.6-0.6l0.5-0.8l0.8,0.3L84.6,115.1z M99.8,112l-0.1,0.9l-0.2,0.9
				l-0.2,0.8l-0.4,0.8l-0.4,0.7l-0.8,1.1l-0.7,0.5l-0.5,0.3l-0.8,0.4l-0.5,0.2l-1.6,0.4l-0.5,0.1l-1.8-0.1h-1.8l-1.9,0.1h-0.9
				l-0.4-0.1l-0.1,0l-0.1-0.1l-0.2,0.1l-0.1,0l-0.1-0.1l-0.1-0.4l0-2.8l0-0.5l-0.1-0.5l0.1-0.9l-0.1-0.3l0.1-0.2l0-0.5l0.1-0.2
				l-0.1-0.5v-1.8l-0.1-0.5l0.1-0.2l0-0.4l0-0.2l-0.1-0.3l0.1-0.8l0-1.5l-0.1-0.4l0.1-0.2v-1.4l0.2-0.2l1,0h1.8l0.8,0l0.4,0.1h3.5
				l0.9,0.1l1.2,0.2l0.8,0.4l0.3,0.1l0.7,0.6l0.7,0.6l0.6,0.7l0.5,0.8l0.4,0.9l0.2,0.9l0.2,0.9l0,0.3l0.1,0.2V112z"/>
		</g>
		<g>
			<path class="st0" d="M121,106.7l0.2,0.4v0.4l0.1,0.5l0.2,0.5l0.1,0.2l0,0.2l0.1,0.5l0.3,0.9l0.1,0.8l0.1,0.2l0.1,0.2l0,0.3
				l0.2,0.4l0.1,0.1l-0.1,0.1l0.1,0.2l0.1,0.1l0.2-0.4l0.2-0.7l0.1-0.2l0-0.2l0.3-1l0.1-0.5l0.2-0.4l0.2-0.9l0.3-0.9l0.5-1.6
				l0.2-0.4l0-0.4l0.1-0.2l0.4-1l0.9-0.1h2l0.6,0l0.2,0.3l0.1,0.4l0.3,0.9l1.2,3.7l0.8,2.5l0.2,0.2l0.4,0.2l0.1-0.2l0-0.3l0.2,0
				l-0.1-0.2v-0.1l0.1-0.2l0.2-0.8l0.3-0.7l0-0.5l0.1-0.4l0.2-0.4l0.1-0.5l0-0.1l0.3-0.9l0.5-1.9l0.2-0.4l0-0.3l0.2-0.3l0.1-0.1
				l0.9,0l1.9,0l0.8-0.1l0.5,0.1l0,0.3l0,0.2L138,108l-0.1,0.2l0,0.4l-0.5,1.3l-0.4,1.9l-0.3,1l-0.3,1.2l-0.2,0.4l-0.3,1l0,0.2
				l-0.1,0.2l-0.4,0.9l-0.2,1.2l-0.2,0.6l-0.1,0.5l-0.1,0.3l-0.2,0.3h-3l-1.1-0.1l-0.1-0.2l-0.1-0.3v-0.2l0.1-0.1l-0.1-0.1l-0.1-0.2
				l-0.2-0.9l-0.3-0.9l-0.4-0.9l-0.3-1l-0.7-1.9l0.1-0.2l-0.2-0.1l-0.3-1l-0.2-0.4l-0.2-0.2l-0.1,0.1l-0.1,0.1l0,0.2l-0.4,0.9l0,0.4
				l-0.4,0.9l-0.2,0.9l-0.2,0.4l0,0.3l-0.4,1.1l0,0.3l-0.2,0.2l0,0.3l-0.1,0.2l-0.2,0.3l0,0.3L125,118l-0.2,1l-0.2,0.4l-0.2,0.2
				h-0.5l-0.3,0.1l-0.2-0.1l-0.5,0l-0.1,0l-0.2-0.1l-0.5,0l-1,0l-0.6-0.1l-0.2-0.4l-0.3-1l-0.1-0.2l-0.1-0.2l0-0.2l-0.1-0.5l-0.3-1
				l-0.3-1l-0.3-0.9l-0.2-1l-0.4-1.4l-0.2-0.4l0-0.3l-0.1-0.2l-0.2-0.7l-0.1-0.2v-0.1l0-0.1l-0.3-0.9l-0.6-2.2l-0.2-0.4l-0.1-0.8
				l0-0.1l-0.2-0.4l-0.1-0.5l-0.1-0.7l0.2-0.1l0.4,0.1l0.2-0.1l0.5,0l1.1,0l1,0l0.5,0l0.5,0.1l0.5,1.9L121,106.7z M118.2,107.8
				L118.2,107.8L118.2,107.8L118.2,107.8z M118.3,108.4L118.3,108.4L118.3,108.4L118.3,108.4L118.3,108.4z M118.8,107.2l-0.1,0
				l-0.1,0.1l0,0.1l0.2-0.1L118.8,107.2z M118.6,108.9l-0.1,0v0.1l0.1,0V108.9z M118.7,111.4l-0.1,0l0,0.1L118.7,111.4L118.7,111.4z
				 M118.6,105.6l0,0.1l0.1,0.1L118.6,105.6L118.6,105.6z M118.8,108.2l0-0.1l-0.1,0l-0.1,0.1L118.8,108.2L118.8,108.2z
				 M118.9,110.2h-0.1v0.1L118.9,110.2L118.9,110.2z M119,106l0,0.1l0.1,0.1L119,106L119,106z M119.2,111.7l-0.1,0l-0.1,0.1
				L119.2,111.7L119.2,111.7z M119.2,107l0-0.1l-0.1,0l-0.1,0.1l0,0.1L119.2,107L119.2,107z M119.1,109.2H119v0.1L119.1,109.2
				L119.1,109.2z M119.1,112.4L119.1,112.4l0.1,0.1L119.1,112.4L119.1,112.4z M119.2,110.2L119.2,110.2L119.2,110.2L119.2,110.2
				L119.2,110.2z M119.1,111v0.1l0.1,0l0-0.2H119.1z M119.1,113.4l0,0.1l0.1,0.1l0.1-0.1L119.1,113.4z M119.4,113.1L119.4,113.1
				L119.4,113.1L119.4,113.1z M119.6,111.4L119.6,111.4L119.6,111.4L119.6,111.4L119.6,111.4z M119.8,113.4l0,0.1l0.1,0v-0.2H119.8z
				 M119.9,115.1L119.9,115.1l-0.1,0L119.9,115.1L119.9,115.1z M119.9,108.3l-0.1,0.1L119.9,108.3L119.9,108.3z M119.9,111.7
				L119.9,111.7l-0.1,0.1h0.1V111.7z M119.8,112.6l0.1,0.1l0.1,0L119.8,112.6L119.8,112.6z M119.8,115.9v0.1l0.1,0.1l0-0.2H119.8z
				 M119.9,107.8L119.9,107.8l0.1,0.1L119.9,107.8z M120.1,109.3l-0.1,0l-0.1,0.1L120.1,109.3L120.1,109.3z M119.9,111L119.9,111
				l0.1-0.1l-0.2,0L119.9,111z M120.3,108.1l-0.1,0l0,0.1l0.1,0.1l0.2,0l0-0.1L120.3,108.1z M120.2,108.8l0,0.1l0,0.1l0.1,0.1h0.1
				L120.2,108.8L120.2,108.8z M120.3,109.7L120.3,109.7l-0.1,0.1h0.1V109.7z M120.4,110.6l0-0.1l-0.1,0l0,0.1l0.2,0.2L120.4,110.6z
				 M120.3,115.7l0.1,0l0-0.2l-0.1,0l0,0.1l-0.1,0l0,0.1L120.3,115.7z M120.2,111.4l0,0.1l0.1,0.1l0.1-0.3L120.2,111.4z
				 M120.3,113.2l0.1-0.1l0-0.1l0-0.1l-0.2,0L120.3,113.2L120.3,113.2z M120.2,113.9v0.1V113.9L120.2,113.9z M120.5,112.3l0-0.1
				l-0.1,0l-0.1,0l0,0.1L120.5,112.3z M120.4,119L120.4,119L120.4,119L120.4,119L120.4,119z M120.3,114.5l0.1,0.2l0.1,0.1v-0.1
				L120.3,114.5z M120.4,116.3v0.1l0.1,0.1l0-0.1L120.4,116.3z M120.7,119.3l-0.1,0l0,0.1l0.1,0.1l0-0.1L120.7,119.3z M120.8,113.4
				l0-0.1l-0.1,0l0,0.1l0,0.1l0.1,0.1l0.1,0l0-0.1L120.8,113.4z M120.9,111.9l-0.1,0l-0.1,0.1l0.2,0L120.9,111.9z M120.8,114.4
				l0.1-0.1l-0.1-0.1l-0.1,0l0,0.1L120.8,114.4z M120.9,115.2v-0.1l0-0.1l-0.1,0l-0.1,0.2v0.1l0.1,0.1L120.9,115.2z M120.8,110.9
				h-0.1l0,0.2l0.1,0.1l0-0.1L120.8,110.9z M120.8,109.4L120.8,109.4l-0.1,0.1h0.1L120.8,109.4z M120.9,116.8l-0.1,0l0,0.1l0.1,0
				L120.9,116.8z M121.1,114.6l-0.1,0l-0.1,0.1l0,0.1l0.1,0.1l0.1,0l0.1,0l0-0.1L121.1,114.6z M121,115.6l0,0.1l0.2,0l0-0.1
				L121,115.6z M121.2,111.4l-0.1,0l0,0.1l0.1-0.1L121.2,111.4z M121.2,110.5l0,0.1l0.1,0L121.2,110.5L121.2,110.5z M121.1,112.1
				l0,0.1l0.1,0l0-0.1L121.1,112.1z M121.1,113l0,0.1l0.1,0l0-0.1L121.1,113z M121.2,115.4L121.2,115.4L121.2,115.4L121.2,115.4z
				 M121.3,116.2h-0.1v0.1L121.3,116.2L121.3,116.2z M121.7,110.3l0-0.1l-0.2-0.1l0,0.2l0.1,0.1L121.7,110.3z M121.5,112.8h0.1l0,0
				v-0.1l0,0h-0.1l0,0L121.5,112.8L121.5,112.8z M121.7,115.8h-0.1l-0.1,0.1l0,0.1h0.2V115.8z M121.7,116.8l0-0.1l-0.1,0l-0.1,0.1
				l0,0.1h0.2V116.8z M121.6,113.6l0.1-0.2l-0.2,0l-0.1,0l0,0.2L121.6,113.6z M121.7,114.4l0-0.2l-0.1-0.1l0,0.1l-0.1,0l0,0.1H121.7
				z M121.8,115.1l-0.2-0.1l-0.1,0.3l0.1,0L121.8,115.1z M121.7,117.6l0-0.1l-0.1,0l-0.1,0.1l0.1,0.1L121.7,117.6z M121.7,118.5
				L121.7,118.5l-0.1,0.1h0.1L121.7,118.5z M122.2,111.4l-0.1,0l0,0.1l-0.1,0l-0.1,0.1l0.3,0.1L122.2,111.4z M122.1,113.2
				L122.1,113.2l0-0.3l-0.3,0.1l0.1,0.2H122.1z M122,114l0.1,0l0.1-0.1l0-0.1l-0.1-0.1l-0.2,0l0,0.1L122,114z M122,112.3l0.1,0
				l0-0.1l-0.1,0l-0.1,0l0,0.1L122,112.3z M122.1,114.8l-0.1-0.2l-0.1-0.1l-0.1,0.1v0.1l0.1,0.1L122.1,114.8z M122.1,115.6
				L122.1,115.6v-0.2l-0.1,0l-0.1,0l0,0.1h0.1L122.1,115.6z M122.1,116.3l0-0.1H122l0.1,0.1l-0.1,0.1l0.2,0.1L122.1,116.3z
				 M122.1,118.1l-0.1,0v0.1L122.1,118.1L122.1,118.1z M122.4,114.4l0.1,0l0-0.1v-0.1l-0.1,0l-0.1,0L122.4,114.4L122.4,114.4z
				 M122.3,113.5L122.3,113.5l0.2,0.1l0.1-0.1l0-0.1h-0.1L122.3,113.5z M122.5,115.1l0-0.1h-0.1l0,0.1v0.2l0,0.1l0.1,0L122.5,115.1z
				 M122.5,115.8l-0.1,0l0.1,0.2l0.1,0L122.5,115.8L122.5,115.8z M122.5,117.5h-0.1v0.1L122.5,117.5L122.5,117.5z M122.5,112.6
				l0,0.1l0.1,0.1L122.5,112.6L122.5,112.6z M123,114l0-0.1l-0.1-0.2l-0.1,0.2l0.2,0.1L123,114z M123,115.7l0-0.2l0-0.1l-0.1,0
				l-0.1,0.1l-0.1,0.1l0.1,0.1H123z M122.8,114.5L122.8,114.5l-0.1,0.2l0,0.1l0.1,0.1l0.1-0.3L122.8,114.5z M123,113v-0.1l-0.2,0
				l0,0.1v0.1l0,0.1l0.1,0L123,113z M122.9,116.2l-0.1,0l-0.1,0.1l0,0.1h0.2L122.9,116.2z M123,117.9L123,117.9l-0.1,0.2h0.1V117.9z
				 M123.3,112.7l0-0.2l-0.1,0l-0.1,0l-0.1,0.1l0.1,0.1H123.3z M123.4,115.9l0-0.1l-0.1,0l-0.1,0.1l0,0.1l0.2,0L123.4,115.9z
				 M123.2,114.2l0,0.1l0,0.1l0.1,0l0-0.2L123.2,114.2z M123.4,115.1l-0.2-0.1l0,0.1l0,0.1l0.1,0L123.4,115.1z M123.4,111.9l0-0.1
				l-0.2,0.1l-0.1,0.1h0.1L123.4,111.9z M123.2,113.4l0.1,0.1L123.2,113.4L123.2,113.4z M123.4,117.6L123.4,117.6l-0.1,0l-0.1,0.1
				l0,0.1l0.2-0.1L123.4,117.6z M123.8,115.8l0.1-0.1v-0.1l-0.1-0.2l-0.1,0l-0.1,0.1l0.1,0.2L123.8,115.8z M123.6,112.1l-0.1,0.1
				l0,0.1l0.1,0L123.6,112.1L123.6,112.1z M123.8,113.2l0-0.1l0-0.1l-0.1-0.1l-0.1,0.2L123.8,113.2L123.8,113.2z M123.7,113.9h-0.1
				v0.1L123.7,113.9L123.7,113.9z M123.8,117l-0.1,0l-0.1,0.1l0,0.1l0.1,0.1l0-0.1L123.8,117z M123.6,114.8L123.6,114.8l0.1,0.1
				L123.6,114.8z M123.8,116.2h-0.1v0.1h0.1V116.2z M123.7,111.3v0.1l0.1,0L123.7,111.3L123.7,111.3z M123.9,116.1h0.1l0.1-0.1
				l0-0.1l-0.1-0.1l-0.1,0.1h-0.1L123.9,116.1L123.9,116.1z M124.2,111.9l0-0.1l-0.1,0l-0.1,0.1l0,0.1L124.2,111.9L124.2,111.9z
				 M124.1,112.4l-0.1,0l-0.1,0.1v0.1l0.1,0.1h0.1L124.1,112.4L124.1,112.4z M124.1,114.2l-0.1,0v0.1l0,0.1h0.1l0-0.1L124.1,114.2z
				 M124,116.7L124,116.7L124,116.7L124,116.7L124,116.7z M124.1,110.1l-0.1-0.1l0,0.2l0.1,0l0-0.1L124.1,110.1z M124.3,113.5
				l-0.1-0.2l-0.1,0l-0.1,0.1l0,0.1L124.3,113.5L124.3,113.5z M124.1,115.2L124.1,115.2l-0.1,0L124.1,115.2L124.1,115.2z M124.1,111
				l0,0.1L124.1,111L124.1,111z M124.5,114l0.1-0.1l0-0.2l-0.1,0l-0.2,0.1l-0.1,0.1l0.1,0L124.5,114z M124.6,111.5l0-0.1l-0.1-0.1
				h-0.1l-0.1,0.1l0,0.1l0.1,0L124.6,111.5z M124.6,112.2l-0.2,0l0,0.1l0.1,0L124.6,112.2z M124.4,114.7l0,0.1l0.1,0l0-0.1
				L124.4,114.7z M124.6,116.2L124.6,116.2l-0.1,0.1h0.1L124.6,116.2z M124.7,112.9l-0.1-0.1l0,0.1l0,0.1l0.1-0.1V112.9z
				 M124.8,110.9l-0.1,0.1l0,0.1l0.1,0l0-0.2L124.8,110.9z M124.8,109.4L124.8,109.4L124.8,109.4L124.8,109.4z M124.8,111.8v0.1
				V111.8L124.8,111.8z M125,112.8l0.1-0.1l0-0.1l-0.1,0l-0.1,0l-0.1,0.1l0.1,0.1H125z M125,113.6l0.1-0.1l-0.3,0l0,0.1l0.1,0.1
				L125,113.6z M124.9,115.1h-0.1l0,0.1L124.9,115.1L124.9,115.1z M124.9,114.2v0.2l0.1,0.1l0.1-0.2L124.9,114.2z M124.9,107.5v0.1
				V107.5L124.9,107.5z M124.9,110.1l0,0.1l0.1,0.1l0.1-0.1L124.9,110.1z M125,115.8h-0.1l0,0.1l0.1,0.1l0.1,0L125,115.8L125,115.8z
				 M125.1,111.8L125.1,111.8L125.1,111.8L125.1,111.8z M125.4,110.7l0-0.1l-0.1-0.1l-0.2,0l0,0.1l0.2,0.1L125.4,110.7z
				 M125.2,107.3l0.1,0.1l0.1,0l-0.1-0.1L125.2,107.3z M125.4,109h-0.1l-0.1,0.1l0.2,0V109z M125.3,109.8L125.3,109.8l-0.1,0.1
				L125.3,109.8L125.3,109.8z M125.4,113.1L125.4,113.1h-0.1l-0.1,0l0.1,0L125.4,113.1z M125.4,112.1l-0.1,0l-0.1,0.2l0.1,0.1
				l0.2-0.1L125.4,112.1z M125.3,111.3L125.3,111.3L125.3,111.3L125.3,111.3L125.3,111.3z M125.3,113.8L125.3,113.8L125.3,113.8
				L125.3,113.8z M125.7,111l-0.1,0l0,0.1l0.1,0.1l0-0.1L125.7,111z M125.6,110.2L125.6,110.2l0.2,0.1l0.1-0.1l0-0.2h-0.1
				L125.6,110.2z M125.6,112.6v0.1l0.1,0.1l0.1,0l0.1,0l0-0.1L125.6,112.6z M125.8,109.4l-0.1,0l-0.1,0.1L125.8,109.4L125.8,109.4z
				 M125.8,107.8L125.8,107.8L125.8,107.8L125.8,107.8L125.8,107.8z M126.1,107.5l0-0.1l0.1,0l0-0.1l-0.1,0l-0.2,0L126.1,107.5
				L126.1,107.5z M126.2,109.1L126.2,109.1l0.1-0.2l-0.1,0l-0.1,0v0.2L126.2,109.1z M126.1,109.7l0,0.2l0.1,0.1L126.1,109.7
				L126.1,109.7z M126.2,112.1h-0.1l0,0.1v0.1l0.1,0.1l0.1-0.2L126.2,112.1z M126.2,108l-0.1,0v0.1L126.2,108L126.2,108z
				 M126.3,111.5h-0.2v0.1h0.1L126.3,111.5z M126.3,106.4l-0.1,0l-0.1,0.1l0,0.1l0.1,0L126.3,106.4z M126.7,107l0-0.1l-0.1-0.1
				l-0.1,0.3l0.2,0L126.7,107z M126.7,107.6l0-0.1l-0.2,0.1l0,0.1l0,0.1l0.1,0L126.7,107.6z M126.7,108.6l0-0.1h-0.3l0,0.2
				L126.7,108.6L126.7,108.6z M126.4,110.2l0,0.1l0.1,0v-0.1L126.4,110.2z M126.6,111.2l0.1,0V111l-0.1-0.1l-0.2,0.1l0,0.1l0.1,0
				H126.6z M126.5,112.6L126.5,112.6l0.1,0.1L126.5,112.6z M126.6,111.7l-0.1,0.1l0,0.1l0.1,0.1l0.1-0.3L126.6,111.7z M126.7,110.2
				l0-0.1l-0.1-0.1l-0.1,0.1l0.1,0.2L126.7,110.2z M127,107.9l-0.1,0.2l0,0.1l0.1,0L127,107.9L127,107.9z M127.1,105.5L127.1,105.5
				l-0.2,0l0,0.1L127.1,105.5L127.1,105.5z M127.1,109l0-0.1l-0.2,0l0,0.3l0.1,0L127.1,109z M127,110.5l-0.1,0v0.1L127,110.5
				L127,110.5z M126.9,106.4v0.1l0.1,0l0.1,0l0-0.1l-0.1,0L126.9,106.4z M127,107.2l-0.1,0l0.2,0.2l0-0.1L127,107.2z M127.1,111.6
				l0.1-0.2H127l-0.1,0l0,0.2L127.1,111.6z M127.1,109.7L127.1,109.7l-0.1,0l0.1,0.1L127.1,109.7z M127.3,106.2l0.1-0.1l0.1-0.1
				l0-0.1l-0.3,0.1L127.3,106.2L127.3,106.2z M127.3,108.6l0.1,0.1h0.2l0.1-0.1l0-0.1l-0.1-0.1l-0.1,0l0.1,0l0.1,0.1h-0.3
				L127.3,108.6z M127.5,109.5l-0.3-0.2v0.2l0.1,0.1H127.5z M127.5,110.3l0-0.1l-0.1,0l-0.1,0l0,0.1L127.5,110.3z M127.4,106.8
				l-0.1-0.1l0,0.2l0.1,0L127.4,106.8z M127.8,108.3l0.1-0.1l0-0.1l-0.1-0.1l-0.1,0l-0.1,0.1l0.1,0.2L127.8,108.3z M127.6,108.9
				l0,0.1l0.1,0.1l0.1,0l0.1-0.1l-0.1-0.1L127.6,108.9z M127.8,110.8l0-0.2l-0.1,0l-0.1,0l0.1,0.1L127.8,110.8z M127.8,107.1
				L127.8,107.1l0.1,0.1L127.8,107.1L127.8,107.1z M128,109.7l0-0.1l-0.1,0l-0.1,0.1l0,0.1l0.1,0.1l0.1-0.1L128,109.7z M127.9,106.5
				l0-0.2h-0.1l0,0.1l0,0.1l0,0.1L127.9,106.5L127.9,106.5z M128.1,111l0-0.1L128.1,111L128.1,111L128.1,111z M128.4,109.4
				L128.4,109.4l-0.2-0.1l-0.1,0.1l0.2,0.1L128.4,109.4z M128.4,106.1h-0.2v0.1l0.1,0L128.4,106.1z M128.2,110.1l0,0.2l0.1,0
				l0.1-0.2L128.2,110.1z M128.4,108.5l-0.2,0l-0.1,0.3l0.1,0L128.4,108.5z M128.3,107.6l0,0.1l0.1,0.1L128.3,107.6L128.3,107.6z
				 M128.7,109.7l0-0.1l-0.1,0l-0.1,0.1l0.1,0.1L128.7,109.7z M128.7,113.1l0.1-0.1l-0.1,0l-0.1-0.1l-0.1,0l0.1,0.2L128.7,113.1z
				 M128.6,108.8h-0.1v0.1L128.6,108.8L128.6,108.8z M128.6,111.5h-0.1v0.1h0.1V111.5z M128.6,112.1L128.6,112.1l-0.1,0.2l0.1,0.1
				l0.1-0.2L128.6,112.1z M128.7,106.3l-0.1,0l0,0.1L128.7,106.3L128.7,106.3z M128.6,109.1L128.6,109.1l0.1,0V109l0,0h-0.1l0,0
				L128.6,109.1L128.6,109.1z M128.8,107.2l-0.2-0.1v0.3l0.1,0.1l0.1-0.2V107.2z M128.6,110.5v0.2l0.1,0.1l0-0.3L128.6,110.5z
				 M128.8,111.5l-0.1-0.1l-0.1,0.1l0.2,0.1L128.8,111.5z M128.9,106.4h-0.1v0.1L128.9,106.4L128.9,106.4z M129,106.9L129,106.9
				l-0.1,0.1h0.1V106.9z M128.9,109.2l0,0.1l0.1,0.1l0.1,0l0.1-0.1l0-0.1l-0.1,0.1L128.9,109.2z M129.2,110.3l0-0.2l-0.1,0l-0.1,0.1
				l0,0.1l0.2,0L129.2,110.3z M129.1,111.2l0.1,0l0-0.1l-0.1,0l-0.1,0v0.1L129.1,111.2z M129,111.8h0.1l0.1-0.1l-0.2,0L129,111.8z
				 M129.2,112.5l-0.2,0v0.1L129.2,112.5L129.2,112.5z M129.2,105.9h-0.1v0.1h0.1V105.9z M129.6,109.8l0-0.1l-0.1,0l-0.1,0.2l0.1,0
				L129.6,109.8z M129.5,109L129.5,109l-0.1-0.1l0,0.1l0,0.1l0.1,0V109z M129.6,111.5l0-0.1h-0.2l-0.1,0.1l0.1,0L129.6,111.5z
				 M129.6,113.2L129.6,113.2l0.1-0.2l-0.1,0h-0.1l0,0.1H129.6z M129.6,110.5L129.6,110.5L129.6,110.5L129.6,110.5L129.6,110.5z
				 M129.6,112.2L129.6,112.2L129.6,112.2L129.6,112.2L129.6,112.2z M130.1,111.8L130.1,111.8l-0.3,0l-0.1,0.1l0.1,0L130.1,111.8z
				 M129.8,112.7l0.1-0.1l0.1-0.1l-0.1,0l-0.1,0L129.8,112.7L129.8,112.7z M129.8,115.2L129.8,115.2L129.8,115.2L129.8,115.2
				L129.8,115.2z M129.9,110.1L129.9,110.1l-0.1,0L129.9,110.1L129.9,110.1z M130,111.2l0.1-0.2l-0.1,0l-0.1,0l0,0.1L130,111.2z
				 M130,108.6L130,108.6l-0.1,0L130,108.6L130,108.6z M130.4,114l0.1-0.1l-0.3-0.1l-0.1,0.1l0.1,0.1L130.4,114z M130.4,110.8
				l0.2-0.1l-0.1-0.1l-0.1,0.1h-0.1l0,0.1L130.4,110.8z M130.4,111.6l0-0.1l-0.1,0l0,0.1l0.1,0L130.4,111.6z M130.5,112.4l0-0.1
				l-0.2-0.2l-0.1,0l0.1,0.2L130.5,112.4z M130.2,114.9l0.1,0l0.1-0.1l0.1-0.2l-0.1,0h-0.1l-0.1,0.1l0.1,0.1L130.2,114.9z
				 M130.3,116.2L130.3,116.2L130.3,116.2L130.3,116.2L130.3,116.2z M130.5,113.1l0-0.1l0-0.1l-0.1,0l-0.1,0.1v0.1L130.5,113.1
				L130.5,113.1z M130.5,109l-0.1,0l0,0.1h0.1L130.5,109z M130.8,110.1L130.8,110.1l-0.1,0.1L130.8,110.1L130.8,110.1z M130.7,110.9
				l-0.1,0.2l0.1,0.1l0.1-0.2L130.7,110.9z M130.8,112.6v-0.1l-0.1,0l-0.1,0l0,0.1H130.8z M130.8,115.8h-0.1l-0.1,0.1v0.1l0.1-0.1
				L130.8,115.8z M130.7,113.2l0,0.1l0,0L130.7,113.2z M130.8,114.4l-0.1-0.1l-0.1,0.1L130.8,114.4L130.8,114.4z M130.8,119.2
				l-0.2,0l0,0.3l0.1-0.1V119.2z M130.8,113.5L130.8,113.5l-0.1,0.1L130.8,113.5L130.8,113.5z M130.9,115l-0.1,0l0,0.2l0.1,0
				L130.9,115z M130.9,111.9l-0.1,0l0,0.1L130.9,111.9L130.9,111.9z M131.1,111.5L131.1,111.5L131.1,111.5v0.1V111.5z M131.2,112.1
				l-0.1,0l-0.1,0.1h0.1L131.2,112.1z M131.1,113.9L131.1,113.9L131.1,113.9L131.1,113.9L131.1,113.9z M131.2,113.7h-0.1l0,0.1h0.1
				L131.2,113.7z M131.1,114.7l0,0.1l0.1,0.1l0.1-0.2L131.1,114.7z M131.2,110.5l0,0.1l0.1,0.1l0-0.1L131.2,110.5z M131.7,114.3
				v-0.1l-0.1,0h-0.1l-0.1,0.1l0,0.1H131.7L131.7,114.3z M131.7,113.5v-0.1l-0.2,0l-0.1,0.1l0,0.1l0.1,0L131.7,113.5z M131.6,112.5
				h-0.1v0.1L131.6,112.5L131.6,112.5z M131.6,116.1l0.1,0l0-0.1l-0.1-0.1l-0.1,0l0,0.1L131.6,116.1z M131.6,116.9L131.6,116.9
				l0-0.2l-0.1,0l0,0.1L131.6,116.9z M131.5,111l0,0.1l0.1,0l0-0.1L131.5,111z M131.6,115.1l0.1-0.1l-0.2,0L131.6,115.1z
				 M131.5,115.2L131.5,115.2l0.1,0.1L131.5,115.2z M131.7,111.9v-0.1l-0.2,0l0,0.1l0,0.1L131.7,111.9L131.7,111.9z M131.9,114
				l0.2-0.1l0.1-0.1l0-0.1l-0.1,0h-0.1l-0.1,0l0,0.2L131.9,114z M132,114.9l0.1,0l0-0.1l-0.1-0.1l0-0.1l-0.1-0.1l-0.1,0.1v0.2
				L132,114.9z M132.1,116.4l0-0.1H132l-0.1,0.1l0,0.1l0.1,0L132.1,116.4z M131.9,117l0,0.1l0.1,0.1L131.9,117L131.9,117z
				 M132.1,113l-0.1-0.1h-0.1l0.1,0.2l0.1,0L132.1,113z M132,115.4h-0.1v0.1L132,115.4L132,115.4z M132.2,115.7l-0.1-0.1l-0.2,0
				l0,0.1L132.2,115.7z M132.2,112.3l0-0.1l-0.1,0l-0.2-0.1l0,0.1v0.1l0.2,0.1L132.2,112.3z M132.2,117.3v-0.1H132l0,0.2
				L132.2,117.3L132.2,117.3z M132.4,114.2L132.4,114.2l-0.1,0.1L132.4,114.2L132.4,114.2z M132.4,115l-0.1,0.2l0.1-0.1V115z
				 M132.6,117.6l0-0.1l-0.1,0l-0.1,0l0,0.1l0.2,0L132.6,117.6z M132.4,112.6h-0.1l0,0.1l0.1,0h0.1L132.4,112.6L132.4,112.6z
				 M132.5,113.4L132.5,113.4l-0.1-0.2l-0.1,0.2L132.5,113.4L132.5,113.4z M132.5,116.1L132.5,116.1l0-0.2l-0.1,0h-0.2l0.1,0.1
				l0,0.1H132.5z M132.5,116.9l0-0.1l-0.2,0.1l-0.1,0.1l0.1,0L132.5,116.9z M132.9,113l0.1-0.1l-0.1-0.1h-0.1l-0.1,0.1l0,0.1l0.1,0
				L132.9,113z M132.9,114l0.1,0l0-0.3l-0.2,0.1l-0.1,0.1l0,0.1l0.1,0H132.9z M132.8,114.9l0.2-0.1v-0.1l-0.1-0.1l-0.1,0l0,0.2
				l-0.2,0l0,0.1L132.8,114.9z M132.9,116.5l-0.1-0.1h-0.1l0,0.1L132.9,116.5z M132.9,115.7L132.9,115.7l0.1-0.3l-0.2,0.1l0,0.1
				L132.9,115.7z M132.8,112.1L132.8,112.1l0,0.3l0.1,0l0-0.1L132.8,112.1z M132.9,117l-0.1,0v0.1L132.9,117L132.9,117z
				 M133.3,112.8l-0.1-0.3l-0.1,0l-0.1,0.1l0,0.1l0.1,0.1L133.3,112.8z M133.2,113.4L133.2,113.4l-0.1,0l0,0.1l0.1,0l0-0.1
				L133.2,113.4z M133.3,116.1L133.3,116.1l0-0.2l-0.1-0.1l-0.1,0l0,0.1L133.3,116.1z M133.4,115.2L133.4,115.2V115l-0.1,0l-0.1,0
				l0,0.1l0.1,0L133.4,115.2z M133.3,117.5L133.3,117.5l-0.2,0.2l0,0.1l0.2-0.2V117.5z M133.3,111.9l-0.1,0l-0.1,0.1L133.3,111.9
				L133.3,111.9z M133.3,114.3L133.3,114.3L133.3,114.3L133.3,114.3L133.3,114.3z M133.6,111.4h-0.1v0.1L133.6,111.4L133.6,111.4z
				 M133.7,113.2l0.1-0.1l0-0.2l-0.1-0.1l-0.1,0l-0.1,0.1l0.1,0L133.7,113.2z M133.5,114.7l-0.1,0.1h0.1L133.5,114.7z M133.6,116.3
				L133.6,116.3l-0.2,0.1l0.2,0.1L133.6,116.3z M133.7,114L133.7,114l0.1-0.3l-0.1,0l-0.1,0.1l0,0.2L133.7,114z M133.6,115.7l0.1,0
				l0-0.1l0-0.1l-0.1,0l-0.1,0L133.6,115.7L133.6,115.7z M133.5,117.2l0,0.1l0.1,0.1l0-0.2H133.5z M133.7,110.7h-0.1v0.1
				L133.7,110.7L133.7,110.7z M133.7,109.7L133.7,109.7l-0.1,0.2l0.1,0.1l0-0.1L133.7,109.7z M133.7,114.7v0.1l0.1,0.1l0-0.3
				L133.7,114.7z M133.7,112.3l0,0.1L133.7,112.3L133.7,112.3z M134.1,112.7l0.1,0l0-0.2l-0.1,0l0,0.1l-0.1,0.1l0,0.1L134.1,112.7
				L134.1,112.7z M134.1,113.4L134.1,113.4h-0.1l0,0.1l0.2,0V113.4z M134.1,114.2l-0.1,0l0,0.1l0.1,0L134.1,114.2z M134.1,111.7H134
				l0,0.1l0.1,0.1l0.1,0.1l0-0.2L134.1,111.7z M134.1,115.9l0-0.1l-0.2,0l0,0.1L134.1,115.9z M134,116.6l0,0.3l0.1,0.1l0.1-0.3
				L134,116.6z M134.1,115L134,115l0,0.1l0.1,0.1l0.1-0.1L134.1,115z M134.1,110.2l0,0.1h0.1L134.1,110.2z M134.1,110.9H134v0.1h0.1
				V110.9z M134.4,115.7l0.1-0.2l-0.1,0l-0.1,0l0,0.2L134.4,115.7z M134.3,108l0,0.1l0.1,0.1l0-0.1L134.3,108z M134.6,109.9l0-0.1
				l-0.1-0.1l-0.2,0.1l0.1,0.1L134.6,109.9z M134.6,113.1L134.6,113.1l-0.1-0.3l-0.1,0.3h0.1L134.6,113.1z M134.4,114l0.1,0v-0.3
				h-0.1l-0.1,0L134.4,114L134.4,114z M134.6,114.7l-0.2-0.1l-0.1,0l0,0.1L134.6,114.7L134.6,114.7z M134.5,111.3l-0.1,0l0,0.1
				l0.1,0.1l0.1,0L134.5,111.3L134.5,111.3z M134.6,112.1h-0.1l0.1,0.2l0.1,0L134.6,112.1L134.6,112.1z M135,113.3l-0.2,0l0,0.1v0.1
				l0.2,0.1L135,113.3z M134.8,114.2l0,0.1l0.2,0l0.1-0.1l-0.2-0.1H134.8z M135,110.3v-0.1l-0.1,0l0,0l0,0.1H135z M134.9,111.8
				L134.9,111.8l0.1,0l-0.2-0.1L134.9,111.8z M135,109.3L135,109.3L135,109.3L135,109.3L135,109.3z M135,112.7L135,112.7L135,112.7
				L135,112.7z M135.2,107.3l0,0.1l0.1,0.1l0-0.1L135.2,107.3z M135.5,110.6l0-0.1l-0.1,0l-0.1,0.1l0,0.1l0.2,0L135.5,110.6z
				 M135.4,114.7l0-0.1h-0.1l-0.1,0l0.1,0.1L135.4,114.7z M135.4,108.3l0-0.1l0-0.2l-0.1,0v0.2l0,0.1L135.4,108.3L135.4,108.3z
				 M135.4,108.8l-0.1,0l-0.1,0.1l0.2,0.1L135.4,108.8z M135.4,113.1L135.4,113.1L135.4,113.1L135.4,113.1L135.4,113.1z
				 M135.7,109.4L135.7,109.4l0.1,0v-0.1l0,0h-0.1l0,0L135.7,109.4L135.7,109.4z M135.6,111.1L135.6,111.1l0.1,0L135.6,111.1z
				 M135.9,106.9l-0.2-0.2l0.1,0.2l0,0.1l0.1,0V106.9z M135.9,108.7l0-0.1l-0.2,0l0,0.1L135.9,108.7z M135.9,110.1h-0.1v0.1
				L135.9,110.1L135.9,110.1z M136,109.7L136,109.7l0,0.2l0.1-0.1L136,109.7z M136.2,106.3h-0.1l0,0.1l0,0.1l0.1,0l0.1-0.1
				L136.2,106.3z M136.3,107.4v-0.1l-0.1,0l-0.1,0.1l0,0.1L136.3,107.4L136.3,107.4z M136.2,108.8h-0.1l0,0.1l0.1,0L136.2,108.8
				L136.2,108.8z M136.3,110.5L136.3,110.5l-0.1,0l0,0.1l0.1,0l0-0.1L136.3,110.5z M136.6,108.4l0,0.1l0.1,0l0-0.1L136.6,108.4z
				 M136.8,106.3l0,0.1l0.1,0h0.1l-0.1-0.1L136.8,106.3z M137.3,106l0,0.1l0.1,0h0.1l-0.1-0.1L137.3,106z"/>
			<path class="st0" d="M159,113l-0.4,1.5l-0.2,0.4l-0.2,0.3l-0.1,0.3l-1.2,1.6l-0.2,0.2l-0.4,0.3l-0.1,0.2l-0.3,0.3l-0.6,0.3
				l-0.3,0.3l-0.8,0.5l-1,0.3l-1.4,0.3l-0.3,0l-0.2,0.1l-1,0l-1.7-0.2l-0.4-0.2l-0.5-0.1l-1.1-0.5l-0.2-0.2l-0.1,0l-0.1,0l-1.4-1.3
				l-1-1.1l0-0.2l-0.2-0.2l-0.4-0.8l-0.4-0.9l-0.4-1.4l-0.1-0.2l0-0.2l0-1.5l0.1-1l0.1-0.5l0.2-0.4l0.1-0.2l0-0.3l0.3-0.4l0.4-0.9
				l0.4-0.6l0.3-0.3l0.1-0.2l1.1-1l0.2-0.2l0.4-0.2l0.6-0.4l0.7-0.3l0.2-0.1l0.3,0l0.2-0.1l0.2,0l0.1-0.1l0.6-0.2l0.1-0.1l2-0.1
				l1,0.1l1,0.2l1.3,0.4l0.2,0.2l0.6,0.3l0.4,0.3l0.4,0.2l0.3,0.4l0.4,0.3l0.7,0.7l0.6,0.8l0.5,0.9l0.4,0.9l0.2,0.7l0,0.5l0.1,0.4
				l-0.1,0.4l0.1,0.3l0,0.7l0.1,0.2l-0.2,0.5V113z M144,110.3l0-0.1l-0.1,0l-0.1,0.2l0.3,0.1L144,110.3z M143.9,112.8l-0.1,0l0,0.1
				l0,0.1l0.2,0.1L143.9,112.8z M143.9,111.1l0,0.2l0.1-0.1L143.9,111.1z M144.3,111.7v-0.2l-0.2,0.1l-0.1,0.1v0.1L144.3,111.7
				L144.3,111.7z M144.3,109.2L144.3,109.2l-0.2-0.1v0.2h0.1L144.3,109.2z M144.6,111.1L144.6,111.1l-0.1,0.1l0,0.1l0.1,0
				L144.6,111.1L144.6,111.1z M144.7,111.9h-0.1v0.1L144.7,111.9L144.7,111.9z M144.8,114.4l-0.1,0l-0.1,0.1l0.2,0.1L144.8,114.4z
				 M144.7,109.4L144.7,109.4L144.7,109.4L144.7,109.4L144.7,109.4z M145,108.3L145,108.3L145,108.3L145,108.3L145,108.3z
				 M145,109.1l0,0.1l0.1,0.1L145,109.1L145,109.1z M145.1,114L145,114l-0.1,0.1v0.1l0.1,0.1L145.1,114z M145.1,107.3l-0.2,0l0,0.1
				l0,0.2l0.2-0.1L145.1,107.3z M145.1,109.8l-0.1-0.1l0,0.1l0,0.1l0.1,0.1l0.1,0l0-0.1L145.1,109.8z M145,111.5l0,0.2l0.1-0.1
				L145,111.5z M145.1,113.2l-0.1-0.1l-0.1,0.1l0,0.1l0.2-0.1L145.1,113.2z M145.1,115.7l-0.1,0v0.2l0.1,0.1l0.1,0.1l0-0.2
				L145.1,115.7z M145.1,109L145,109l0.1,0h0.1L145.1,109z M145.1,108.3L145.1,108.3h0.2l-0.2-0.1V108.3z M145.5,108.6L145.5,108.6
				l-0.1,0.1h0.1V108.6z M145.4,113.7v0.1V113.7L145.4,113.7z M145.5,107L145.5,107l-0.1,0.2l0.1-0.1L145.5,107z M145.5,107.8v0.1
				l0.1,0.1l0-0.1L145.5,107.8z M145.6,112.9L145.6,112.9L145.6,112.9L145.6,112.9L145.6,112.9z M146.1,108.3l-0.1-0.1l-0.1,0
				l-0.1,0l-0.1,0.1l0.3,0L146.1,108.3z M145.9,112.4l-0.1,0l0,0.1l0.1,0L145.9,112.4z M146,107.4l0-0.1h-0.1l0,0.2l0,0.1l0.1-0.1
				L146,107.4z M145.9,109.1L145.9,109.1L145.9,109.1L145.9,109.1L145.9,109.1z M146,109.9L146,109.9l-0.1-0.1l-0.1,0l0,0.1
				L146,109.9z M145.9,106.5l0,0.1l0.1,0l0.1,0l0-0.1L145.9,106.5z M146,115.7l0,0.1l0.1,0L146,115.7z M146.1,109.1L146.1,109.1
				L146.1,109.1L146.1,109.1L146.1,109.1z M146.3,107.1l0.1,0L146.3,107.1l-0.1-0.1l0,0.1H146.3L146.3,107.1z M146.3,108.6l-0.1,0
				l-0.1,0.1l0.1,0L146.3,108.6z M146.3,113.7l0,0.1l0.1,0.1L146.3,113.7L146.3,113.7z M146.4,116.9l-0.1,0.1l0.1,0L146.4,116.9z
				 M150.8,107.4l-0.2,0.1l-0.1,0.1l-0.2-0.1h-0.1l-0.5,0.1h-0.4l-0.1,0.1l-0.4,0.1l-0.6,0.3l-0.1,0.3l-0.1,0.1h-0.2l-0.8,0.8
				l0.1,0.1l0.1,0.1l-0.3,0.3l-0.2,0.4l-0.1,0.5l0,0.4l-0.2,0.4l0,0.2l0.1,0.6l0,0.3l0.2,0.5l0.2,0.2l0,0.2l0.7,1l0.1,0.3l0.2,0.1
				l0.1,0.1l0.2,0.1h0.1l0.1,0.3l0.9,0.4l1,0.2l0.5,0l0.7-0.1l0.2-0.1l0.3,0.1l0.4-0.2l0.5-0.2l0.8-0.6l0.5-0.5l0.1-0.4l0.2-0.4
				v-0.4l0.2-0.2l0.1-0.5l0-1.6l-0.1-0.2l-0.1-0.4l-0.2-0.4l-0.6-0.8l-0.9-0.8h-0.2l0-0.1l-0.2-0.1l-0.3,0l-0.1-0.2l-0.2-0.1
				l-0.5-0.1l-0.1-0.1l-0.2,0L150.8,107.4z M146.4,115.3L146.4,115.3L146.4,115.3L146.4,115.3L146.4,115.3z M146.6,115.7l0,0.1
				l0.1,0l0-0.2H146.6z M146.7,107.5L146.7,107.5l0.1-0.1l0-0.1l-0.1-0.1l-0.1,0.1L146.7,107.5L146.7,107.5z M146.8,106.7
				L146.8,106.7l-0.1,0L146.8,106.7L146.8,106.7z M146.9,117.3l-0.1,0l-0.1,0.1l0.2,0.1L146.9,117.3z M147,106.2l0,0.1h0.1l0-0.1
				H147z M147,117l0,0.1l0.1,0.1h0.1l0-0.1L147,117z M147.3,117.8L147.3,117.8l-0.1,0L147.3,117.8L147.3,117.8z M147.5,105.9
				l0.1-0.1l-0.1-0.1l-0.1,0L147.5,105.9L147.5,105.9z M147.5,106.5L147.5,106.5l0,0.1h0.1L147.5,106.5z M147.6,115.8l0-0.1
				l-0.1-0.1l-0.1,0.1v0.1H147.6z M147.7,116.5h-0.1l-0.1,0.1l0,0.1l0,0.1l0.1,0L147.7,116.5z M147.5,107.3l0,0.2l0.1,0v-0.2H147.5z
				 M148.2,105.4l-0.3-0.1l0,0.2L148.2,105.4L148.2,105.4z M148,107.1h-0.1v0.1L148,107.1L148,107.1z M148,117l0,0.1l0.1,0.1
				l0.1-0.2L148,117z M148.2,105.8l0,0.1l0.1,0l0-0.1L148.2,105.8z M148.3,117.4L148.3,117.4l0.1,0.1l0.2-0.2L148.3,117.4z
				 M148.5,106.6l-0.1,0v0.1h0.1L148.5,106.6z M148.4,116.6l0.1,0.1l0.1,0l0-0.1L148.4,116.6z M148.9,106.3l0-0.1l-0.1-0.1h-0.1
				l0.1,0.3L148.9,106.3L148.9,106.3z M149.3,105.9L149.3,105.9l0.1-0.1v-0.1l-0.2,0l-0.1,0.1l0,0.2L149.3,105.9L149.3,105.9z
				 M149.2,107.4l-0.1,0L149.2,107.4L149.2,107.4L149.2,107.4z M149.3,106.5l-0.1-0.1l0,0.2L149.3,106.5L149.3,106.5z M149.2,117.5
				L149.2,117.5l0.1,0.1L149.2,117.5z M149.5,106.1l0,0.1l0.1,0l0-0.1L149.5,106.1z M149.9,117.1l-0.2-0.2l-0.1,0l0,0.2l0.2,0
				L149.9,117.1z M149.8,105.3h-0.1l0,0.1l0.1,0l0.1,0L149.8,105.3L149.8,105.3z M150.2,117.5l-0.1,0l-0.1,0.1L150.2,117.5
				L150.2,117.5z M150.2,118.1L150.2,118.1l-0.1,0.1l0,0.1l0.1,0.1L150.2,118.1L150.2,118.1z M150.5,105.2l0-0.1L150.5,105.2
				L150.5,105.2L150.5,105.2z M150.6,105.5l0-0.1l-0.2,0.1l-0.1,0.1l0.1,0L150.6,105.5z M150.6,104.5L150.6,104.5l-0.1,0l0.1,0.1
				L150.6,104.5z M150.9,105.8l0.1-0.2h-0.2l-0.1,0l0,0.1L150.9,105.8z M151,117.4L151,117.4l-0.1,0.2h0.1V117.4z M151.4,106.1
				l-0.1,0l-0.1,0.1l0.1,0L151.4,106.1z M151.2,118.6L151.2,118.6l0.1,0.1L151.2,118.6L151.2,118.6z M151.3,116.9h-0.1v0.2l0.1-0.1
				L151.3,116.9z M151.3,104.5l0.1,0.1L151.3,104.5L151.3,104.5z M151.8,105.1l-0.1,0v0.1L151.8,105.1L151.8,105.1z M151.8,105.7
				l-0.1,0l-0.1,0.1L151.8,105.7L151.8,105.7z M152,105.4l0.1,0l0.1,0l0-0.1H152L152,105.4z M152.6,105.6h-0.1v0.1l0.1,0.1h0.1
				L152.6,105.6L152.6,105.6z M152.5,106.7l0,0.1l0.1,0.1L152.5,106.7L152.5,106.7z M152.6,118.4L152.6,118.4l-0.1,0L152.6,118.4
				L152.6,118.4z M152.7,116.6h-0.1v0.1L152.7,116.6L152.7,116.6z M152.9,116.3L152.9,116.3l-0.1,0.1l0.1,0L152.9,116.3z
				 M152.8,117.9l0,0.1l0.2,0.1l0-0.1L152.8,117.9z M153,106.1l-0.1,0l0,0.2l0.1,0l0-0.1L153,106.1z M153.1,105.3L153.1,105.3
				L153.1,105.3L153.1,105.3L153.1,105.3z M153.3,105.6v0.1l0.1,0v-0.1L153.3,105.6z M153.4,105.9L153.4,105.9L153.4,105.9
				L153.4,105.9L153.4,105.9z M153.3,106.7l0,0.1l0.1,0l0-0.1H153.3z M153.9,107.1l0-0.1l-0.1,0l-0.1,0l0.1,0.1L153.9,107.1z
				 M153.9,116.2l-0.1,0.1l0.1,0h0.1L153.9,116.2z M154.2,107.3L154.2,107.3l-0.1,0.2l0.1-0.1L154.2,107.3z M154.3,106.8l0.1-0.1
				l-0.2,0L154.3,106.8z M154.4,105.9L154.4,105.9l-0.1,0.1h0.1L154.4,105.9z M154.6,117.1l0-0.1h-0.1l-0.1,0l0,0.1L154.6,117.1z
				 M154.6,116.3l0.1,0v-0.3l-0.2,0l0,0.1L154.6,116.3z M154.5,115.3l0,0.1l0.2,0.1l0.1-0.2L154.5,115.3z M154.7,107L154.7,107
				l0.1-0.1l-0.2-0.1L154.7,107z M154.7,117.8L154.7,117.8l0,0.2L154.7,117.8L154.7,117.8z M154.8,107.8L154.8,107.8l-0.1,0.1l0.1,0
				L154.8,107.8z M155.1,116.6l0-0.1l-0.2,0.1l-0.1,0.1l0.1,0L155.1,116.6z M155.1,115.9l0.1-0.1v-0.1l-0.1-0.1l-0.1,0.2l0.1,0.1
				L155.1,115.9z M155.1,114l-0.1,0.1L155.1,114L155.1,114z M155.2,111.5l-0.1,0l0,0.1l0.1,0L155.2,111.5z M155.2,106.7L155.2,106.7
				L155.2,106.7L155.2,106.7L155.2,106.7z M155.5,107.8l-0.2-0.1l0,0.1l0.1,0.1l0.1,0l0.1-0.2L155.5,107.8z M155.5,109.6
				L155.5,109.6L155.5,109.6L155.5,109.6L155.5,109.6z M155.6,110.3l-0.1-0.1l-0.1,0l-0.1,0.1l0.2,0.2V110.3z M155.4,112.9l0,0.1
				l0.1,0l-0.1-0.1L155.4,112.9z M155.6,108.6h-0.1l0,0.1h0.2L155.6,108.6z M155.5,114.6l0.1,0l0-0.1l-0.1-0.1l-0.1,0l0,0
				L155.5,114.6L155.5,114.6z M155.5,113.6l0.1,0L155.5,113.6L155.5,113.6z M156,110.8l0-0.1l-0.1,0v0.3L156,110.8L156,110.8z
				 M155.9,112.4v0.1V112.4L155.9,112.4z M156,115.9L156,115.9l-0.1,0l0.1,0.1L156,115.9z M155.9,116.6l0,0.1l0.1,0.1l0.2-0.1
				L155.9,116.6z M156.3,111.9l-0.2,0l-0.1,0.1v0.1l0.1,0L156.3,111.9z M156.3,112.9L156.3,112.9l-0.1,0L156.3,112.9L156.3,112.9z
				 M156.4,115.6l0.1-0.1l0-0.1l-0.2-0.1l0,0.1l-0.2,0l0,0.1L156.4,115.6z M156.2,107.7l0,0.1l0.1,0.1L156.2,107.7L156.2,107.7z
				 M156.3,113.7L156.3,113.7l-0.2,0.1l0,0.1l0.1,0L156.3,113.7z M156.2,114.5l0,0.1l0.1,0.1l0.1,0v-0.1L156.2,114.5z M156.4,108.8
				l0-0.1h-0.1l-0.1,0.1l0.1,0H156.4z M156.3,109.4l-0.1,0.1l0.2,0L156.3,109.4z M156.4,110.5L156.4,110.5l-0.1,0L156.4,110.5
				L156.4,110.5z M156.4,114.4L156.4,114.4L156.4,114.4L156.4,114.4L156.4,114.4z M156.4,111.2l0,0.1h0.1L156.4,111.2z M156.9,109.9
				l-0.1-0.1l-0.1,0l-0.1,0.1l0,0.1l0.1,0.1L156.9,109.9z M156.8,114.9L156.8,114.9l-0.2,0l0,0.1l0.2,0L156.8,114.9z M156.9,112.5
				l0-0.1h-0.1l-0.1,0.1l0,0.1L156.9,112.5L156.9,112.5z M156.8,110.6L156.8,110.6l-0.1,0L156.8,110.6L156.8,110.6z M156.8,114h-0.1
				v0.1L156.8,114L156.8,114z M157.1,108.6L157.1,108.6l-0.1,0.1l0.1,0L157.1,108.6z M157.1,111.4l0-0.2l0.1-0.1l-0.3,0.1
				L157.1,111.4L157.1,111.4z M157.1,111.9l0,0.1l0.1,0l0-0.1L157.1,111.9z M157.3,110.4L157.3,110.4l-0.1,0.1h0.1V110.4z"/>
			<path class="st0" d="M175.7,115.6l0.2,0.2l0.2,0.5l0.6,0.8l0.5,0.8l0.2,0.2l0.9,1.3l0.1,0.2l-0.3,0.1h-1.9l-0.2,0.1l-0.4-0.1
				l-0.4,0.1l-0.2-0.1l-0.3,0.1l-0.4-0.1h-0.5l-0.1,0l-1.1-1.6l-0.5-0.5l0-0.1l-0.7-1l-0.3-0.2l0.1-0.1l-0.6-0.6l-0.1,0l-0.5-0.1
				l-0.8,0.1l-0.4,0.2l-0.1,0v0.8l0,0.1l-0.2,0.1l0.1,0.1l0.2,0.1l-0.1,0.7l0,1l0,0.8l-0.1,0.2l-0.9,0.1l-3-0.1l-0.1-0.2l0-0.2
				l0.1-0.5l-0.1-2.9l0-1.1l0-0.5l-0.1-0.4l0.1-0.1l0-0.2l-0.1-0.8l0.1-0.5l-0.1-0.5l0.1-0.4l-0.1-0.2l0-0.5l-0.1-0.9v-2l0.1-1
				l-0.1-0.7l0.1-0.9l-0.1-1.1l0.2-0.2l1,0l0.5,0l0.3,0.1l1-0.1l2,0.1l2.9,0l1,0.1l1,0.2l0.1,0.1l0.1,0l0.6,0.3l0.2,0l0.8,0.6
				l0.4,0.3l0.6,0.7l0.5,0.8l0.1,0.2l0.2,0.8l0.1,0.3l0.1,1.9l0,0.5l-0.2,1l-0.2,0.5l-0.5,0.9l-0.5,0.8l-0.2,0.2l-0.2,0.1l-0.2,0.2
				l0,0.1l-0.1,0l-0.1,0.1l-0.1,0l-0.4,0.6l-0.1,0.1l0.1,0.2L175.7,115.6z M165.2,111.1l-0.1,0l-0.1,0.1l0.3,0.1L165.2,111.1z
				 M165,119.2l0,0.1l0.1,0.1L165,119.2L165,119.2z M165.5,116.5l0.1,0v-0.3l-0.1,0l-0.1,0.1L165.5,116.5L165.5,116.5z M165.6,115.5
				v0.1l0.1,0L165.6,115.5L165.6,115.5z M166,108.7L166,108.7l-0.1,0l-0.1,0l0,0.1L166,108.7z M165.8,112.7l0.1-0.1l-0.1,0
				L165.8,112.7z M165.9,110.3l0.1-0.3l-0.2,0.1L165.9,110.3L165.9,110.3z M166.1,111.8l-0.1,0l-0.1,0.1l0.2,0.1L166.1,111.8z
				 M166,114.2L166,114.2l0,0.2l0.1,0l0-0.1L166,114.2z M166,115.1L166,115.1l0-0.1L166,115.1z M166.1,107.7L166.1,107.7l-0.1,0.2
				h0.1V107.7z M166.3,112.9l-0.1,0.1l0.1,0.1l0.1-0.1L166.3,112.9z M166.4,107.2l-0.1,0l0,0.2l0.2-0.1L166.4,107.2z M166.4,108.1
				h-0.1l0,0.1l0,0.1l0.1,0l0-0.1L166.4,108.1z M166.4,110.7l-0.1-0.1l-0.1,0l0,0.2L166.4,110.7L166.4,110.7z M166.4,111.7l0.1-0.1
				l0-0.2l-0.1-0.1h-0.1l-0.1,0.1l0,0.1L166.4,111.7z M166.5,112.2l-0.2,0l-0.1,0.1l0.2,0.1L166.5,112.2z M166.4,113.8l-0.1,0
				l-0.1,0.1L166.4,113.8L166.4,113.8z M166.4,106.3L166.4,106.3L166.4,106.3L166.4,106.3L166.4,106.3z M166.5,109.8l-0.1,0l0,0.2
				l0.1,0L166.5,109.8z M166.8,109.5L166.8,109.5l0-0.1l0-0.1l0.2,0l-0.1-0.1l-0.1,0l-0.1,0.1l0,0.1L166.8,109.5z M166.8,106.9h-0.1
				v0.1L166.8,106.9L166.8,106.9z M166.7,107.8L166.7,107.8l0.1,0l-0.2-0.1L166.7,107.8z M166.9,110.2h-0.1l-0.1,0.1l0.1,0
				L166.9,110.2z M166.9,113.4l-0.1,0l-0.1,0.1l0,0.1h0.2V113.4z M166.9,115h-0.1l0,0.1h0.2V115z M166.8,116L166.8,116L166.8,116
				L166.8,116L166.8,116z M166.9,108.5l-0.1-0.1l-0.1,0.2v0.1l0.1,0L166.9,108.5z M166.8,105l0,0.1l0.1,0.1l0.1,0L166.8,105
				L166.8,105z M166.9,106l-0.1,0l0,0.1l0.1,0L166.9,106z M167.1,109.9l-0.1-0.1l0,0.1v0.1L167.1,109.9z M167.3,111.5v-0.1l-0.1,0
				l-0.1,0l-0.1,0.1l0.1,0.1L167.3,111.5z M167.3,114.7l-0.2-0.1l-0.1,0.2h0.4L167.3,114.7z M167.1,107.4L167.1,107.4l-0.1-0.1
				L167.1,107.4z M167.1,114l0.1,0v-0.2l0-0.1l-0.1,0.1v0.1L167.1,114z M167.3,113.1l-0.1,0l0,0.1h0.1L167.3,113.1z M167.2,107.9
				L167.2,107.9l-0.1,0.3l0.1,0.1L167.2,107.9L167.2,107.9z M167.2,112.9l0,0.1l0.1,0v-0.1H167.2z M167.3,105.5L167.3,105.5
				L167.3,105.5L167.3,105.5L167.3,105.5z M167.3,112.2L167.3,112.2l-0.1,0.2h0.1V112.2z M167.3,115.5l-0.1,0l0,0.1l0,0.1l0.1,0
				l0.1-0.1L167.3,115.5z M167.5,110.3L167.5,110.3l0.1,0v-0.1l0,0h-0.1l0,0L167.5,110.3L167.5,110.3z M167.7,111.1v-0.2l-0.1,0
				l-0.1,0l-0.1,0.1l0,0.1l0.1,0L167.7,111.1z M167.6,112.8l0.1,0l-0.1-0.1l-0.1-0.1l-0.1,0l0,0.1L167.6,112.8z M167.6,107.9l0.1,0
				l0-0.1l-0.1,0l-0.1,0.1l0,0.1L167.6,107.9z M167.5,114.3L167.5,114.3l0.2,0.1l0.1-0.1l0-0.1h-0.1L167.5,114.3z M167.7,115l-0.1,0
				l-0.1,0.1h0.2V115z M167.6,117.6L167.6,117.6l-0.1,0L167.6,117.6L167.6,117.6z M167.5,106l0.1,0.1l0.1,0l-0.2-0.2L167.5,106z
				 M167.8,106.9l-0.1,0l-0.1,0.1l0,0.1h0.1L167.8,106.9z M167.6,109.4h0.1l0,0v-0.1l0,0h-0.1l0,0L167.6,109.4L167.6,109.4z
				 M167.7,111.9l0.1-0.1l-0.1,0l-0.1,0L167.7,111.9L167.7,111.9z M167.7,113.3l-0.1-0.1l-0.1,0.1v0.1l0.1,0.1l0.1,0l0-0.1
				L167.7,113.3z M167.6,105l0,0.2l0.1,0.1l0-0.1L167.6,105z M167.9,111.3l0,0.1l0.1,0.1l0.1,0l0.1-0.1l-0.1-0.1L167.9,111.3z
				 M168.1,112.4l0.1-0.1l-0.1-0.1l-0.1,0l-0.1,0l0,0.2L168.1,112.4z M168.1,113h-0.2l0,0.1l0.1,0.1l0.1,0l0.1-0.2L168.1,113z
				 M168.1,114l0-0.3l-0.1,0l-0.1,0.1l0.1,0.2L168.1,114z M168.1,114.8l0-0.1l0-0.1l-0.1,0l0,0.1l-0.1,0.1l0,0.1L168.1,114.8
				L168.1,114.8z M168.1,107.4l0.1-0.2l-0.1,0l0,0.1l-0.1,0l-0.1,0.1l0.1,0L168.1,107.4z M168.1,110.6l-0.1,0v0.1h0.1L168.1,110.6z
				 M168.1,104.7l0,0.1l0.1,0.1L168.1,104.7L168.1,104.7z M168.1,116.3L168.1,116.3l-0.1,0.2l0.1,0V116.3z M168.5,114.5L168.5,114.5
				l0-0.2l-0.1,0l-0.1,0l0,0.1L168.5,114.5z M168.4,115.1L168.4,115.1l0-0.1l-0.2,0.1L168.4,115.1L168.4,115.1z M168.4,109.3
				L168.4,109.3L168.4,109.3L168.4,109.3L168.4,109.3z M168.6,113.6l0-0.1l0-0.2l-0.2,0l-0.1,0.2l0.1,0.1L168.6,113.6z M168.5,105.1
				L168.5,105.1l-0.1,0.1l0.1,0L168.5,105.1z M168.6,106.2l-0.1-0.1l-0.1,0l0,0.1H168.6z M168.5,106.8L168.5,106.8l-0.1,0.1l0.1,0
				L168.5,106.8z M168.6,112.7l-0.1-0.2h-0.1l0,0.2l0,0.1l0.1,0L168.6,112.7z M168.6,110.1l-0.1,0.3l0.1,0.1l0,0.1l-0.1,0.3l0.1,0.2
				l0.2,0.6h0.1l0.1-0.1l0.1,0l0.2,0.1l0.1,0.1l1,0l1,0l1-0.1l0.4-0.1l0.2,0.1l0.1-0.2l0.2-0.1l0.6-0.4l0.2-0.4l0.1-0.5l0-0.5l0-0.5
				l-0.1-0.4l-0.3-0.4l-0.5-0.5l-0.2-0.1l-0.4-0.1l-1-0.1l-2.7,0l-0.2-0.1l-0.1,0.1l-0.2,0.2l0.1,1.9L168.6,110.1z M168.7,105.5
				l0,0.2l0.1,0.1l0-0.2L168.7,105.5z M168.9,113.8L168.9,113.8l-0.2,0l-0.1,0.2l0.1,0.1l0.1,0L168.9,113.8L168.9,113.8z M169,114.8
				l0-0.1l-0.1-0.1l-0.2,0.2l0.2,0.1L169,114.8z M168.9,106.4h-0.2l-0.1,0.1L168.9,106.4L168.9,106.4z M168.9,107.1h-0.1v0.1h0.1
				V107.1z M168.9,112.2L168.9,112.2L168.9,112.2L168.9,112.2z M169.2,115.1h-0.1v0.1L169.2,115.1L169.2,115.1z M169.4,105.2
				l-0.3-0.1v0.1l0,0.1l0.2,0L169.4,105.2z M169.3,111.8L169.3,111.8l-0.1,0.1l0.1,0L169.3,111.8z M169.4,114.2l-0.2,0l-0.1,0.1
				l0.2,0.1L169.4,114.2z M169.4,112.5L169.4,112.5L169.4,112.5L169.4,112.5L169.4,112.5z M169.4,113.3l-0.1-0.1l0,0.2l0,0.1
				l0.1-0.1L169.4,113.3z M169.6,104.7l0,0.1l0.1,0.1L169.6,104.7L169.6,104.7z M169.7,114.6l-0.1,0l-0.1,0.1v0.2h0.2V114.6z
				 M169.7,113L169.7,113l-0.1,0.2l0.1-0.1L169.7,113z M169.7,112.2l0.1,0.1v-0.1L169.7,112.2z M169.8,105.6v0.1V105.6L169.8,105.6z
				 M170.2,106.1l-0.1-0.2l-0.2,0L170.2,106.1L170.2,106.1z M170.1,115.1l-0.1,0l0,0.1l0.1,0.1l0-0.1L170.1,115.1z M170.2,112.6
				l-0.1,0l-0.1,0.1L170.2,112.6L170.2,112.6z M170.7,113.8l-0.1,0l0,0.3l0.1,0L170.7,113.8z M170.6,114.8L170.6,114.8L170.6,114.8
				L170.6,114.8L170.6,114.8z M171,112.6l-0.1,0l0,0.2l0.1,0L171,112.6z M171.1,114.4v-0.1l-0.1,0l-0.1,0.1l0,0.1L171.1,114.4
				L171.1,114.4z M171,113.6L171,113.6L171,113.6L171,113.6L171,113.6z M171.3,113.9L171.3,113.9L171.3,113.9L171.3,113.9
				L171.3,113.9z M171.5,115.6l0-0.1l-0.2,0.1l0-0.1l-0.1-0.1l0,0.1v0.1l0,0.1h0.1L171.5,115.6z M171.5,106.5L171.5,106.5l-0.2,0.1
				l0.1,0L171.5,106.5z M171.5,113.8h-0.1v0.2h0.1V113.8z M171.7,115l-0.1,0v0.1L171.7,115L171.7,115z M171.7,112.5l0,0.1l0.1,0.1
				L171.7,112.5L171.7,112.5z M171.9,114.3l-0.1,0l-0.1,0v0.1L171.9,114.3L171.9,114.3z M171.8,113.3l-0.1-0.1L171.8,113.3l-0.1,0.2
				l0.1-0.1V113.3z M172.2,114.6h-0.1l-0.1,0.1v0.1h0.2V114.6z M172.5,113.6l0.1,0l0-0.2l-0.1-0.1l-0.1,0.1l-0.2,0l0.1,0.1
				L172.5,113.6z M172.7,114.4v-0.2l-0.3,0.1l0,0.1l0.3,0L172.7,114.4z M172.4,111.8L172.4,111.8L172.4,111.8L172.4,111.8z
				 M172.4,116.8l0,0.1l0.1,0L172.4,116.8z M172.7,115.1l-0.1,0.1v0.1l0.1,0L172.7,115.1z M172.8,114.6v0.1l0.2,0.1l0.1,0l0-0.1
				l-0.1,0L172.8,114.6z M173,114L173,114L173,114v-0.2l-0.1,0l-0.1,0.2l0,0.1L173,114L173,114z M173,115.7l0.1-0.1l-0.1,0h-0.1
				l0,0.1L173,115.7z M173,107.2l-0.1,0l0,0.2l0.1,0L173,107.2z M173,113.1l-0.1-0.1l-0.1,0.2l0.1,0L173,113.1z M172.9,105.6
				L172.9,105.6l0.1,0.1L172.9,105.6L172.9,105.6z M173.4,113.5L173.4,113.5l-0.1-0.2l-0.1,0l-0.1,0.1v0.1l0.1,0.1l0.1-0.1
				L173.4,113.5z M173.2,114.3l0,0.1h0.1l0-0.1L173.2,114.3z M173.4,107L173.4,107L173.4,107L173.4,107L173.4,107z M173.3,115.8
				l0,0.2l0.1,0l0-0.1L173.3,115.8z M173.5,111.9L173.5,111.9L173.5,111.9L173.5,111.9L173.5,111.9z M173.4,115.1l0,0.1L173.4,115.1
				L173.4,115.1z M173.8,113l0.1-0.1l-0.1,0l-0.1,0l0,0.2l0.1,0.1l0.1,0L173.8,113L173.8,113z M173.8,115.4l-0.1,0v0.1L173.8,115.4
				L173.8,115.4z M173.8,112.1l-0.1,0v0.1h0.1L173.8,112.1z M173.9,113.8l-0.1-0.1v0.1l0,0.1l0,0.1l0.1-0.1L173.9,113.8z
				 M173.8,114.6l0,0.2l0.1,0.1l0-0.2L173.8,114.6z M173.8,116.3l0,0.1l0.1,0.1L173.8,116.3L173.8,116.3z M174,112.6l0,0.1l0.1,0.1
				L174,112.6L174,112.6z M174.3,114.3L174.3,114.3l-0.3,0.1l0.2,0.1L174.3,114.3z M174.2,106L174.2,106l-0.1,0.1l0.2,0L174.2,106z
				 M174.2,113.4h-0.2v0.1L174.2,113.4L174.2,113.4z M174.1,113.5l0,0.1l0.1,0l-0.1-0.1L174.1,113.5z M174.2,117.6l-0.1,0v0.1
				l0.2,0.2l0-0.1L174.2,117.6z M174.3,115l-0.1,0l0,0.1l0,0.1l0.1,0l0-0.1L174.3,115z M174.2,112.5l0,0.1l0.1,0.1L174.2,112.5
				L174.2,112.5z M174.5,107.2L174.5,107.2l0.1,0.1L174.5,107.2z M174.6,114.7l-0.1-0.1l-0.1,0.1l0,0.1l0.1,0L174.6,114.7z
				 M174.6,106.3l-0.1,0l-0.1,0.1l0.2,0L174.6,106.3z M174.7,113.9L174.7,113.9v-0.1l-0.1,0l-0.1,0.1L174.7,113.9L174.7,113.9z
				 M174.6,116.5l0-0.1l-0.2,0L174.6,116.5z M174.7,111.3l-0.1-0.1l-0.1,0.1l0,0.1l0.2,0L174.7,111.3z M174.7,108.2l-0.1,0l0,0.1
				L174.7,108.2L174.7,108.2z M174.8,113.1L174.8,113.1L174.8,113.1L174.8,113.1L174.8,113.1z M175.1,108.7l0-0.1l-0.1-0.1h-0.1
				l-0.1,0.1l0.2,0.1L175.1,108.7z M175,114.2h-0.1l0,0.1h0.1L175,114.2z M175.1,106.1l0-0.1H175l-0.1,0L175.1,106.1L175.1,106.1z
				 M175,106.7l-0.1,0l0,0.2l0,0.1l0.1,0.1l0.1-0.2L175,106.7z M175.1,110.2L175.1,110.2l-0.2,0.1l0.1,0L175.1,110.2z M174.9,117.6
				l0,0.1l0.1,0.1L174.9,117.6L174.9,117.6z M174.9,107.5v0.1l0.1,0.1l0-0.2L174.9,107.5z M175.1,113.6L175.1,113.6l0-0.1l-0.1,0
				l0,0.1L175.1,113.6z M175,115.9h-0.1v0.1h0.1V115.9z M175.4,110.6L175.4,110.6l-0.1,0.1h0.1V110.6z M175.5,111.4L175.5,111.4
				l-0.2-0.1v0.1l0.1,0.1l0.1,0.1l0.1-0.1L175.5,111.4z M175.3,113l0,0.2l0.1-0.1L175.3,113z M175.6,108.1l-0.1,0l-0.1,0.1l0.2,0.1
				V108.1z M175.4,114.6l0,0.1l0,0.1V114.6L175.4,114.6z M175.4,115.4L175.4,115.4l0.1,0.1L175.4,115.4z M175.9,111.7l-0.1,0
				l-0.1,0.1l0.1,0L175.9,111.7z M175.8,113.3l0,0.1l0.1,0.1L175.8,113.3L175.8,113.3z M176,109.3l-0.1,0l-0.1,0.1L176,109.3
				L176,109.3z M175.9,110.1L175.9,110.1l0,0.2l0.1,0l0-0.1L175.9,110.1z M175.9,110.9l-0.1,0v0.1L175.9,110.9L175.9,110.9z
				 M176.3,108.2l0.1-0.1l-0.1,0l-0.1,0l0,0.1L176.3,108.2z M176.2,109.6l-0.1,0.1l0,0.1l0.1,0l0-0.2L176.2,109.6z M176.2,109l0,0.1
				l0.1,0.1L176.2,109L176.2,109z"/>
			<path class="st0" d="M187.8,104.2l-0.1,0.7l0,0.5l-0.1,0.3l0.1,0.7l0,0.2l-0.1,0.1l0.1,0.4l-0.1,0.2l-0.1,0l0.2,0.6l0,0.1h-0.1
				l0.2,0.5l0.2,0.1l0.2,0l0-0.2l-0.1-0.1l0.4-0.2l0.1,0.1l0.4-0.8l0.2-0.1l0.5-0.8l0-0.1l0.2,0l1.3-1.5l1.3-1.4l1.8,0h2l1.2,0
				l0.1,0.1l-0.6,0.8l-1.3,1.4l-0.8,0.8l-0.3,0.4l-0.9,1l-0.6,0.8l-0.5,0.4l-0.3,0.4l-0.6,0.6v0.5l1.2,1.5l1.6,2.3l0.1,0l0.2,0.4
				l0.9,1.2l0.5,0.8l1,1.2l0.1,0.3l0.4,0.5l0.1,0.2l0,0.1l-1,0.1l-2.9,0l-0.7,0.1l-0.2-0.1l-0.1,0l-0.6-0.8l-1.7-2.4l-0.8-0.9
				l-0.1-0.2l-0.1-0.1l-0.2-0.2l-0.2-0.4l-0.2-0.3l-0.1-0.1l0-0.2l-0.3-0.2l0,0.1l0.1,0.1l-0.1,0l-0.2,0l-0.2,0.1l-0.7,0.7l0.1,0.2
				l0,0.9l-0.1,2l0,1l0,0.5l-0.3,0.2h-1.9l-1.3,0.1l-0.1-0.2l-0.1-0.1l-0.1,0l0,0.1l-0.1,0l-0.2-0.1v-0.4l-0.1-0.9l0.1-0.2l0-0.2
				l-0.1-1l0.1-0.8l-0.1-0.3l0.1-0.9v-1.5l-0.1-0.5l0.1-0.3l0-0.2l-0.1-1l0.1-1.9v-2.1l0-1l0.1-0.5l-0.1-0.2l0-0.5l0-1l0-0.2
				l0.1-0.2l0.1-0.1l0.9-0.1h2.1l0.9,0.1l0.1,0.2L187.8,104.2z M184.5,114.9l0,0.1L184.5,114.9L184.5,114.9z M184.5,106.5l0,0.1
				l0.1,0.1L184.5,106.5L184.5,106.5z M184.7,107l0,0.1l0.1,0l0-0.1L184.7,107z M185,108.6l-0.1,0l-0.1,0.2l0,0.1l0.1,0L185,108.6z
				 M184.9,115.3L184.9,115.3l-0.1,0.1h0.1V115.3z M185,109.4h-0.1v0.1h0.1V109.4z M185.3,108.4l0.1-0.3l-0.1,0l-0.1,0l-0.2,0v0.2
				L185.3,108.4z M185.4,114.2v-0.1l-0.1,0l0-0.1l-0.1-0.1l-0.1,0.1l0,0.1l0.1,0.1L185.4,114.2z M185.5,115l0-0.1l-0.1,0l-0.1,0
				l-0.1,0.1l0.2,0.1L185.5,115z M185.5,107.4l-0.2-0.1l-0.1,0.1l0.2,0.2L185.5,107.4z M185.3,109h-0.1l0,0.1l0,0.1l0.1,0L185.3,109
				z M185.4,110.7l-0.1,0l-0.1,0.2h0.3L185.4,110.7z M185.3,106.7L185.3,106.7l-0.1,0.1L185.3,106.7L185.3,106.7z M185.5,111.7h-0.1
				l-0.1,0l-0.1,0.1L185.5,111.7L185.5,111.7z M185.4,105.7L185.4,105.7l-0.1,0.1h0.1V105.7z M185.3,109.9v0.1l0.1,0l0-0.2H185.3z
				 M185.3,113.2L185.3,113.2l0.1,0.1L185.3,113.2z M185.3,106.7l0-0.1l-0.1-0.1L185.3,106.7z M185.3,115.8L185.3,115.8L185.3,115.8
				L185.3,115.8z M185.3,116.6L185.3,116.6l0.1,0.1L185.3,116.6L185.3,116.6z M185.8,107L185.8,107l-0.2-0.1l-0.1,0.1l0.2,0.1
				L185.8,107z M185.8,112.1l-0.1-0.1l-0.1-0.1l-0.1,0.1l-0.1,0.1L185.8,112.1L185.8,112.1z M185.9,109.6l-0.1-0.1l-0.1-0.1l-0.1,0
				l0,0.1l0.1,0L185.9,109.6z M185.9,112.9l-0.2-0.1l-0.1,0l0,0.1v0.1L185.9,112.9L185.9,112.9z M185.6,117L185.6,117L185.6,117
				L185.6,117L185.6,117z M185.8,107.9l-0.2-0.1l0,0.2l0.1,0.1l0.1,0L185.8,107.9z M185.6,108.7L185.6,108.7l0.2,0.1l0.1-0.1l-0.1,0
				L185.6,108.7z M185.7,110.2L185.7,110.2L185.7,110.2L185.7,110.2L185.7,110.2z M185.8,111.3L185.8,111.3l0-0.1l-0.1,0.1l0,0.1
				l0.1,0L185.8,111.3z M185.6,113.9h0.1l0-0.1h-0.2L185.6,113.9z M185.8,115.5l0-0.1l-0.2-0.2l-0.1,0.1l0,0.2l0.1,0.1L185.8,115.5z
				 M185.8,116.3l-0.1,0l0,0.1L185.8,116.3L185.8,116.3z M185.8,106.1l-0.1,0l-0.1,0.1l0,0.1l0.2,0V106.1z M185.8,116.1L185.8,116.1
				L185.8,116.1L185.8,116.1L185.8,116.1z M186.3,108.4v-0.2l-0.1-0.1l-0.1,0l-0.1,0.1l0,0.1l0.1,0.1L186.3,108.4L186.3,108.4z
				 M186.3,109.2l0-0.1l0-0.1L186,109l0,0.1h0.1L186.3,109.2z M186.2,109.8l-0.1,0l-0.1,0.1l0,0.1l0.2,0.1L186.2,109.8z
				 M186.1,110.9l0.2,0l0-0.1l-0.1,0l-0.2,0L186.1,110.9L186.1,110.9z M186.2,111.6h0.1l0-0.1l-0.1-0.1l-0.1,0l-0.1,0.1l0,0.1
				l0.2,0.1L186.2,111.6z M186.2,115l0.1,0v-0.2l-0.3,0.1L186,115l0.1,0L186.2,115z M186.3,112.6v-0.2l-0.1,0l-0.1,0.1l-0.1,0.1
				l0.1,0L186.3,112.6z M186.1,115.7L186.1,115.7l-0.1,0.1l0.2,0L186.1,115.7z M186.3,113.2l-0.1,0l-0.1,0.1l0,0.1l0.1,0
				L186.3,113.2z M186.2,114.1l-0.1,0.1L186.2,114.1L186.2,114.1z M186.3,117.5L186.3,117.5l-0.1,0L186.3,117.5L186.3,117.5z
				 M186.2,107.4L186.2,107.4L186.2,107.4l0,0.1L186.2,107.4z M186.6,111.8h-0.1l-0.1,0.3l0.2,0.1V111.8z M186.4,114.6l0.1,0.1h0.1
				l0-0.1l-0.3-0.1V114.6z M186.6,110.3l0-0.1l-0.1,0l-0.1,0.1v0.1l0,0.1h0.2L186.6,110.3z M186.6,111.1l-0.1,0l-0.1,0.1v0.1
				l0.1,0.1l0-0.1L186.6,111.1z M186.6,109.4l-0.1,0l-0.1,0.1l0,0.1l0.1-0.1V109.4z M186.6,115.4L186.6,115.4h-0.1l0,0.1l0.1,0
				L186.6,115.4z M186.6,112.9v-0.1l-0.1-0.1l-0.1,0.2v0.1h0.1L186.6,112.9z M186.6,107.8L186.6,107.8l0,0.2l0.1-0.1L186.6,107.8z
				 M186.6,113.6l-0.1,0v0.1l0.1,0.1l0-0.1L186.6,113.6z M186.8,107l-0.2,0l0,0.1v0.1l0.2-0.1L186.8,107z M186.8,108.6l-0.1,0
				l-0.1,0.1l0,0.1l0.1-0.1L186.8,108.6z M187.1,109.2v-0.2l0-0.1l-0.1,0l-0.1,0l-0.1,0.1l0,0.1l0.2,0L187.1,109.2z M186.8,110
				l0,0.1l0.1,0l0-0.1L186.8,110z M187,110.9L187,110.9l0.1-0.2l-0.2-0.1l0,0.1l-0.1,0.1l0,0.1l0.1,0.1L187,110.9z M187.1,111.8
				l-0.1-0.1v-0.1l0.1-0.1l-0.2,0l0,0.1v0.1l0.1,0H187.1z M187.1,112.6v-0.2l-0.2,0l-0.1,0l0,0.2L187.1,112.6z M186.9,113.4h0.1
				l0.1,0l0-0.1l-0.1-0.1l-0.1,0.1l-0.1,0v0.2L186.9,113.4z M186.9,115.9l0.1,0l0-0.1l-0.1-0.1l-0.1,0L186.9,115.9L186.9,115.9z
				 M186.8,116.7L186.8,116.7l0.1,0.1L186.8,116.7z M186.9,108.2l-0.1,0l0,0.1l0.1,0.1l0-0.1L186.9,108.2z M186.9,106.7L186.9,106.7
				L186.9,106.7L186.9,106.7L186.9,106.7z M186.8,114.9v0.1l0.1,0L186.8,114.9L186.8,114.9z M187.1,107.4L187.1,107.4l-0.2,0.1
				L187.1,107.4L187.1,107.4z M187,114l0,0.2l0.1,0.1l0-0.1L187,114z M187.1,108.3l-0.1,0l0,0.1l0.1,0L187.1,108.3z M187.5,112.9
				l0-0.1l-0.1-0.1l-0.2,0.2l0,0.1L187.5,112.9L187.5,112.9z M187.4,111.1l-0.1,0l-0.1,0.2l0.1,0.2l0.1,0l0-0.2L187.4,111.1z
				 M187.3,108.9l0.1,0l0-0.1h-0.1L187.3,108.9z M187.3,109.4l0,0.1l0.1,0.1l0.1,0l0-0.1L187.3,109.4z M187.5,112l0-0.1l-0.1-0.1
				l-0.1,0.2v0.1l0.1,0L187.5,112z M187.3,107.8l0.2,0.1l-0.1-0.1L187.3,107.8z M187.3,110.2l0,0.1l0.1,0l0-0.1L187.3,110.2z
				 M187.5,113.7l0-0.1l-0.1,0l-0.1,0.1L187.5,113.7L187.5,113.7z M187.4,108.7L187.4,108.7L187.4,108.7L187.4,108.7z M187.4,114.3
				v0.1l0.1,0.1l0-0.1L187.4,114.3z M187.8,110.1l0.1-0.1l0-0.1l-0.1,0l0,0.1l-0.1,0.2H187.8L187.8,110.1z M187.9,110.9l0-0.3l0-0.1
				l-0.1,0l-0.1,0.1l0,0.1l0.2,0.1L187.9,110.9z M187.9,111.8l0-0.3l-0.1-0.1l0,0.1l-0.2,0.2l0.1,0.1H187.9z M187.8,112.4l-0.1-0.1
				l0,0.1l0.1,0.1l0.1,0L187.8,112.4L187.8,112.4z M187.8,109.1L187.8,109.1l-0.1,0v0.1l0.2-0.1L187.8,109.1z M187.9,113.3l0-0.1
				l-0.1,0l0,0.1l0,0.2l0.1,0L187.9,113.3z M188,108.3L188,108.3L188,108.3L188,108.3L188,108.3z M188.4,110.5l0-0.2l-0.2-0.1
				l-0.1,0.1l0,0.2l0.1,0.1L188.4,110.5z M188.2,111.9l-0.1,0l0,0.1l0.1,0.1l0.1,0.1l0.2-0.2L188.2,111.9z M188.3,113l0.1-0.1
				l-0.1-0.1l-0.1,0l-0.1,0.1l0,0.1l0.1,0.1L188.3,113z M188.4,109.5l-0.1-0.1l-0.1,0l-0.1,0.2l0.3,0.1V109.5z M188.3,111.4l0.1-0.1
				l0-0.1l-0.1,0h-0.2l0.1,0.1l0,0.1l-0.1,0.1l0.1,0L188.3,111.4z M188.1,113.7l0.2,0.1v-0.1L188.1,113.7z M188.7,112.6l0-0.1
				l-0.2-0.1l-0.1,0l0.1,0.1L188.7,112.6z M188.7,109.2l0.1-0.1l-0.1-0.1l-0.1,0l-0.1,0.1l-0.1,0.1l0.1,0.1H188.7z M188.8,111.7
				l0-0.2l-0.1-0.1h-0.2l-0.1,0.1l0,0.1l0.2,0L188.8,111.7z M188.8,110.9l0-0.2l-0.1-0.1l-0.1,0l0,0.1v0.2l0,0.1L188.8,110.9
				L188.8,110.9z M188.7,113.4l0.1,0l0-0.1l-0.1,0l-0.1,0L188.7,113.4L188.7,113.4z M189.2,110.4l-0.1,0l0-0.1l-0.1,0l0,0.1v0.1
				l0,0.1l0.1,0L189.2,110.4z M189.2,111.3l0-0.1l-0.2-0.1l0,0.3l0.1,0.1l0.1-0.1L189.2,111.3z M189.2,112.1l0-0.1l0-0.1L189,112
				h-0.1l0,0.1L189.2,112.1z M189.1,113l0-0.3l-0.2,0.1l0.1,0.2L189.1,113z M189.1,113.6l-0.1,0l0,0.1l0.1,0.2l0.1,0l0-0.1
				L189.1,113.6z M189.2,107.9l-0.2-0.1L189,108L189.2,107.9L189.2,107.9z M189.2,109.5l-0.1,0l0,0.1l0,0.1l0.2-0.1L189.2,109.5z
				 M189.6,112.6l0-0.2l-0.1-0.1l-0.1,0.1l-0.1,0l0,0.1l0.1,0L189.6,112.6z M189.6,113.4l0-0.1l-0.1-0.1l-0.1,0l-0.1,0l0,0.1
				l0.3,0.1L189.6,113.4z M189.5,111.5l-0.1,0l-0.1,0.3l0.3-0.1L189.5,111.5z M189.4,109.2l0.1,0l0.1,0l0-0.1h-0.3L189.4,109.2z
				 M189.6,109.9h-0.3l0,0.1l0.1,0.1l0.2-0.1L189.6,109.9z M189.5,110.7v-0.1l-0.1,0l0,0.1l0.1,0L189.5,110.7z M189.4,114l0,0.1
				l0.1,0.1L189.4,114L189.4,114z M189.5,110.8L189.5,110.8l0.1,0.1L189.5,110.8L189.5,110.8z M190.1,109.6l0-0.1l-0.2-0.1l-0.1,0.1
				l0,0.1l0.1-0.1L190.1,109.6z M189.8,108.7h-0.1v0.1L189.8,108.7L189.8,108.7z M190,110.5l0.1-0.2l-0.2-0.1h-0.1l0,0.3l0,0.1
				L190,110.5L190,110.5z M190,111.2l0-0.1l-0.1-0.1l-0.1,0l-0.1,0l0,0.2L190,111.2z M190,112.2L190,112.2L190,112.2l-0.1-0.3
				l-0.2-0.1l0.1,0.1v0.1l-0.1,0.1l0.1,0H190z M189.9,113.6L189.9,113.6l-0.1,0.1h0.1L189.9,113.6z M189.9,107.9l0,0.1l0.2-0.1
				L189.9,107.9z M189.9,112.9v0.1l0.1-0.2L189.9,112.9z M190,108.6l0,0.1l0.1,0.1L190,108.6L190,108.6z M190,113.7l0,0.1l0.1,0.1
				L190,113.7L190,113.7z M190.1,110.8L190.1,110.8l0.1,0.1L190.1,110.8z M190.4,108.4l0-0.1l-0.1-0.1l-0.1,0.2L190.4,108.4
				L190.4,108.4z M190.3,109h-0.1l0,0.1l0,0.1l0.1,0.1l0.1-0.2V109z M190.3,110.2l0-0.2l0.1-0.1l-0.2,0.1l0.1,0.2L190.3,110.2z
				 M190.4,111.5L190.4,111.5l-0.2,0.1l0.2,0.1L190.4,111.5z M190.3,113.2l-0.1,0l0,0.2h0.1V113.2z M190.4,114.8L190.4,114.8
				l-0.2,0.1l-0.1,0.1h0.3L190.4,114.8z M190.3,110.6l0,0.1l0.1,0.1L190.3,110.6L190.3,110.6z M190.4,114L190.4,114l-0.1,0.2l0.1,0
				V114z M190.8,109.7l0-0.1l0.1-0.2l-0.1,0l-0.1,0l0,0.1L190.8,109.7z M190.8,111.9h-0.1l-0.1,0.1v0.1l0.2-0.1L190.8,111.9z
				 M190.9,112.9l0-0.1l-0.1-0.1l-0.2,0.1l0,0.1L190.9,112.9z M190.6,113.5l0,0.2l0.2,0.1h0.1v-0.2L190.6,113.5z M190.7,114.4
				L190.7,114.4h-0.1l0,0.1l0,0.1l0.1,0.1l0-0.2L190.7,114.4z M190.8,108.8L190.8,108.8l0.1-0.2l-0.2,0l-0.1,0v0.2L190.8,108.8z
				 M190.8,111.2l-0.1,0v0.1l0.1,0V111.2z M191.2,110.6l-0.1,0l-0.1,0.1l0,0.1l0.1,0L191.2,110.6L191.2,110.6z M191.2,111.8l0-0.2
				l0-0.1l-0.1,0l-0.1,0.1l0,0.2l0.1,0.1L191.2,111.8z M191.2,113.4v-0.3h-0.1l-0.1,0.1l0,0.1l0.1,0.1L191.2,113.4z M191,109.1
				l0,0.1l0.1,0.1v-0.1L191,109.1z M191,112.3l0.1,0.2l0.1,0l-0.1-0.2L191,112.3z M191.2,110l0-0.1l-0.1,0l-0.1,0.1L191.2,110
				L191.2,110z M191.1,114.1l0,0.1l0.1,0.1l0-0.2L191.1,114.1z M191.5,112.1L191.5,112.1l-0.1,0l0.1,0.1L191.5,112.1z M191.5,113
				L191.5,113L191.5,113L191.5,113z M191.5,114.7l0.2-0.1l-0.1-0.1h-0.1l-0.1,0.1v0.1L191.5,114.7z M191.4,111.4l0.1,0l-0.1-0.1
				L191.4,111.4z M191.5,110.4L191.5,110.4l-0.1,0.1h0.1L191.5,110.4z M191.6,111.9L191.6,111.9l-0.1,0L191.6,111.9L191.6,111.9z
				 M191.7,115.3L191.7,115.3l-0.2,0.1l0,0.1l0.1,0L191.7,115.3z M191.6,112.7l0,0.1l0,0.1l0.1,0L191.6,112.7L191.6,112.7z
				 M191.7,107.9l-0.1,0v0.1h0.1L191.7,107.9z M191.7,113.7h-0.1v0.1L191.7,113.7L191.7,113.7z M192.1,105.8l-0.1,0l-0.1,0.1
				L192.1,105.8L192.1,105.8z M192,106.5l-0.1,0l0,0.2l-0.1,0.1l0.2,0L192,106.5z M192,108.3L192,108.3l-0.1,0l0.1,0.1L192,108.3z
				 M192,110l-0.1,0.1h0.1L192,110z M192,112.5l0,0.1l0,0L192,112.5z M192.4,113.7L192.4,113.7l-0.1,0.1h0.2L192.4,113.7z
				 M192.5,114.7l0-0.2l-0.1,0l-0.1,0.1l0.1,0.1L192.5,114.7z M192.5,116.2L192.5,116.2l-0.1,0v0.1L192.5,116.2L192.5,116.2z
				 M192.4,115.3l0,0.1l0.1,0.1L192.4,115.3L192.4,115.3z M192.4,106.9v0.2l0.1,0.1L192.4,106.9L192.4,106.9z M192.5,112.1
				L192.5,112.1L192.5,112.1L192.5,112.1L192.5,112.1z M192.7,114.1l0,0.1l0.2,0l-0.1-0.1L192.7,114.1z M192.8,116.4L192.8,116.4
				L192.8,116.4L192.8,116.4L192.8,116.4z M193.3,107l-0.2-0.1l0,0.2L193.3,107L193.3,107z M193.2,116.2l0-0.1l-0.1,0l-0.1,0.2
				L193.2,116.2L193.2,116.2z M193.2,114.5l-0.1,0v0.1l0.1,0V114.5z M193.3,115.3L193.3,115.3l-0.1,0L193.3,115.3L193.3,115.3z
				 M193.3,116.9L193.3,116.9L193.3,116.9L193.3,116.9L193.3,116.9z M193.6,114.9L193.6,114.9L193.6,114.9L193.6,114.9L193.6,114.9z
				 M193.6,105.8L193.6,105.8L193.6,105.8L193.6,105.8z M193.8,106.5h-0.1v0.1h0.1V106.5z M193.8,116.6h-0.1v0.1L193.8,116.6
				L193.8,116.6z M194.2,116.3l0-0.1l-0.1,0l-0.1,0.1l0.1,0L194.2,116.3z M194.1,116.8l0,0.1l0,0.1l0.1,0L194.1,116.8L194.1,116.8z
				 M194.5,117.5l-0.1,0v0.1L194.5,117.5L194.5,117.5z"/>
			<path class="st0" d="M214.7,108.9l-0.5,0l-0.3,0l-0.2,0.1l-1-0.1l-1,0l-0.5-0.1l-0.1-0.2l0.1-0.1l-0.3-0.3l0-0.1l-0.2-0.1l0-0.2
				l-0.8-0.5l-0.3-0.1l-0.9-0.1l-0.2-0.1l0-0.1l0.1,0l0-0.1l-0.1-0.1l-0.1,0l-0.1,0.3l-0.5,0l-0.4,0.1l-0.4,0.2l-0.2,0.3l0,0.2
				l0.1,0.2l0.5,0.6l-0.1,0.1l0.1,0l0.1-0.1l0.4,0.2l0.4,0.2l0.3,0.2h0.3l0.2,0.1l0.9,0.3l0.3,0.2l0.3,0l0.2,0.2l0.5,0.2l0.9,0.4
				l0.8,0.5l0.3,0.2l0.1,0.2l0.2,0.2l0.3,0.2l0.5,0.8l0.2,0.2l0.2,0.4l0.2,0.7l0.2,0.4l0,0.2l0,0.5l0.1,0.2l-0.1,0.7l0.1,0.2
				l-0.2,0.4l-0.3,0.7l-1.1,1.2l-0.2,0.1l-0.2,0.1l-0.2,0.3h-0.1l-0.3,0.2h-0.3l-0.9,0.3l-0.9,0.2l-1,0.1h-1l-1-0.1l-1.8-0.4
				l-0.3-0.2l-0.5-0.1l-0.9-0.5l-0.7-0.6l-0.3-0.3l-0.1-0.2l-0.2-0.4l-0.2-0.2l-0.3-1.4l0-0.4l0-0.1l0.3-0.1l0.4,0h2.1l1,0.1
				l0.2,0.2l0.2,0.5l0.2,0.1l0.1,0.2l0.2,0l0.4,0.2l0.3,0l0.1,0.2l0.1,0.1l1.4,0l0.4-0.1l0.3,0l0.4-0.2l0.2-0.1l0.2-0.2l0.1-0.1
				v-0.1l-0.1-0.2l0-0.1h-0.2l0-0.2l-0.3-0.3l-0.4-0.1l-0.4-0.3l-0.4-0.2l-0.5-0.1l-0.3,0l-0.4-0.2l-1.9-0.7l-0.6-0.3l-0.2-0.1
				l-0.2,0l-0.3-0.3l-0.5-0.2l-0.7-0.6l-0.6-0.7l-0.3-0.4l-0.2-0.4l-0.2-0.5l0-0.1l0.1-0.1l-0.2-0.3l0-0.5l0-0.5l0.1-0.5l0.3-0.9
				l0.2-0.4l0.5-0.8l0.6-0.5l0.1,0l0.6-0.4l0.9-0.3l0.1-0.1l0.7-0.1l0.5-0.2h2l2,0.3l0.3,0.1l0.2,0.1l0.2,0l0.2,0.1l0.4,0.3l0.3,0
				l1.1,0.9l0.5,0.6l0.2,0.4l0.3,0.8l0.1,0.2l0.1,0.5v0.5l-0.1,0.4l-0.2,0.1L214.7,108.9z M204.3,107.2l-0.2-0.1l0,0.1l0.1,0.1v0.1
				l0.1,0L204.3,107.2z M204.5,107.8L204.5,107.8l0.1,0.1L204.5,107.8z M204.6,108.5L204.6,108.5l-0.1,0.1h0.1V108.5z M204.6,106.9
				L204.6,106.9l-0.1,0L204.6,106.9L204.6,106.9z M204.5,109.3l0,0.1l0.1,0l0-0.1H204.5z M204.6,110.3L204.6,110.3L204.6,110.3
				L204.6,110.3L204.6,110.3z M205,108.3l0.1,0v-0.2l0-0.1l-0.1,0l-0.1,0l0.1,0.2V108.3z M205,107.4L205,107.4L205,107.4L205,107.4
				L205,107.4z M205.1,109.7l-0.1,0l-0.1,0.1l0.1,0L205.1,109.7z M205,108.9l0,0.1l0.1,0.1l0-0.1L205,108.9z M205,107.1l0,0.1
				l0.1,0.1L205,107.1L205,107.1z M205.4,108.4h-0.1l0,0.1h0.1L205.4,108.4z M205.6,110.3v-0.1h-0.3v0.1l0,0.1L205.6,110.3
				L205.6,110.3z M205.5,105.9l-0.1,0l0.1,0.2l0.1,0l0-0.1L205.5,105.9z M205.5,109.4L205.5,109.4l-0.1,0l0.1,0.1L205.5,109.4z
				 M205.6,106.8L205.6,106.8l-0.1,0.1h0.1V106.8z M205.9,106.4l-0.1,0l-0.1,0.1L205.9,106.4L205.9,106.4z M205.9,109.8l0-0.2
				l-0.1,0l-0.1,0.1l0,0.1l0.1,0.1L205.9,109.8z M205.7,107.2l0.1,0.1l0.1-0.1l-0.1-0.1L205.7,107.2z M206,108.1l-0.2-0.1l0,0.1v0.1
				l0,0.1l0.1,0L206,108.1z M206.2,109.5h0.1l0.1-0.1l-0.2-0.1l-0.1,0l0,0.1L206.2,109.5z M206.3,106h-0.1v0.1l0.1,0V106z
				 M206.3,106.9l-0.1,0v0.1l0.1,0V106.9z M206.2,111.1h0.1l0,0v-0.1l0,0h-0.1l0,0L206.2,111.1L206.2,111.1z M206.2,117.6l0,0.1
				l0.1,0l0-0.1L206.2,117.6z M206.3,110.1l-0.1,0.1l0.1,0.1V110.1L206.3,110.1z M206.4,108.6l-0.1,0l0,0.1l0.1,0L206.4,108.6z
				 M206.4,116.8L206.4,116.8l-0.1,0.1h0.1L206.4,116.8z M206.7,110.5l-0.1,0l-0.1,0.1l0,0.1l0.1,0L206.7,110.5z M206.7,112.3l0-0.1
				l-0.2,0l0,0.2l0.1,0.1L206.7,112.3z M206.8,107.2l-0.1-0.1l-0.1,0.3l0.1,0.1l0.1-0.2V107.2z M206.8,108l-0.1,0l-0.1,0.1l0.1,0
				L206.8,108z M206.7,108.8l-0.1,0l0,0.1l0.2,0.1V108.8z M206.8,106.5l-0.1,0l0,0.1L206.8,106.5L206.8,106.5z M206.8,109.7h-0.1
				l0,0.1L206.8,109.7L206.8,109.7z M206.7,109.9L206.7,109.9L206.7,109.9L206.7,109.9L206.7,109.9z M206.8,111.5L206.8,111.5
				l-0.1,0.1h0.1V111.5z M206.8,105.6L206.8,105.6L206.8,105.6L206.8,105.6L206.8,105.6z M206.9,111.2l0.1,0l0.1-0.1l-0.2-0.1
				L206.9,111.2z M207.1,108.5L207.1,108.5l-0.1,0.1h0.1V108.5z M207.2,110.2L207.2,110.2l-0.2,0.2l0.2,0L207.2,110.2z M207.2,116.7
				h-0.1l0,0.1L207.2,116.7L207.2,116.7z M207.2,106.7l-0.1,0v0.2l0.2-0.1L207.2,106.7z M207.2,106.1l0-0.1l-0.1-0.1l-0.1,0.2l0,0.1
				l0.1,0L207.2,106.1z M207.4,110.5l-0.1,0.1l0,0.1l0.1,0.1l0.1-0.3H207.4z M207.6,109.7L207.6,109.7l-0.2-0.1l0,0.1l0,0.1l0.2,0
				L207.6,109.7z M207.5,118.1L207.5,118.1l-0.1,0L207.5,118.1L207.5,118.1z M207.5,117l0,0.1l0.1,0.1L207.5,117L207.5,117z
				 M207.7,109.1l-0.1,0l-0.1,0.1l0.1,0L207.7,109.1z M207.7,110.2L207.7,110.2l0.1,0.1l0.1-0.1l-0.2-0.1L207.7,110.2z M208,117.6
				l-0.1,0l-0.1,0.1l0.1,0L208,117.6z M207.8,111.7l0,0.1L207.8,111.7L207.8,111.7z M208,111L208,111L208,111L208,111z M208,112.5
				l-0.1,0l0,0.1L208,112.5L208,112.5z M208.3,116.3h-0.1l0,0.1L208.3,116.3L208.3,116.3z M208.4,112.2L208.4,112.2l-0.2-0.1v0.1
				l0,0.1L208.4,112.2L208.4,112.2z M208.4,117.1l-0.1,0l-0.1,0.1L208.4,117.1L208.4,117.1z M208.3,118.1l0.1,0l0-0.1l0-0.1l-0.2,0
				L208.3,118.1L208.3,118.1z M208.5,105.6l-0.1,0l0,0.1l0.1,0L208.5,105.6z M208.5,113.1h-0.1l0,0.1L208.5,113.1L208.5,113.1z
				 M208.5,110.7l0-0.1l-0.2,0l0,0.1L208.5,110.7z M208.5,111.4l-0.1,0v0.1l0,0.1l0.1,0L208.5,111.4L208.5,111.4z M208.6,116.8
				L208.6,116.8l0.1,0.1L208.6,116.8z M208.8,111.8L208.8,111.8h-0.2l0,0.1l0.2,0V111.8z M208.8,110.9L208.8,110.9l-0.1,0.1h0.1
				V110.9z M208.9,106.1l-0.1,0l0,0.1L208.9,106.1L208.9,106.1z M209.2,111.6l0.1-0.2l-0.1,0l-0.1,0l0,0.1L209.2,111.6z
				 M209.1,112.2l0,0.1h0.1L209.1,112.2z M209.2,113.8l-0.1,0l-0.1,0.1l0.1,0L209.2,113.8z M209.1,117.3L209.1,117.3l0.1,0.1
				L209.1,117.3L209.1,117.3z M209.3,110.6L209.3,110.6l-0.1,0l0,0.1l0.1,0L209.3,110.6z M209.4,105.2l0,0.1h0.2l-0.1-0.1
				L209.4,105.2z M209.7,111.1l-0.2-0.2l-0.1,0.1l0.3,0.1L209.7,111.1z M209.7,117.6l0-0.1l-0.2,0l0.1,0.1L209.7,117.6z
				 M209.5,106.7v0.1l0.1,0L209.5,106.7L209.5,106.7z M209.7,112.6L209.7,112.6l-0.1-0.2l-0.1,0v0.1H209.7z M209.7,106.1h-0.1v0.1
				L209.7,106.1L209.7,106.1z M210.2,105.6l-0.3-0.1l0,0.1v0.1l0.3,0.1L210.2,105.6z M209.9,112.9l0,0.1l0,0.1l0.2,0L209.9,112.9z
				 M210.1,113.7l-0.1,0l-0.1,0.1l0.2,0L210.1,113.7z M209.9,116.3l0,0.1l0.2,0.1l0-0.1L209.9,116.3z M210,117.1v0.1l0.1,0.1l0-0.1
				L210,117.1z M210.1,118.1L210.1,118.1L210.1,118.1L210.1,118.1z M210.3,113.4l0,0.1l0.1,0.1l0.2-0.1L210.3,113.4z M210.5,114.4
				l-0.2-0.2l0,0.1l0,0.1L210.5,114.4L210.5,114.4z M210.6,106.1l0-0.1l-0.1,0l-0.1,0.1l0.1,0.1L210.6,106.1z M210.3,106.7v0.1
				l0.1,0l0.1,0l0-0.1L210.3,106.7z M210.5,117.8L210.5,117.8l-0.1,0L210.5,117.8L210.5,117.8z M210.5,118.5L210.5,118.5l-0.1,0.1
				h0.1L210.5,118.5z M210.4,111.7l0,0.1h0.1l0-0.1L210.4,111.7z M210.4,118.4L210.4,118.4l0.1,0L210.4,118.4z M210.6,117.6
				L210.6,117.6L210.6,117.6L210.6,117.6L210.6,117.6z M210.7,112.1l0,0.1h0.1L210.7,112.1z M210.8,113.8l-0.1,0l0,0.1l0.1,0.1
				L210.8,113.8L210.8,113.8z M211,116.5l-0.1-0.1l-0.1-0.1l-0.1,0.1l0.1,0.1L211,116.5z M210.8,104.7h-0.1v0.1L210.8,104.7
				L210.8,104.7z M210.8,111.5l0.1-0.1l-0.2,0L210.8,111.5z M211,117.2h-0.1v0.1L211,117.2L211,117.2z M211.1,111.7l0,0.1l0.1,0.1
				L211.1,111.7L211.1,111.7z M211.2,115.1L211.2,115.1L211.2,115.1L211.2,115.1L211.2,115.1z M211.2,116.7l-0.1,0l0,0.1l0.1,0.1
				L211.2,116.7z M211.4,113.5l0-0.1h-0.1l-0.1,0.1l-0.1,0.1l0.1,0L211.4,113.5z M211.3,114.3l-0.1,0l-0.1,0.1l0.2,0L211.3,114.3z
				 M211.3,117.6L211.3,117.6l-0.1,0.1l0.1,0.1l0-0.1L211.3,117.6z M211.2,115.8L211.2,115.8l0.1,0.1L211.2,115.8z M211.6,115.6
				L211.6,115.6l-0.1,0.1L211.6,115.6L211.6,115.6z M211.8,105.6l-0.1,0l-0.1,0.1L211.8,105.6L211.8,105.6z M211.7,106.7
				L211.7,106.7l0.1-0.2l-0.2,0l0,0.1L211.7,106.7z M211.8,112.3l-0.1,0l-0.1,0.1l0.1,0L211.8,112.3z M211.8,115.4l-0.1,0l-0.1,0.1
				l0.1,0L211.8,115.4z M211.6,116.3l0,0.1l0.1,0l-0.1-0.1L211.6,116.3z M211.7,113.9L211.7,113.9l0.1,0.1L211.7,113.9L211.7,113.9z
				 M212.1,112.7L212.1,112.7l0-0.1l-0.1,0l-0.1,0.1l0.1,0L212.1,112.7z M212.1,115.1l0-0.1l-0.1,0l-0.1,0.1l0.1,0L212.1,115.1z
				 M212.2,116l-0.2-0.1l0,0.1v0.1l0.1,0L212.2,116z M212.1,113.4l-0.1,0l-0.1,0.1L212.1,113.4L212.1,113.4z M212,114.2l0.1,0.1
				l0.2,0l0-0.1L212,114.2z M212.2,116.8l-0.1,0l-0.1,0.1L212.2,116.8L212.2,116.8z M212.1,106.7H212v0.1l0.1,0V106.7z M212.2,111.9
				v-0.1l-0.1-0.1l-0.1,0.1l0,0.1L212.2,111.9L212.2,111.9z M212.1,117.6L212.1,117.6L212.1,117.6L212.1,117.6z M212.5,113.9l0-0.1
				h-0.1l-0.1,0l0,0.1L212.5,113.9z M212.4,116.4h-0.1v0.1L212.4,116.4L212.4,116.4z M212.7,112.9h-0.1l-0.1,0l-0.1,0.1l0,0.1
				l0.2,0.1L212.7,112.9z M212.5,114.9l0.1,0v-0.2l-0.1,0l-0.1,0l0.1,0.1L212.5,114.9z M212.3,115.5l0.1,0.1l0.1,0.1l-0.1-0.1
				L212.3,115.5z M212.6,106.4L212.6,106.4L212.6,106.4L212.6,106.4L212.6,106.4z M212.8,112.6v0.1V112.6L212.8,112.6z M213.1,113.5
				h-0.1l-0.1-0.2l-0.1,0.1l0,0.1l0,0.1h0.1L213.1,113.5z M213,115.3l0.1-0.1l-0.3-0.1l-0.1,0.1l0.1,0.2L213,115.3z M212.9,114.2
				l-0.1,0v0.1L212.9,114.2L212.9,114.2z M212.9,118.4L212.9,118.4l0.1,0L212.9,118.4z M213.1,114.2L213.1,114.2l-0.1,0.2l0.1,0
				L213.1,114.2z M213.3,114.8l0-0.1l-0.1-0.1l-0.1,0.2l0,0.1l0.1,0L213.3,114.8z M213.4,113L213.4,113l-0.1,0L213.4,113L213.4,113z
				 M213.2,116.5l0.2,0.1l-0.1-0.1L213.2,116.5z M213.3,114L213.3,114l0.1,0.1L213.3,114z M213.4,115.4l-0.1,0l0,0.2l0.1,0.1
				l0.1-0.1L213.4,115.4z M213.8,115.2l0-0.1h-0.1l-0.1,0.1l0,0.1L213.8,115.2L213.8,115.2z M213.9,114.3l-0.1,0l0,0.1L213.9,114.3
				L213.9,114.3z M213.7,115.9l0,0.1l0.1,0.1l0.1,0l0-0.1L213.7,115.9z M214.3,114.8L214.3,114.8l-0.1,0L214.3,114.8L214.3,114.8z"
				/>
			<path class="st0" d="M235.5,111.7l0,1.9v3.8l0,1.4l-0.1,0.7h-3.9l-0.1-0.2l0-0.3l0.1-0.4l-0.1-0.9l0.1-2.1l0-0.5l-0.1-0.4
				l0.1-0.4l0-0.3l-0.1-0.2l-0.2-0.2l-0.5,0.1l-0.1-0.1l0-0.1l-0.2,0.1H230l-0.4,0.1l-0.2-0.1l-1-0.1l-0.9,0l-0.1-0.1l-0.2,0.1
				l-0.2,0l-0.5,0l0-0.1l-0.3,0.1h-0.9l-0.2,0.1l-0.1,0.2l0,1l0,0.5l0,0.1l0.1,0.9l0,2.9l-0.1,0.2h-2.1l-1.8,0l-0.1-0.2l0-0.2
				l0.1-0.1l-0.1-0.1l0-1l0.1-1v-11.8l-0.1-0.7l0-0.5l0.1-0.2l3,0l1,0.1l0.1,0.2v1.1l0.1,0.6l-0.1,0.2v0.9l0,0.4l0.1,0.4l-0.1,0.3
				l0,0.5l0.1,0.4l0,0.2l0,0.6l0.1,0.2l0.2,0.1l0.5,0l0.1,0.1l0.1,0.1l0.1-0.1l0-0.1l0.1-0.1l0.9,0.1l0.8,0l0.4-0.1l0.2,0.1h1.6
				l1.3-0.1l0-0.1V109l0.1-0.3v-0.2l-0.1-0.5l0-2.9l-0.1-0.2l0-0.5l0.1-0.7l0.2,0l0.5,0l0.3-0.1l0.3,0.1l0.4-0.1h2.1l0.1,0.1l0.1,0
				l0,2V111.7z M221.4,113.7L221.4,113.7L221.4,113.7L221.4,113.7L221.4,113.7z M221.9,110.1L221.9,110.1l-0.2-0.1l-0.1,0.1l0.2,0.1
				L221.9,110.1z M221.8,110.9L221.8,110.9L221.8,110.9L221.8,110.9L221.8,110.9z M222.2,107l-0.2-0.1v0.1L222.2,107L222.2,107z
				 M222.4,113.8l-0.2-0.1l-0.1,0.1H222.4L222.4,113.8z M222.3,106.2L222.3,106.2l-0.1,0.1L222.3,106.2L222.3,106.2z M222.3,110.4
				L222.3,110.4l-0.1,0L222.3,110.4z M222.6,111.5L222.6,111.5l-0.1,0.1l0,0.1h0.2L222.6,111.5z M222.7,112.5l0.1-0.1h-0.2l-0.1,0.1
				l0,0.1l0.1,0L222.7,112.5z M222.7,114.1l0-0.1l-0.2,0.1l0,0.1L222.7,114.1L222.7,114.1z M222.7,109.8l-0.1,0l0,0.1v0.3l0.2-0.2
				L222.7,109.8z M222.8,107.4l-0.1,0v0.1h0.1L222.8,107.4z M222.8,109.1L222.8,109.1l-0.1,0L222.8,109.1L222.8,109.1z M222.8,113.2
				L222.8,113.2L222.8,113.2L222.8,113.2L222.8,113.2z M222.9,115.2l-0.1,0.2l0,0.1l0.1,0L222.9,115.2L222.9,115.2z M223.2,108.7
				l-0.2-0.1l-0.1,0l0,0.1l0,0.1L223.2,108.7L223.2,108.7z M223.1,112.9L223.1,112.9l0.1-0.2l-0.1-0.1H223l-0.1,0.1v0.1L223.1,112.9
				z M222.9,106.9l0,0.1l0.1,0.1l0-0.1L222.9,106.9z M222.9,111.1l0,0.1l0.1,0.1l0.1,0l-0.1-0.1L222.9,111.1z M223.2,110.3l-0.3,0
				l0.1,0.3l0.1,0l0-0.1L223.2,110.3z M223.2,113.8l0-0.1l-0.1-0.1l-0.1,0.3h0.2L223.2,113.8z M222.9,112l0,0.1l0.1,0V112H222.9z
				 M223.1,114.4l-0.1,0v0.1l0.1,0.1l0.1,0l0-0.1L223.1,114.4z M223.2,109.5L223.2,109.5l-0.2,0.1h0.2V109.5z M223.1,116.9
				L223.1,116.9l0,0.1l0.1,0L223.1,116.9L223.1,116.9z M223.1,107.8l0.1,0.1L223.1,107.8L223.1,107.8z M223.2,115.4L223.2,115.4
				L223.2,115.4L223.2,115.4L223.2,115.4z M223.4,109.1L223.4,109.1L223.4,109.1L223.4,109.1L223.4,109.1z M223.5,113.2l-0.1,0
				l-0.1,0.1l0.2,0.1L223.5,113.2z M223.5,114l-0.1,0l-0.1,0.1l0,0.1l0.3,0L223.5,114z M223.5,114.9l0.1-0.1l-0.1,0h-0.1l-0.1,0
				l0,0.1l0.1,0L223.5,114.9z M223.5,108.4l0-0.1l-0.1,0l-0.1,0.1l0,0.1L223.5,108.4L223.5,108.4z M223.4,110.9L223.4,110.9
				L223.4,110.9L223.4,110.9z M223.3,115.8v0.1l0.1-0.1L223.3,115.8z M223.6,112.5v-0.1l-0.1,0h-0.1l0,0.1l0,0.1L223.6,112.5
				L223.6,112.5z M223.6,106.5l-0.1,0l-0.1,0.1l0,0.1l0,0.1l0.1,0.1l0.1-0.1V106.5z M223.5,111.5l-0.1,0l0,0.1l0.1,0.1l0.1,0
				L223.5,111.5L223.5,111.5z M223.6,110v-0.1l-0.1-0.1l-0.1,0.3l0.1,0L223.6,110z M223.5,105.7L223.5,105.7l-0.1,0.1h0.1V105.7z
				 M223.5,107.3l0,0.1l0.1,0.1L223.5,107.3L223.5,107.3z M223.9,108.8l0.1-0.1l0-0.1l-0.2,0l-0.1,0.1l0,0.1l0.1,0H223.9z
				 M223.8,109.5l-0.1-0.1l0,0.1l0.2,0.1L223.8,109.5z M223.9,112.1L223.9,112.1l0.1-0.1l-0.1-0.1l-0.2,0.1l0,0.1l0.1,0L223.9,112.1
				z M223.8,111l-0.1,0.2l0.1,0.1V111L223.8,111z M223.8,108l0.3-0.1l0-0.1l-0.1-0.1l-0.1,0L223.8,108L223.8,108z M224,110.5l0-0.1
				v-0.1l0-0.1h-0.2l0.1,0.1l0.1,0.1l-0.1,0.1L224,110.5z M224,113.7l0-0.1l-0.1,0l-0.1,0.1l0,0.1l0.1,0L224,113.7z M223.9,112.7
				l0,0.1l0.1,0l0-0.1L223.9,112.7z M224,112.9L224,112.9l-0.1,0.1L224,112.9L224,112.9z M224,114.5L224,114.5L224,114.5L224,114.5
				L224,114.5z M224.4,110.9l0-0.1l-0.1-0.2l-0.1,0.2v0.1l0.1,0.1L224.4,110.9z M224.3,111.6l0.1-0.1l-0.1-0.1l-0.1,0l-0.1,0.1
				l0,0.2l0.1,0L224.3,111.6z M224.3,112.6L224.3,112.6l0.1-0.2l-0.2,0l0,0.1l0.1,0.2L224.3,112.6z M224.5,113.2l-0.3-0.1l0,0.1
				l0,0.1l0.3-0.1L224.5,113.2z M224.2,109l0.1,0.1l0.1,0.1l0.1-0.1l-0.1-0.1L224.2,109z M224.5,110.1l-0.1-0.2l-0.1-0.1h-0.1l0,0.1
				v0.2H224.5L224.5,110.1z M224.3,114.2h-0.1v0.1h0.1V114.2z M224.6,110.2l-0.1,0l0,0.1l0.1,0L224.6,110.2z M224.5,111.2l0.1,0
				l0.1-0.1l0.1-0.1h-0.3L224.5,111.2z M224.7,108.6L224.7,108.6l-0.1,0l0.1,0.1L224.7,108.6z M224.7,113.7l0.1-0.1L224.7,113.7
				L224.7,113.7z M224.7,111.9L224.7,111.9l0,0.2l0.1-0.1L224.7,111.9z M224.8,114.4h-0.1v0.1L224.8,114.4L224.8,114.4z
				 M225.1,109.9l0,0.1l0.1,0.1l0-0.1L225.1,109.9z M225.2,110.6l-0.1,0v0.1L225.2,110.6L225.2,110.6z M225.2,112.5L225.2,112.5
				l-0.1,0.1l0.1,0L225.2,112.5z M225,113.3l0,0.1l0.1,0l0-0.1L225,113.3z M225.2,111.5l-0.1,0v0.3l0.1-0.1L225.2,111.5z
				 M225.6,112.1l0.1-0.1l-0.2-0.1l-0.1,0l0,0.1l0.1,0L225.6,112.1z M225.5,111.2l0,0.1l0.1,0.1L225.5,111.2L225.5,111.2z
				 M226.1,111.7L226.1,111.7l-0.2-0.2l-0.1,0.1l0,0.1l0.1,0L226.1,111.7z M225.8,112.3l0,0.1l0.1,0l0.1,0l-0.1-0.1L225.8,112.3z
				 M226.5,112.1l0-0.1l-0.2,0.1l0,0.1h0.1L226.5,112.1z M226.4,110.4L226.4,110.4l0.1,0L226.4,110.4z M226.8,113.3L226.8,113.3
				L226.8,113.3L226.8,113.3z M227,110.8L227,110.8l-0.1,0L227,110.8L227,110.8z M226.9,112.5l-0.1,0v0.1l0.1,0V112.5z M226.9,111.6
				L226.9,111.6l-0.1,0.1l0.1,0.1l0-0.1L226.9,111.6z M227.2,111.3h-0.1v0.1h0.1V111.3z M227.7,112.5v-0.1l-0.1,0l-0.1,0.1l0,0.1
				L227.7,112.5L227.7,112.5z M227.7,111.6L227.7,111.6l-0.2,0.1l0.1,0L227.7,111.6z M228.1,111.9l-0.1,0l-0.1,0.1L228.1,111.9
				L228.1,111.9z M228.1,111.3l0.1,0L228.1,111.3L228.1,111.3z M228.5,111.5l0,0.1l0.1,0.1v-0.1L228.5,111.5z M228.6,112.4h-0.1v0.2
				l0.1,0L228.6,112.4z M229.3,111.5l-0.1-0.1l0,0.1l0.1,0.2l0.1,0l0-0.1L229.3,111.5z M229.4,112.3h-0.1v0.1h0.1L229.4,112.3z
				 M229.8,112.2l0.1-0.2l-0.2,0l0,0.1L229.8,112.2z M229.8,112.9L229.8,112.9l-0.1,0.1L229.8,112.9L229.8,112.9z M230,111.7l0.1,0
				l0.1-0.1l0-0.1l-0.1-0.1l0,0.1l-0.1-0.1L230,111.7z M230.5,112L230.5,112L230.5,112L230.5,112z M230.6,112.2l0.1-0.1l0-0.1
				l-0.1,0l-0.2,0.1l0,0.1H230.6z M230.6,112.8l-0.1-0.1l0,0.1l0,0.1l0.1,0.1l0.1-0.1L230.6,112.8z M231,112.6l0.1-0.2l-0.1,0
				l-0.1,0l-0.1,0.1l0,0.1L231,112.6z M231,110.8l-0.1,0l0,0.1l0.1,0L231,110.8z M231,111.7l-0.1,0l0,0.1L231,111.7L231,111.7z
				 M231.4,111.1l-0.1,0l-0.1,0.1L231.4,111.1L231.4,111.1z M231.5,110.3l0,0.1l0.1,0.1l0.1-0.1L231.5,110.3z M231.7,109.1l0,0.1
				l0.1,0l0-0.2L231.7,109.1z M231.8,112.4l-0.1,0l0,0.1l0,0.1l0.2,0L231.8,112.4z M231.8,108.3h-0.1v0.1h0.1V108.3z M231.9,109.8
				l-0.1,0l0,0.2l0.1,0.1L231.9,109.8L231.9,109.8z M231.9,111.4L231.9,111.4l-0.1,0.1l0.2,0L231.9,111.4z M232.2,109.6l0.1-0.1
				l0-0.1l-0.1,0l-0.1,0l-0.1,0.1l0,0.1l0.1,0L232.2,109.6z M232.2,110.3l-0.1,0l0,0.1l0,0.1l0.2-0.1L232.2,110.3z M232.1,111.4
				l0.1,0.1L232.1,111.4l0.2-0.3l-0.1-0.1l-0.1,0.1v0.1L232.1,111.4z M232.1,114.4H232v0.1L232.1,114.4L232.1,114.4z M232.2,112.7
				L232.2,112.7l-0.1,0.1L232.2,112.7L232.2,112.7z M232.2,114.5v0.1V114.5L232.2,114.5z M232.5,111.8l0.3,0l0-0.1l-0.1-0.1
				l-0.1-0.1l-0.2,0.2l0.1,0V111.8z M232.6,114.3l0.1-0.2l-0.3-0.1l-0.1,0.1l0.1,0L232.6,114.3z M232.7,115.1l0.1-0.2l-0.1-0.1
				l-0.1,0l-0.1,0l-0.1,0.2l0.2,0.1H232.7z M232.5,109.8v0.1V109.8L232.5,109.8z M232.5,110.6l0,0.1l0,0.1l0.1,0.1l0-0.3
				L232.5,110.6z M232.7,112.4L232.7,112.4l-0.1-0.1l-0.1,0.1l0,0.1h0.2V112.4z M232.6,117.5L232.6,117.5l-0.1,0L232.6,117.5
				L232.6,117.5z M232.6,108.9l0,0.1l0.1,0.1l0-0.1L232.6,108.9z M232.8,109.9l-0.1,0l0,0.3l0.1,0L232.8,109.9z M233,107.8
				L233,107.8l-0.2,0.1l0.3,0.1L233,107.8z M233,112l-0.1,0l0,0.1l0.1,0.1l0.1-0.1L233,112z M233.1,114.4l-0.1,0l-0.1,0.1v0.1
				l0.1,0.1l0.1,0l0-0.2L233.1,114.4z M233,111.1l-0.1,0l0,0.1L233,111.1L233,111.1z M233,111.2L233,111.2l-0.1,0.1h0.1V111.2z
				 M232.9,112.8l-0.1,0.1l0,0.1l0.1,0l0-0.3L232.9,112.8z M233.1,113.8l0.1-0.1l0-0.1l-0.1-0.1l-0.1,0l0.1,0.3L233.1,113.8z
				 M233.1,115.3l-0.2,0.1l0,0.1l0.2-0.1L233.1,115.3z M233.1,107l-0.2,0l0,0.2l0.1,0L233.1,107z M232.9,109.5l0,0.1l0.1,0.1
				L232.9,109.5L232.9,109.5z M233,116.1h-0.1v0.1L233,116.1L233,116.1z M233,108.6l0.1,0.1l0.1,0l0-0.1L233,108.6z M233.1,110.5
				l0-0.1L233.1,110.5L233.1,110.5L233.1,110.5z M233.6,113.3l-0.1-0.1l-0.2,0l-0.1,0.1l0.2,0L233.6,113.3z M233.4,115.7h-0.1v0.1
				h0.1V115.7z M233.3,108.2v0.1l0.1,0.1l0.1,0v-0.3H233.3z M233.5,110.1l0.1-0.1l0-0.1l-0.1-0.1l-0.1,0.1v0.1l0.1,0H233.5z
				 M233.5,114.1l0-0.1l-0.1,0l-0.1,0l0.1,0.1L233.5,114.1z M233.3,105.7v0.1l0.1,0v-0.2L233.3,105.7z M233.6,111.5l-0.2,0l0,0.2
				l0.1,0.1l0.1-0.1L233.6,111.5z M233.5,106.6l0-0.1l-0.1,0l-0.1,0.1H233.5L233.5,106.6z M233.5,115.9L233.5,115.9l-0.1,0.1
				L233.5,115.9L233.5,115.9z M233.5,115L233.5,115L233.5,115L233.5,115L233.5,115z M233.8,113.9l0.1,0l0.1-0.1l-0.2-0.1l-0.1,0
				l0,0.1L233.8,113.9z M233.9,111.9l-0.1,0l-0.1,0.1v0.1l0.1,0.1l0.1,0L233.9,111.9L233.9,111.9z M234,114.6l-0.3-0.2l0,0.1
				l0.1,0.1L234,114.6L234,114.6z M233.7,107.9l0,0.1h0.2l-0.1-0.1L233.7,107.9z M233.9,110.4h0.1l0-0.1l-0.2-0.1l-0.1,0l0.1,0.1
				L233.9,110.4z M233.7,111.3l0,0.1l0.1,0l0-0.1L233.7,111.3z M234,112.9l0-0.1l-0.2-0.1l-0.1,0.1L234,112.9L234,112.9z
				 M233.8,108.6l0.1,0L233.8,108.6L233.8,108.6z M233.9,116.2L233.9,116.2l-0.1,0.1l0.1,0.1l0-0.1L233.9,116.2z M234.4,111.7l0-0.1
				l-0.1,0l-0.1,0l0.1,0.1L234.4,111.7z M234.2,115.8l0-0.1l-0.1,0.1v0.1L234.2,115.8z M234.2,109.7l0,0.2l0.1,0.1l0.1-0.2
				L234.2,109.7z M234.4,107.5h-0.1l-0.1,0.1l0.1,0L234.4,107.5z M234.3,112.5L234.3,112.5L234.3,112.5L234.3,112.5L234.3,112.5z"/>
			<path class="st0" d="M257.7,113l-0.4,1.5l-0.2,0.4l-0.2,0.3l-0.1,0.3l-1.2,1.6l-0.2,0.2l-0.4,0.3l-0.1,0.2l-0.3,0.3l-0.6,0.3
				l-0.3,0.3l-0.8,0.5l-1,0.3l-1.4,0.3l-0.3,0L250,120l-1,0l-1.7-0.2l-0.4-0.2l-0.5-0.1l-1.1-0.5l-0.2-0.2l-0.1,0l-0.1,0l-1.4-1.3
				l-1-1.1l0-0.2l-0.2-0.2l-0.4-0.8l-0.4-0.9l-0.4-1.4l-0.1-0.2l0-0.2l0-1.5l0.1-1l0.1-0.5l0.2-0.4l0.1-0.2l0-0.3l0.3-0.4l0.4-0.9
				l0.4-0.6l0.3-0.3l0.1-0.2l1.1-1l0.2-0.2l0.4-0.2l0.6-0.4l0.7-0.3l0.2-0.1l0.3,0l0.2-0.1l0.2,0l0.1-0.1l0.6-0.2l0.1-0.1l2-0.1
				l1,0.1l1,0.2l1.3,0.4l0.2,0.2l0.6,0.3l0.4,0.3l0.4,0.2l0.3,0.4l0.4,0.3l0.7,0.7l0.6,0.8l0.5,0.9l0.4,0.9l0.2,0.7l0,0.5l0.1,0.4
				l-0.1,0.4l0.1,0.3l0,0.7l0.1,0.2l-0.2,0.5V113z M242.6,110.3l0-0.1l-0.1,0l-0.1,0.2l0.3,0.1L242.6,110.3z M242.5,112.8l-0.1,0
				l0,0.1l0,0.1l0.2,0.1L242.5,112.8z M242.5,111.1l0,0.2l0.1-0.1L242.5,111.1z M243,111.7v-0.2l-0.2,0.1l-0.1,0.1v0.1L243,111.7
				L243,111.7z M243,109.2L243,109.2l-0.2-0.1v0.2h0.1L243,109.2z M243.3,111.1L243.3,111.1l-0.1,0.1l0,0.1l0.1,0L243.3,111.1
				L243.3,111.1z M243.3,111.9h-0.1v0.1L243.3,111.9L243.3,111.9z M243.4,114.4l-0.1,0l-0.1,0.1l0.2,0.1L243.4,114.4z M243.4,109.4
				L243.4,109.4L243.4,109.4L243.4,109.4L243.4,109.4z M243.6,108.3L243.6,108.3L243.6,108.3L243.6,108.3L243.6,108.3z M243.6,109.1
				l0,0.1l0.1,0.1L243.6,109.1L243.6,109.1z M243.8,114l-0.1-0.1l-0.1,0.1v0.1l0.1,0.1L243.8,114z M243.8,107.3l-0.2,0l0,0.1l0,0.2
				l0.2-0.1L243.8,107.3z M243.8,109.8l-0.1-0.1l0,0.1l0,0.1l0.1,0.1l0.1,0l0-0.1L243.8,109.8z M243.6,111.5l0,0.2l0.1-0.1
				L243.6,111.5z M243.8,113.2l-0.1-0.1l-0.1,0.1l0,0.1l0.2-0.1L243.8,113.2z M243.8,115.7l-0.1,0v0.2l0.1,0.1l0.1,0.1l0-0.2
				L243.8,115.7z M243.8,109l-0.1,0.1l0.1,0h0.1L243.8,109z M243.8,108.3L243.8,108.3h0.2l-0.2-0.1V108.3z M244.1,108.6L244.1,108.6
				l-0.1,0.1h0.1V108.6z M244.1,113.7v0.1V113.7L244.1,113.7z M244.2,107L244.2,107l-0.1,0.2l0.1-0.1L244.2,107z M244.2,107.8v0.1
				l0.1,0.1l0-0.1L244.2,107.8z M244.3,112.9L244.3,112.9L244.3,112.9L244.3,112.9L244.3,112.9z M244.7,108.3l-0.1-0.1l-0.1,0
				l-0.1,0l-0.1,0.1l0.3,0L244.7,108.3z M244.5,112.4l-0.1,0l0,0.1l0.1,0L244.5,112.4z M244.6,107.4l0-0.1h-0.1l0,0.2l0,0.1l0.1-0.1
				L244.6,107.4z M244.5,109.1L244.5,109.1L244.5,109.1L244.5,109.1L244.5,109.1z M244.6,109.9L244.6,109.9l-0.1-0.1l-0.1,0l0,0.1
				L244.6,109.9z M244.6,106.5l0,0.1l0.1,0l0.1,0l0-0.1L244.6,106.5z M244.7,115.7l0,0.1l0.1,0L244.7,115.7z M244.7,109.1
				L244.7,109.1L244.7,109.1L244.7,109.1L244.7,109.1z M244.9,107.1l0.1,0L244.9,107.1l-0.1-0.1l0,0.1H244.9L244.9,107.1z
				 M245,108.6l-0.1,0l-0.1,0.1l0.1,0L245,108.6z M244.9,113.7l0,0.1l0.1,0.1L244.9,113.7L244.9,113.7z M245.1,116.9L245,117l0.1,0
				L245.1,116.9z M249.4,107.4l-0.2,0.1l-0.1,0.1l-0.2-0.1h-0.1l-0.5,0.1H248l-0.1,0.1l-0.4,0.1l-0.6,0.3l-0.1,0.3l-0.1,0.1h-0.2
				l-0.8,0.8l0.1,0.1l0.1,0.1l-0.3,0.3l-0.2,0.4l-0.1,0.5l0,0.4l-0.2,0.4l0,0.2l0.1,0.6l0,0.3l0.2,0.5l0.2,0.2l0,0.2l0.7,1l0.1,0.3
				l0.2,0.1l0.1,0.1l0.2,0.1h0.1l0.1,0.3l0.9,0.4l1,0.2l0.5,0l0.7-0.1l0.2-0.1l0.3,0.1l0.4-0.2l0.5-0.2l0.8-0.6l0.5-0.5l0.1-0.4
				l0.2-0.4v-0.4l0.2-0.2l0.1-0.5l0-1.6l-0.1-0.2l-0.1-0.4l-0.2-0.4l-0.6-0.8l-0.9-0.8h-0.2l0-0.1l-0.2-0.1l-0.3,0l-0.1-0.2
				l-0.2-0.1l-0.5-0.1l-0.1-0.1l-0.2,0L249.4,107.4z M245.1,115.3L245.1,115.3L245.1,115.3L245.1,115.3L245.1,115.3z M245.2,115.7
				l0,0.1l0.1,0l0-0.2H245.2z M245.3,107.5L245.3,107.5l0.1-0.1l0-0.1l-0.1-0.1l-0.1,0.1L245.3,107.5L245.3,107.5z M245.4,106.7
				L245.4,106.7l-0.1,0L245.4,106.7L245.4,106.7z M245.6,117.3l-0.1,0l-0.1,0.1l0.2,0.1L245.6,117.3z M245.7,106.2l0,0.1h0.1l0-0.1
				H245.7z M245.7,117l0,0.1l0.1,0.1h0.1l0-0.1L245.7,117z M246,117.8L246,117.8l-0.1,0L246,117.8L246,117.8z M246.2,105.9l0.1-0.1
				l-0.1-0.1l-0.1,0L246.2,105.9L246.2,105.9z M246.2,106.5L246.2,106.5l0,0.1h0.1L246.2,106.5z M246.3,115.8l0-0.1l-0.1-0.1
				l-0.1,0.1v0.1H246.3z M246.3,116.5h-0.1l-0.1,0.1l0,0.1l0,0.1l0.1,0L246.3,116.5z M246.1,107.3l0,0.2l0.1,0v-0.2H246.1z
				 M246.8,105.4l-0.3-0.1l0,0.2L246.8,105.4L246.8,105.4z M246.6,107.1h-0.1v0.1L246.6,107.1L246.6,107.1z M246.6,117l0,0.1
				l0.1,0.1l0.1-0.2L246.6,117z M246.9,105.8l0,0.1l0.1,0l0-0.1L246.9,105.8z M246.9,117.4L246.9,117.4l0.1,0.1l0.2-0.2L246.9,117.4
				z M247.1,106.6l-0.1,0v0.1h0.1L247.1,106.6z M247,116.6l0.1,0.1l0.1,0l0-0.1L247,116.6z M247.6,106.3l0-0.1l-0.1-0.1h-0.1
				l0.1,0.3L247.6,106.3L247.6,106.3z M247.9,105.9L247.9,105.9l0.1-0.1v-0.1l-0.2,0l-0.1,0.1l0,0.2L247.9,105.9L247.9,105.9z
				 M247.9,107.4l-0.1,0L247.9,107.4L247.9,107.4L247.9,107.4z M248,106.5l-0.1-0.1l0,0.2L248,106.5L248,106.5z M247.9,117.5
				L247.9,117.5l0.1,0.1L247.9,117.5z M248.2,106.1l0,0.1l0.1,0l0-0.1L248.2,106.1z M248.5,117.1l-0.2-0.2l-0.1,0l0,0.2l0.2,0
				L248.5,117.1z M248.4,105.3h-0.1l0,0.1l0.1,0l0.1,0L248.4,105.3L248.4,105.3z M248.9,117.5l-0.1,0l-0.1,0.1L248.9,117.5
				L248.9,117.5z M248.8,118.1L248.8,118.1l-0.1,0.1l0,0.1l0.1,0.1L248.8,118.1L248.8,118.1z M249.1,105.2l0-0.1L249.1,105.2
				L249.1,105.2L249.1,105.2z M249.3,105.5l0-0.1l-0.2,0.1l-0.1,0.1l0.1,0L249.3,105.5z M249.2,104.5L249.2,104.5l-0.1,0l0.1,0.1
				L249.2,104.5z M249.5,105.8l0.1-0.2h-0.2l-0.1,0l0,0.1L249.5,105.8z M249.7,117.4L249.7,117.4l-0.1,0.2h0.1V117.4z M250,106.1
				l-0.1,0l-0.1,0.1l0.1,0L250,106.1z M249.9,118.6L249.9,118.6l0.1,0.1L249.9,118.6L249.9,118.6z M250,116.9h-0.1v0.2l0.1-0.1
				L250,116.9z M250,104.5l0.1,0.1L250,104.5L250,104.5z M250.4,105.1l-0.1,0v0.1L250.4,105.1L250.4,105.1z M250.5,105.7l-0.1,0
				l-0.1,0.1L250.5,105.7L250.5,105.7z M250.7,105.4l0.1,0l0.1,0l0-0.1h-0.3L250.7,105.4z M251.3,105.6h-0.1v0.1l0.1,0.1h0.1
				L251.3,105.6L251.3,105.6z M251.2,106.7l0,0.1l0.1,0.1L251.2,106.7L251.2,106.7z M251.3,118.4L251.3,118.4l-0.1,0L251.3,118.4
				L251.3,118.4z M251.4,116.6h-0.1v0.1L251.4,116.6L251.4,116.6z M251.5,116.3L251.5,116.3l-0.1,0.1l0.1,0L251.5,116.3z
				 M251.4,117.9l0,0.1l0.2,0.1l0-0.1L251.4,117.9z M251.7,106.1l-0.1,0l0,0.2l0.1,0l0-0.1L251.7,106.1z M251.8,105.3L251.8,105.3
				L251.8,105.3L251.8,105.3L251.8,105.3z M251.9,105.6v0.1l0.1,0v-0.1L251.9,105.6z M252.1,105.9L252.1,105.9L252.1,105.9
				L252.1,105.9L252.1,105.9z M252,106.7l0,0.1l0.1,0l0-0.1H252z M252.5,107.1l0-0.1l-0.1,0l-0.1,0l0.1,0.1L252.5,107.1z
				 M252.5,116.2l-0.1,0.1l0.1,0h0.1L252.5,116.2z M252.9,107.3L252.9,107.3l-0.1,0.2l0.1-0.1L252.9,107.3z M252.9,106.8l0.1-0.1
				l-0.2,0L252.9,106.8z M253,105.9L253,105.9l-0.1,0.1h0.1L253,105.9z M253.3,117.1l0-0.1h-0.1l-0.1,0l0,0.1L253.3,117.1z
				 M253.2,116.3l0.1,0v-0.3l-0.2,0l0,0.1L253.2,116.3z M253.2,115.3l0,0.1l0.2,0.1l0.1-0.2L253.2,115.3z M253.3,107L253.3,107
				l0.1-0.1l-0.2-0.1L253.3,107z M253.4,117.8L253.4,117.8l0,0.2L253.4,117.8L253.4,117.8z M253.5,107.8L253.5,107.8l-0.1,0.1l0.1,0
				L253.5,107.8z M253.8,116.6l0-0.1l-0.2,0.1l-0.1,0.1l0.1,0L253.8,116.6z M253.7,115.9l0.1-0.1v-0.1l-0.1-0.1l-0.1,0.2l0.1,0.1
				L253.7,115.9z M253.7,114l-0.1,0.1L253.7,114L253.7,114z M253.8,111.5l-0.1,0l0,0.1l0.1,0L253.8,111.5z M253.8,106.7L253.8,106.7
				L253.8,106.7L253.8,106.7L253.8,106.7z M254.2,107.8l-0.2-0.1l0,0.1l0.1,0.1l0.1,0l0.1-0.2L254.2,107.8z M254.1,109.6
				L254.1,109.6L254.1,109.6L254.1,109.6L254.1,109.6z M254.3,110.3l-0.1-0.1l-0.1,0l-0.1,0.1l0.2,0.2V110.3z M254,112.9l0,0.1
				l0.1,0l-0.1-0.1L254,112.9z M254.2,108.6h-0.1l0,0.1h0.2L254.2,108.6z M254.2,114.6l0.1,0l0-0.1l-0.1-0.1l-0.1,0l0,0L254.2,114.6
				L254.2,114.6z M254.2,113.6l0.1,0L254.2,113.6L254.2,113.6z M254.6,110.8l0-0.1l-0.1,0v0.3L254.6,110.8L254.6,110.8z
				 M254.5,112.4v0.1V112.4L254.5,112.4z M254.6,115.9L254.6,115.9l-0.1,0l0.1,0.1L254.6,115.9z M254.6,116.6l0,0.1l0.1,0.1l0.2-0.1
				L254.6,116.6z M255,111.9l-0.2,0l-0.1,0.1v0.1l0.1,0L255,111.9z M254.9,112.9L254.9,112.9l-0.1,0L254.9,112.9L254.9,112.9z
				 M255,115.6l0.1-0.1l0-0.1l-0.2-0.1l0,0.1l-0.2,0l0,0.1L255,115.6z M254.8,107.7l0,0.1l0.1,0.1L254.8,107.7L254.8,107.7z
				 M254.9,113.7L254.9,113.7l-0.2,0.1l0,0.1l0.1,0L254.9,113.7z M254.8,114.5l0,0.1l0.1,0.1l0.1,0v-0.1L254.8,114.5z M255,108.8
				l0-0.1h-0.1l-0.1,0.1l0.1,0H255z M255,109.4l-0.1,0.1l0.2,0L255,109.4z M255.1,110.5L255.1,110.5l-0.1,0L255.1,110.5L255.1,110.5
				z M255.1,114.4L255.1,114.4L255.1,114.4L255.1,114.4L255.1,114.4z M255.1,111.2l0,0.1h0.1L255.1,111.2z M255.5,109.9l-0.1-0.1
				l-0.1,0l-0.1,0.1l0,0.1l0.1,0.1L255.5,109.9z M255.5,114.9L255.5,114.9l-0.2,0l0,0.1l0.2,0L255.5,114.9z M255.5,112.5l0-0.1h-0.1
				l-0.1,0.1l0,0.1L255.5,112.5L255.5,112.5z M255.5,110.6L255.5,110.6l-0.1,0L255.5,110.6L255.5,110.6z M255.4,114h-0.1v0.1
				L255.4,114L255.4,114z M255.7,108.6L255.7,108.6l-0.1,0.1l0.1,0L255.7,108.6z M255.8,111.4l0-0.2l0.1-0.1l-0.3,0.1L255.8,111.4
				L255.8,111.4z M255.8,111.9l0,0.1l0.1,0l0-0.1L255.8,111.9z M255.9,110.4L255.9,110.4l-0.1,0.1h0.1V110.4z"/>
			<path class="st0" d="M265.4,119.7l-0.2-0.1l-1.1,0l-0.8,0l-0.2-0.1l-0.1-2l0-2v-7.9l0-1.9v-1.6l0.1-0.3l1.9,0l1.3,0l0.3-0.1
				l0.2,0.1h1l0.8-0.1l0.3-0.1l0.2,0.1l0.5,0l0.8,0l0.1-0.1l0.1,0.1h0.3l0.1,0l0.4,0.1l0.5,0l0.5,0.1l1.9,0.8l0.1,0.2l0.7,0.7l0.7,1
				l0.3,0.7v0.2l0.2,0.3l0.1,0.2l0.1,1l0,0.7l-0.1,1l-0.2,1l-0.2,0.8l-0.1,0.2l-0.2,0.4l-0.3,0.4l-0.7,0.8l-0.8,0.8h-0.1l-0.2,0.1
				l-0.2,0.2l-0.3,0l-0.6,0.3l-0.5,0.1l-0.4,0.1H271l-0.2,0.1h-0.2l-0.2-0.1l-0.9,0.1l-1,0l-1,0.1l-0.1,0.2l-0.1,0.5l0.1,1v1
				l-0.1,0.8l-1,0.1L265.4,119.7z M263.9,106.5l-0.2,0l-0.1,0.1l0.2,0.1L263.9,106.5z M263.8,109.9l-0.1,0v0.1L263.8,109.9
				L263.8,109.9z M264,116.6L264,116.6l-0.1,0.1h0.1L264,116.6z M263.8,113.3l0.1,0.1L263.8,113.3L263.8,113.3z M264.2,107
				L264.2,107l-0.1,0L264.2,107L264.2,107z M264.3,114.7l0-0.1l-0.1,0l-0.1,0.1l0.1,0.1H264.3z M264.2,117l0,0.1l0.1,0.1L264.2,117
				L264.2,117z M264.2,109.6L264.2,109.6l-0.1-0.1L264.2,109.6z M264.2,111.1l0,0.1l0.1,0l0-0.1L264.2,111.1z M264.4,115.5
				L264.4,115.5l0.1-0.2l-0.3,0l0,0.1L264.4,115.5z M264.4,113.8L264.4,113.8l-0.1,0L264.4,113.8L264.4,113.8z M264.8,111.5l-0.2,0
				l0,0.1L264.8,111.5L264.8,111.5z M264.8,113.3l0-0.1l-0.2,0l-0.1,0l0,0.1l0.2,0L264.8,113.3z M264.7,109.3v-0.2l-0.1-0.1l-0.1,0
				l0,0.2L264.7,109.3z M264.6,114L264.6,114L264.6,114L264.6,114z M264.6,115.8v0.1l0.1,0.1l0.1,0l0-0.1L264.6,115.8z M264.8,112.6
				L264.8,112.6l0-0.2l-0.1,0l0,0.1L264.8,112.6z M264.8,107.4L264.8,107.4l-0.1,0l0.1,0.1L264.8,107.4z M264.8,110l-0.1,0l0,0.1
				l0.1-0.1L264.8,110z M264.8,110.7L264.8,110.7l-0.1,0.2l0.1,0l0-0.1L264.8,110.7z M265.2,110.2H265l-0.1,0l0,0.1l0.2,0
				L265.2,110.2z M265.1,116.4L265.1,116.4l0-0.2l-0.1-0.1l-0.1,0l0,0.2H265.1z M265,107.9l0,0.1l0.1,0l-0.1-0.2L265,107.9z
				 M265.2,105.4l-0.1-0.1l-0.1,0.1v0.1L265.2,105.4z M265.2,108.7l-0.1,0.1l0.1,0L265.2,108.7z M265.3,112.1l0-0.1l-0.1,0l-0.1,0.2
				l0.1,0L265.3,112.1z M265.1,112.8l-0.1,0.1l0.1,0.1l0-0.1L265.1,112.8z M265,113.5v0.1l0.1,0.1l0.1,0l0-0.3H265z M265.3,114.7
				v-0.1l-0.1,0l-0.1,0.2h0.1L265.3,114.7z M265.3,115.3L265.3,115.3l-0.2-0.1l0,0.1l-0.1,0.1l0,0.1l0.1,0L265.3,115.3z
				 M265.2,117.9L265.2,117.9L265.2,117.9L265.2,117.9L265.2,117.9z M265.3,111.2l-0.1,0l0,0.1v0.1l0.1,0L265.3,111.2z M265.5,106.5
				L265.5,106.5l-0.2,0.1l0.1,0L265.5,106.5z M265.6,109.8L265.6,109.8l-0.2,0l-0.1,0.1l0,0.1l0.4-0.1L265.6,109.8z M265.5,110.9
				l0-0.3l-0.1,0l0,0.1l-0.1,0l0,0.1L265.5,110.9z M265.3,115.7l-0.1,0.1h0.1L265.3,115.7z M265.3,116.5l-0.1,0.1l0.1,0L265.3,116.5
				z M265.5,109.1l0,0.1l0.1,0.1l0-0.1l0-0.1l-0.2,0l-0.1,0l0,0.1l0,0.1l0.1,0L265.5,109.1z M265.5,115l0.1,0l0-0.2l-0.3,0l-0.1,0.1
				l0.1,0L265.5,115z M265.4,107.6l0.1,0l0.1,0l0-0.1l-0.1-0.1l-0.1,0L265.4,107.6L265.4,107.6z M265.6,105.1l-0.1,0l-0.1,0.1
				L265.6,105.1L265.6,105.1z M265.5,106.7L265.5,106.7L265.5,106.7L265.5,106.7L265.5,106.7z M265.6,108.3h-0.1l-0.1,0.1
				L265.6,108.3L265.6,108.3z M265.7,114.2v-0.1l-0.1-0.1l-0.1,0.2L265.7,114.2L265.7,114.2z M265.9,108.8l0.1-0.2l-0.1,0l-0.1,0
				l0,0.1L265.9,108.8z M265.9,109.5l-0.2,0v0.1L265.9,109.5L265.9,109.5z M266,111.4l0.1-0.1v-0.1l-0.3,0l0.1,0.2L266,111.4z
				 M265.9,114.7l0-0.1l-0.1-0.1l0.1,0l0-0.1h-0.1l-0.1,0l0.1,0.2L265.9,114.7z M265.9,115.2L265.9,115.2l-0.2,0.1l0.2,0.1
				L265.9,115.2z M265.9,105.5l-0.1,0l0,0.1l0.1,0L265.9,105.5z M266,113.7l-0.1-0.1h-0.1l0.1,0.1L266,113.7z M265.9,111.9l0.1,0.2
				l0.1,0l-0.1-0.2L265.9,111.9z M266,107.8l0,0.1l0.1,0.1L266,107.8L266,107.8z M266.1,112.7L266.1,112.7l-0.1,0.1h0.1V112.7z
				 M266.4,107.3l-0.1,0l0,0.2l0.1,0.1v-0.1L266.4,107.3z M266.5,109.1L266.5,109.1l-0.1-0.2l-0.1,0.1l0.1,0.2l0,0.1l0.2-0.1
				L266.5,109.1z M266.3,109.8v0.1V109.8L266.3,109.8z M266.5,110.9l0-0.1l-0.2-0.1v0.2l0,0.1L266.5,110.9L266.5,110.9z
				 M266.4,111.7L266.4,111.7l-0.1,0l-0.1,0.1L266.4,111.7L266.4,111.7z M266.4,116l0.1-0.2h-0.1l-0.1,0l0,0.1L266.4,116z
				 M266.3,108.3v-0.1V108.3l0,0.2h0.2L266.3,108.3z M266.5,113.3l-0.1-0.1l-0.1,0.2l0,0.1l0.1,0L266.5,113.3z M266.4,112.3
				l-0.1,0.2l0.1,0l0-0.1L266.4,112.3z M266.5,114.1l-0.1,0l-0.1,0.1L266.5,114.1L266.5,114.1z M266.5,115v-0.1l-0.1,0l0,0.1
				L266.5,115L266.5,115z M266.4,106.5l0,0.1l0.1,0.1L266.4,106.5L266.4,106.5z M266.7,107.8L266.7,107.8l-0.1,0.1h0.1V107.8z
				 M266.9,114.7l0-0.1l-0.1-0.1l-0.1,0l0,0.1l-0.1,0.1l0.2,0.1L266.9,114.7z M266.8,106.4h0.1l0.1-0.2l-0.1,0l0,0.1l-0.2-0.1v0.2
				L266.8,106.4z M266.8,112.7h-0.2l0,0.1l0.1,0.1l0.1,0l0.1-0.1l-0.1-0.1V112.7z M266.9,113.5h-0.2v0.1l0.1,0L266.9,113.5z
				 M266.8,117.1h-0.1v0.1h0.1V117.1z M266.8,113.8l-0.1,0L266.8,113.8L266.8,113.8L266.8,113.8z M266.8,115.4l-0.1,0.1h0.1
				L266.8,115.4z M267,112.4L267,112.4l-0.1,0.1h0.1V112.4z M267.2,115.9l0.1-0.1l0-0.1l-0.1-0.1h-0.1l-0.1,0.1l0,0.1L267.2,115.9z
				 M267,114.2l0.1,0l0-0.1L267,114.2L267,114.2z M267,114.8l0,0.1l0.1,0.1l0.1,0l-0.1-0.2L267,114.8z M267.2,104.9L267.2,104.9
				l-0.1,0.1l0.1,0L267.2,104.9z M267.2,106.5h-0.1v0.1h0.1V106.5z M267.3,113.3l0-0.1l-0.2,0.2l0.2,0V113.3z M271.8,108.3l-0.3-0.3
				l-0.7-0.5l-0.2,0l-0.3-0.1h-0.3l-0.2-0.1l-0.7,0.1l-0.3-0.1h-0.2l-0.8,0.1l-0.2,0l-0.2,0.4l0.1,0.1l0,0.1l-0.1,0.1l0,0.5
				l-0.1,0.7l0,0.9l0.1,0.3l-0.1,0.1v0.7l-0.1,0.2l0.1,0l0.2,0.2l0.3,0.4l1.9,0l0.5,0l0.5-0.1l1-0.4l0.2-0.2l0.3-0.6l0.2-0.2
				l-0.1-0.1l0.1-0.3l0-0.1v-0.8l0-0.1l0.1-0.2l-0.2-0.1l0-0.3L271.8,108.3z M267.2,111.9L267.2,111.9l0.1,0.1v-0.2L267.2,111.9z
				 M267.7,113.7l-0.2-0.1l-0.1,0v0.2l0.3,0L267.7,113.7z M267.6,114.4l-0.1,0L267.6,114.4l0.1,0.2L267.6,114.4L267.6,114.4z
				 M267.5,115.2l0,0.1l0.1,0.1L267.5,115.2L267.5,115.2z M267.7,107.2L267.7,107.2l0.1-0.2l-0.1-0.1h-0.1l0.1,0.1l0,0.2H267.7z
				 M267.6,106L267.6,106l0.1,0.2L267.6,106L267.6,106z M267.8,112.9l-0.1,0l-0.1,0.1l0.2,0L267.8,112.9z M267.7,105.4l-0.1,0v0.1
				l0.1,0V105.4z M268,113.2h-0.1l-0.1,0.1L268,113.2L268,113.2z M267.9,114.2l0.1,0l0-0.2l0-0.1l-0.2,0L267.9,114.2L267.9,114.2z
				 M268,105.7l-0.1,0.1l0.1,0.1l0.2-0.2L268,105.7z M268.1,112.4l-0.1,0l-0.1,0.1L268.1,112.4L268.1,112.4z M268.6,105.3
				L268.6,105.3l-0.2-0.1l-0.1,0.1l0,0.1l0.3,0L268.6,105.3z M268.3,113.7v0.1l0.1,0h0.1l-0.1-0.1L268.3,113.7z M268.7,104.8l0,0.1
				l0.1,0.1L268.7,104.8L268.7,104.8z M268.7,113.2l0,0.1l0,0.1l0.1,0v-0.3H268.7z M269,106.7l0-0.1l-0.1,0l-0.1,0.2L269,106.7
				L269,106.7z M268.9,105.7l-0.1,0l0,0.1l0,0.1l0.1,0.1l0.1-0.2L268.9,105.7z M268.9,114h-0.1v0.1h0.1V114z M269.3,105.3l-0.2,0
				l0,0.2l0.1,0L269.3,105.3z M269.2,114.4L269.2,114.4l0.1,0.1L269.2,114.4z M269.3,113.5h-0.1v0.1h0.1V113.5z M269.8,105.7h-0.1
				l-0.1,0.1L269.8,105.7L269.8,105.7z M269.8,113.3l-0.1,0l-0.1,0.1L269.8,113.3L269.8,113.3z M269.7,104.8L269.7,104.8l0.1,0.1
				L269.7,104.8L269.7,104.8z M270,112.9l0.1,0.1l0.1,0l0-0.1L270,112.9z M270,113.6l0,0.1l0.1,0.1L270,113.6L270,113.6z
				 M270.2,114.4l-0.1,0v0.1l0.1,0.1l0.1,0l0-0.1L270.2,114.4z M270.1,105.2v0.1l0.1,0.1l0-0.1L270.1,105.2z M270.4,113.2v0.1
				l0.1,0.1l0.1-0.1L270.4,113.2z M270.5,114l0,0.2l0.1,0L270.5,114z M270.5,105.7l0,0.1l0.1,0L270.5,105.7L270.5,105.7z M271,104.6
				L271,104.6l-0.1,0.1h0.1V104.6z M270.9,112.8L270.9,112.8l0-0.1L270.9,112.8z M271.1,113.6l-0.1,0l0.1,0.2l0.1,0L271.1,113.6
				L271.1,113.6z M270.9,114.6l0,0.1L270.9,114.6L270.9,114.6z M271.4,106.8l0.1-0.1l0-0.1l-0.1-0.1l-0.1,0.2h-0.1l0.1,0.1
				L271.4,106.8z M271.5,112.4h-0.1v0.1L271.5,112.4L271.5,112.4z M271.5,107.5L271.5,107.5l-0.1,0.1h0.1V107.5z M271.9,107.1l0-0.1
				l-0.1,0l-0.1,0l-0.1,0.1l0.1,0H271.9z M271.9,106.2l-0.1,0.1L271.9,106.2L271.9,106.2z M271.8,113.8L271.8,113.8l0.1,0v-0.1l0,0
				h-0.1l0,0L271.8,113.8L271.8,113.8z M272.2,107.4L272.2,107.4l-0.2,0.1l0.1,0.1l0.1-0.1L272.2,107.4z M272.1,105.9L272.1,105.9
				l0.1,0.1L272.1,105.9z M272.2,106.6L272.2,106.6l-0.1,0.2l0.1,0V106.6z M272.7,112l-0.2-0.1l0,0.1v0.1h0.3L272.7,112z
				 M272.5,106.1l0.1,0.1l0.1,0.1l-0.1-0.2L272.5,106.1z M272.7,107l-0.1,0l-0.1,0.1l0.1,0L272.7,107z M272.6,111.4L272.6,111.4
				L272.6,111.4L272.6,111.4z M272.7,107.8L272.7,107.8l-0.2,0.1l0,0.1l0.1,0L272.7,107.8z M272.7,112.7h-0.1v0.1h0.1V112.7z
				 M272.7,110.3L272.7,110.3L272.7,110.3L272.7,110.3L272.7,110.3z M273,105.7h-0.1v0.1h0.1L273,105.7z M273,108.3l-0.1,0v0.1
				l0.1,0V108.3z M272.9,112.5l0.2,0.1l0.1-0.1l0-0.1l-0.4,0L272.9,112.5z M273,106.6l0,0.1l0.1,0L273,106.6z M272.9,111.6
				L272.9,111.6v-0.1V111.6z M273.1,114L273.1,114l-0.1,0.2l0.1,0.1l0-0.1V114z M273,107.3l0,0.1l0.1,0l0-0.1L273,107.3z M273.1,109
				l0,0.2l0.1,0.1l0.1-0.2L273.1,109z M273.5,109.4l-0.1,0l0,0.1l0,0.1l0.2,0L273.5,109.4z M273.4,112l-0.1-0.1v0.2l0.1,0.1l0.1-0.1
				L273.4,112z M273.4,112.7l-0.1,0.1l0.1,0L273.4,112.7z M273.5,110.3l0-0.1l-0.1,0l-0.1,0.2l0,0.1l0.1,0l-0.1-0.2L273.5,110.3z
				 M273.5,108.6l-0.1,0l0,0.1l0.1,0.1l0.1,0.1l0-0.1L273.5,108.6z M273.7,107.3l0.1,0.2l0.1,0.1l0.1-0.3L273.7,107.3z M273.8,110.7
				l-0.1,0l0,0.1l0.1,0L273.8,110.7z M273.8,109.2l-0.1,0v0.1L273.8,109.2L273.8,109.2z M273.9,109.8l-0.1,0l0,0.1l0.1,0.1l0.1,0
				l0-0.1L273.9,109.8z M274,112.5l-0.1,0l-0.1,0.1L274,112.5L274,112.5z M273.9,111.5l-0.1-0.1l0,0.1l0,0.1L273.9,111.5
				L273.9,111.5z M273.9,108.3l0,0.1l0.1,0l0-0.1L273.9,108.3z M274.4,110.4l-0.2-0.1l0,0.1v0.1L274.4,110.4L274.4,110.4z
				 M274.4,111.2l-0.2-0.1l0,0.1h0.2L274.4,111.2z M274.4,109.4l-0.1-0.1v0.2l0.1,0.1l0.1-0.1L274.4,109.4z M274.8,110l0-0.1
				l-0.1-0.1l-0.2,0.1l0,0.1l0.3,0.1L274.8,110z M274.7,111.7L274.7,111.7L274.7,111.7L274.7,111.7z M274.7,110.8l-0.1,0.1
				L274.7,110.8L274.7,110.8z M274.8,109L274.8,109l-0.1,0.1h0.1V109z M275.2,110.5v-0.1l-0.1,0l-0.1,0l0.1,0.1L275.2,110.5z"/>
		</g>
	</g>
</g>
<g id="Layer_2">
</g>
</svg>
